<ttFont>
          <CharString index="0">
            203 -78 callgsubr
            23 -21 241 63 285 84 hstemhm
            -1 26 377 165 hintmask 01001111
            591 677 rmoveto
            -25 7 -7 -22 -11 -23 -13 -14 rlinecurve
            -116 10 -109 12 -118 19 rrcurveto
            -87 -29 -106 -101 -94 callsubr
            18 18 67 0 callgsubr
            -146 -545 -13 -3 -30 -9 -13 -7 rlinecurve
            hintmask 00011111
            4 -27 rlineto
            hintmask 01001111
            8 48 51 1 48 hhcurveto
            40 47 -4 -3 23 hvcurveto
            hintmask 00011111
            3 16 rlineto
            hintmask 00101111
            -37 14 -5 32 39 vvcurveto
            19 4 45 11 71 vhcurveto
            3 20 29 2 32 hhcurveto
            32 22 -1 -3 20 hvcurveto
            -3 -106 -6 -64 -3 -23 rrcurveto
            hintmask 01001111
            -14 -3 -29 -9 -13 -63 callsubr
            hintmask 00101111
            -81 callsubr
            hintmask 01001111
            -21 callsubr
            -55 callgsubr
            hintmask 00101111
            -90 callsubr
            hintmask 10001111
            -5 34 -9 110 158 vvcurveto
            124 7 127 17 90 vhcurveto
            -189 -376 rmoveto
            hintmask 01001111
            -3 -20 -25 -1 -30 hhcurveto
            -25 -28 2 2 -18 hvcurveto
            48 275 rlineto
            22 43 -2 -4 23 hvcurveto
            3 -3 rlineto
            4 -61 3 -93 -87 vvcurveto
            return
          </CharString>
          <CharString index="1">
            -70 callsubr
            hintmask 0001110010000000
            4 -24 rlineto
            hintmask 1000110010000000
            -79 callgsubr
            hintmask 0001110010000000
            -32 callsubr
            hintmask 1000101010000000
            -93 callsubr
            rrcurveto
            -4 28 -8 89 132 vvcurveto
            101 6 105 4 29 vhcurveto
            -91 callsubr
            hintmask 0001100110000000
            -2 22 rlineto
            -6 -43 -47 -4 -147 hhcurveto
            hintmask 0100110010000000
            -36 -80 2 7 -53 hvcurveto
            -6 -23 15 -9 18 -7 17 -6 rlinecurve
            -132 -472 -11 -3 -24 -8 -12 -6 rlinecurve
            4 -24 rlineto
            hintmask 0001110010000000
            7 41 48 2 40 hhcurveto
            hintmask 1000110010000000
            23 45 -2 -5 23 hvcurveto
            3 16 rlineto
            hintmask 0001110010000000
            -28 13 -7 26 30 vvcurveto
            hintmask 0010110010000000
            17 3 31 9 59 vhcurveto
            3 13 27 2 22 hhcurveto
            16 35 -1 -5 16 hvcurveto
            -2 -88 -5 -46 -2 -19 rrcurveto
            10 221 rmoveto
            hintmask 1000110010000000
            -2 -16 -22 -2 -24 hhcurveto
            hintmask 0001110010000000
            -21 -24 2 2 -14 hvcurveto
            43 232 rlineto
            3 9 12 2 12 hhcurveto
            12 14 -1 -5 10 hvcurveto
            5 -43 4 -43 -123 vvcurveto
            return
          </CharString>
          <CharString index="2">
            rmoveto
            -62 -37 -24 -64 -72 vvcurveto
            -32 14 -66 32 5 4 1 3 5 vhcurveto
            9 32 13 27 20 27 -2 6 rcurveline
            -29 -17 48 22 -6 hvcurveto
            15 4 15 6 15 hhcurveto
            63 42 -74 -198 -66 -10 -96 -27 -62 hvcurveto
            -11 -16 -20 -6 -21 hhcurveto
            -119 -27 161 119 69 9 102 18 67 hvcurveto
            -19 11 rlineto
            -119 -70 -68 -115 -138 vvcurveto
            -180 124 -110 180 vhcurveto
            182 63 112 146 193 vvcurveto
            184 -96 95 -184 vhcurveto
            return
          </CharString>
          <CharString index="3">
            -5 callgsubr
            15 -29 46 -47 29 -19 28 19 47 47 14 29 rrcurveto
            return
          </CharString>
          <CharString index="4">
            -18 27 -43 34 -28 15 -63 callgsubr
            return
          </CharString>
          <CharString index="5">
            rmoveto
            -80 callgsubr
            hintmask 00100110
            -3 12 callgsubr
            -7 -56 -45 -2 -56 hhcurveto
            -47 -50 2 7 -47 hvcurveto
            hintmask 00100110
            -4 -27 rlineto
            hintmask 00101010
            13 -7 29 -9 14 -3 rrcurveto
            hintmask 01010010
            -66 callsubr
            -168 -9 -91 -4 -30 vhcurveto
            -14 -3 -29 -9 -13 -63 callsubr
            hintmask 00110010
            -81 callsubr
            hintmask 01010010
            -21 callsubr
            3 12 callgsubr
            -90 callsubr
            hintmask 10010010
            -5 34 -9 110 158 vvcurveto
            return
          </CharString>
          <CharString index="6">
            rmoveto
            -94 -17 80 94 hvcurveto
            6 26 34 2 17 hhcurveto
            21 25 -1 -4 21 hvcurveto
            4 -19 7 -26 7 -16 24 4 rcurveline
            -5 23 -4 27 25 vvcurveto
            23 4 24 7 23 vhcurveto
            -21 6 rlineto
            -24 -24 -25 -7 -41 hhcurveto
            -25 -32 5 6 -18 hvcurveto
            hintmask 11100111
            2 41 10 66 16 39 rrcurveto
            10 15 21 4 21 -10 callsubr
            24 -75 callgsubr
            hintmask 11010111
            1 45 9 44 15 40 rrcurveto
            5 13 11 3 14 hhcurveto
            1 23 rlineto
            hintmask 11100111
            9 -51 -72 7 -53 hhcurveto
            -159 -39 -112 -135 -162 vvcurveto
            -152 95 -82 153 vhcurveto
            66 22 59 49 43 53 -17 17 rcurveline
            hintmask 11001110
            -32 -39 -35 -20 -51 hhcurveto
            return
          </CharString>
          <CharString index="7">
            rmoveto
            -89 callgsubr
            rrcurveto
            hintmask 01100100
            4 -24 rlineto
            hintmask 10100100
            -90 callgsubr
            hintmask 01100100
            -32 callsubr
            hintmask 10100100
            -93 callsubr
            rrcurveto
            -59 callgsubr
            103 7 101 4 27 vhcurveto
            -91 callsubr
            hintmask 01010100
            -2 22 rlineto
            hintmask 01001100
            -6 -43 -47 -36 callgsubr
            hintmask 01100100
            -40 -43 -31 callsubr
            hintmask 01001100
            11 -6 15 -6 12 -4 rrcurveto
            4 -31 8 -103 -103 vvcurveto
            -54 callsubr
            return
          </CharString>
          <CharString index="8">
            22 -3 callgsubr
            518 29 -17 17 -10 callgsubr
            172 151 hintmask 01100010
            202 511 rmoveto
            hintmask 01000110
            15 3 18 6 15 6 -3 22 rcurveline
            hintmask 01100010
            -6 -37 -59 -2 -37 hhcurveto
            -40 -52 2 6 -39 hvcurveto
            hintmask 01000110
            1 callsubr
            hintmask 10010010
            11 -6 16 -4 12 -3 25 -21 20 -14 109 -227 rrcurveto
            -22 vlineto
            -115 -8 -56 -3 -25 vhcurveto
            -89 callgsubr
            4 -24 rcurveline
            hintmask 01100010
            6 40 41 2 40 hhcurveto
            hintmask 10100010
            -47 callgsubr
            rlineto
            hintmask 01100010
            -93 callsubr
            rrcurveto
            hintmask 10010010
            -4 30 -8 75 137 vvcurveto
            154 236 16 3 20 6 12 3 callgsubr
            -6 -32 -43 -1 -32 hhcurveto
            hintmask 01001010
            -31 -34 2 4 -30 hvcurveto
            hintmask 01100010
            -3 -15 rlineto
            13 -6 5 -13 -17 vvcurveto
            -24 -5 -27 -48 -144 vhcurveto
            -33 61 -24 82 -23 68 rrcurveto
            return
          </CharString>
          <CharString index="9">
            232 0 34 -22 0 callsubr
            623 34 8 -44 callgsubr
            185 81 323 81 hintmask 0011000011000000
            111 326 rmoveto
            hintmask 1001000011000000
            -138 -9 -121 -21 callgsubr
            hintmask 0101000011000000
            4 -27 rlineto
            hintmask 1001000011000000
            7 47 43 2 47 hhcurveto
            69 10 -4 -5 46 hvcurveto
            hintmask 0101000011000000
            -55 callgsubr
            hintmask 1001000011000000
            -90 callsubr
            -54 46 -5 124 178 vvcurveto
            77 vlineto
            4 2 rlineto
            215 -357 23 -56 -54 vvcurveto
            hintmask 0011000011000000
            4 35 47 2 35 hhcurveto
            hintmask 1001000011000000
            41 45 -3 -6 41 hvcurveto
            -55 callgsubr
            hintmask 0101000011000000
            -23 8 -21 5 -26 4 rrcurveto
            hintmask 1001000011000000
            -6 34 -9 89 169 vvcurveto
            124 9 137 6 30 vhcurveto
            19 3 33 7 18 -29 callgsubr
            -6 -40 -48 -3 -40 hhcurveto
            hintmask 0010010011000000
            -64 -35 5 4 -26 hvcurveto
            hintmask 0011000011000000
            -3 -21 rlineto
            84 -21 9 -81 -214 vvcurveto
            hintmask 0010010011000000
            -94 vlineto
            -4 -2 rlineto
            -198 323 2 28 31 vvcurveto
            14 10 14 14 4 vhcurveto
            -3 18 rlineto
            -6 -25 -23 -2 -25 hhcurveto
            -50 callsubr
            hintmask 0010100011000000
            -87 -29 -109 -99 -91 vvcurveto
            hintmask 0011000011000000
            -17 9 -11 17 -1 vhcurveto
            24 22 27 16 30 12 rrcurveto
            hintmask 0010001111000000
            1 7 rlineto
            -81 callgsubr
            53 5 29 2 rrcurveto
            5 -61 7 -118 -77 vvcurveto
            return
          </CharString>
          <CharString index="10">
            95 0 29 -17 -21 23 14 callgsubr
            516 29 6 -20 22 -51 callgsubr
            hstemhm
            84 151 -24 callgsubr
            246 511 rmoveto
            hintmask 0001001010000000
            -91 callsubr
            hintmask 0001000110000000
            -2 22 rlineto
            -24 callgsubr
            -6 -43 -47 -36 callgsubr
            -77 callsubr
            hintmask 0001000110000000
            -40 callsubr
            hintmask 1000010010000000
            11 -6 15 -6 12 -4 rrcurveto
            4 -31 8 -106 -103 vvcurveto
            -139 -7 -74 -4 -25 vhcurveto
            -89 callgsubr
            4 -24 rcurveline
            hintmask 0010100010000000
            6 40 41 2 40 hhcurveto
            -14 callsubr
            -47 callgsubr
            rlineto
            hintmask 0010100010000000
            -93 callsubr
            rrcurveto
            -24 callgsubr
            -3 23 -7 66 -2 99 rrcurveto
            -14 callsubr
            59 59 rlineto
            59 -139 12 -37 -35 vvcurveto
            -25 -7 -21 -8 -8 vhcurveto
            -24 callgsubr
            3 -16 rlineto
            4 34 44 1 34 hhcurveto
            36 60 -2 -7 36 hvcurveto
            -14 callsubr
            4 24 -11 6 -25 8 -11 2 rlinecurve
            hintmask 0100100010000000
            -182 314 rlineto
            hintmask 0001010010000000
            164 164 15 3 16 5 15 3 callgsubr
            -7 -33 -62 -1 -33 hhcurveto
            -29 -52 2 4 -29 hvcurveto
            hintmask 0001001010000000
            -3 -15 rlineto
            -24 callgsubr
            14 -8 4 -13 -16 vvcurveto
            -32 -11 -40 -110 -144 vhcurveto
            hintmask 0001000110000000
            104 7 103 4 26 vhcurveto
            return
          </CharString>
          <CharString index="11">
            rmoveto
            -89 callgsubr
            4 -24 rcurveline
            hintmask 10010011
            6 60 67 2 70 hhcurveto
            48 88 -4 -7 48 hvcurveto
            hintmask 01010011
            5 18 rlineto
            -27 32 -5 46 54 vvcurveto
            hintmask 10010011
            -26 hlineto
            -2 -27 -3 -16 -7 -25 rrcurveto
            -9 -18 -23 -3 -28 hhcurveto
            -9 -26 3 3 -9 hvcurveto
            -4 41 -3 71 101 vvcurveto
            103 6 104 4 26 vhcurveto
            1 hlineto
            -91 callsubr
            hintmask 10001011
            -2 22 rlineto
            hintmask 10000111
            -6 -43 -47 -36 callgsubr
            hintmask 10010011
            -40 -43 -31 callsubr
            hintmask 10000111
            11 -6 15 -6 12 -4 rrcurveto
            4 -31 8 -105 -103 vvcurveto
            -141 -9 -74 -3 -24 vhcurveto
            endchar
          </CharString>
          <CharString index="12">
            57 6 callgsubr
            -18 callsubr
            -55 20 31 -48 hvcurveto
            -67 -24 -58 -50 -44 -61 rrcurveto
            endchar
          </CharString>
          <CharString index="13">
            -91 -104 callgsubr
            return
          </CharString>
          <CharString index="14">
            -15 5 -18 5 -15 3 return
          </CharString>
          <CharString index="15">
            -60 callsubr
            2 -5 -8 1 -9 hhcurveto
            -10 -10 -1 -2 -6 hvcurveto
            -44 -66 -64 -43 -91 13 callsubr
            endchar
          </CharString>
          <CharString index="16">
            15 3 18 5 -36 callsubr
            return
          </CharString>
          <CharString index="17">
            -15 7 -29 7 -16 3 rrcurveto
            return
          </CharString>
          <CharString index="18">
            1 -3 -6 1 -7 hhcurveto
            -13 -13 -1 -2 -6 hvcurveto
            -44 -75 -64 -69 -91 -8 callsubr
            endchar
          </CharString>
          <CharString index="19">
            124 7 125 5 32 vhcurveto
            16 3 29 7 15 7 return
          </CharString>
          <CharString index="20">
            rmoveto
            -85 -31 -102 -98 -90 -104 callgsubr
            15 15 52 6 32 1 rrcurveto
            4 -53 4 -94 -81 vvcurveto
            -190 vlineto
            -141 -27 -99 -112 -85 vhcurveto
            17 -21 108 49 119 77 73 93 rlinecurve
            -4 30 -9 119 168 vvcurveto
            hintmask 10000100
            104 9 116 5 37 vhcurveto
            hintmask 01000100
            -30 callgsubr
            hintmask 00100100
            5 callsubr
            hintmask 01000100
            -6 -28 -31 -3 -28 hhcurveto
            hintmask 01001100
            -50 callsubr
            endchar
          </CharString>
          <CharString index="21">
            rmoveto
            -89 callgsubr
            rrcurveto
            hintmask 01100110
            4 -24 rlineto
            hintmask 10100110
            -90 callgsubr
            hintmask 01100110
            -32 callsubr
            hintmask 10100110
            -93 callsubr
            rrcurveto
            -59 callgsubr
            103 7 101 4 27 vhcurveto
            -91 callsubr
            hintmask 01010110
            -2 22 rlineto
            hintmask 01001110
            -6 -43 -47 -36 callgsubr
            hintmask 01100110
            -40 -43 -31 callsubr
            hintmask 01001110
            11 -6 15 -6 12 -4 rrcurveto
            4 -31 8 -103 -103 vvcurveto
            -54 callsubr
            return
          </CharString>
          <CharString index="22">
            60 18 50 42 63 vvcurveto
            61 -43 23 -60 vhcurveto
            -65 -14 -53 -46 -64 vvcurveto
            101 76 rmoveto
            37 22 -23 -36 -14 -2 -17 -5 -13 hvcurveto
            -5 -7 -17 -4 -9 hhcurveto
            -37 -22 25 35 14 2 17 5 13 hvcurveto
            5 7 17 3 9 hhcurveto
            endchar
          </CharString>
          <CharString index="23">
            -28 callsubr
            -81 43 -58 43 -19 callgsubr
            -58 -43 -81 13 callsubr
            204 62 rlineto
            endchar
          </CharString>
          <CharString index="24">
            -204 62 -10 -24 81 -43 58 -43 44 -66 rlinecurve
            -2 7 12 -1 12 hhcurveto
            12 12 1 2 7 hvcurveto
            44 66 58 43 81 43 -10 24 rcurveline
            endchar
          </CharString>
          <CharString index="25">
            0 29 -29 32 -20 14 callgsubr
            197 58 241 51 -27 27 10 -20 return
          </CharString>
          <CharString index="26">
            7 47 50 2 47 hhcurveto
            return
          </CharString>
          <CharString index="27">
            2 -6 -13 1 -13 hhcurveto
            -7 -6 -1 -1 -3 hvcurveto
            -13 -22 -11 -66 -1 -33 rrcurveto
            endchar
          </CharString>
          <CharString index="28">
            -149 -65 1 6 -89 hvcurveto
            -78 -34 -93 -93 -85 -104 callgsubr
            16 16 54 5 30 1 rrcurveto
            5 -49 5 -97 -112 vvcurveto
            -108 -7 -134 -21 -100 vhcurveto
            25 -6 6 17 9 19 10 12 rlinecurve
            -21 60 68 -19 65 hhcurveto
            194 36 130 168 197 vvcurveto
            return
          </CharString>
          <CharString index="29">
            -28 -11 -38 -26 -18 -24 9 -27 22 -29 24 -20 -11 -23 -22 -16 -31 -17 10 -24 rcurveline
            91 20 65 66 10 70 rrcurveto
            endchar
          </CharString>
          <CharString index="30">
            -40 -43 3 6 -40 hvcurveto
            return
          </CharString>
          <CharString index="31">
            -89 -78 callgsubr
            626 -70 callgsubr
            hintmask 00110010
            return
          </CharString>
          <CharString index="32">
            31 rmoveto
            -89 callgsubr
            return
          </CharString>
          <CharString index="33">
            -73 callsubr
            hstemhm
            97 151 hintmask 01100100
            return
          </CharString>
          <CharString index="34">
            -129 -3 callgsubr
            518 29 8 -51 callgsubr
            return
          </CharString>
          <CharString index="35">
            -5 -6 -8 -2 -14 hhcurveto
            -30 -32 27 33 -19 hvcurveto
            -1 15 0 13 14 vvcurveto
            -20 hlineto
            -2 -40 -11 -44 -22 -31 rrcurveto
            -12 vlineto
            -18 37 56 -13 41 hhcurveto
            82 29 60 34 48 50 rrcurveto
            79 -49 62 -75 7 vhcurveto
            122 133 -19 14 -7 -8 -7 -7 -9 -5 rlinecurve
            -98 -55 4 14 -97 hvcurveto
            return
          </CharString>
          <CharString index="36">
            19 -29 45 -36 30 -16 36 16 42 37 17 28 -12 23 -35 38 -24 20 6 57 28 56 42 40 -16 20 rcurveline
            -78 -45 -100 -119 -90 vvcurveto
            return
          </CharString>
          <CharString index="37">
            -75 callsubr
            rrcurveto
            return
          </CharString>
          <CharString index="38">
            85 -7 callsubr
            return
          </CharString>
          <CharString index="39">
            vstem
            223 85 rmoveto
            -95 callgsubr
            return
          </CharString>
          <CharString index="40">
            1 43 9 47 15 39 rrcurveto
            5 13 13 3 12 hhcurveto
            1 23 rlineto
            return
          </CharString>
          <CharString index="41">
            5 -37 10 -127 -124 vvcurveto
            return
          </CharString>
          <CharString index="42">
            hvcurveto
            4 -23 9 -31 8 -20 25 4 rcurveline
            -6 29 -4 30 29 vvcurveto
            28 4 26 9 27 vhcurveto
            -22 5 rlineto
            -29 return
          </CharString>
          <CharString index="43">
            -63 callgsubr
            endchar
          </CharString>
          <CharString index="44">
            -7 4 -27 rcurveline
            return
          </CharString>
          <CharString index="45">
            hstem
            28 164 192 164 vstem
            return
          </CharString>
          <CharString index="46">
            4 -30 8 -105 -102 vvcurveto
            -1 callgsubr
            -76 -3 -25 vhcurveto
            -89 callgsubr
            4 -24 rcurveline
            -79 callgsubr
            2 23 -93 callsubr
            rlinecurve
            return
          </CharString>
          <CharString index="47">
            -1 33 -11 55 -13 22 rrcurveto
            return
          </CharString>
          <CharString index="48">
            2 9 13 2 9 hhcurveto
            60 14 -47 -60 -57 -11 -66 -57 hvcurveto
            -10 hlineto
            -5 -41 rlineto
            -1 8 9 0 6 hhcurveto
            109 114 68 110 118 -97 18 -118 -1 hvcurveto
            return
          </CharString>
          <CharString index="49">
            rmoveto
            31 20 30 8 32 57 70 -52 45 -18 callsubr
            -35 20 31 -48 hvcurveto
            -67 -24 -58 -50 -44 -61 rrcurveto
            return
          </CharString>
          <CharString index="50">
            11 -61 -86 8 -62 hhcurveto
            -183 -72 -133 -167 -221 vvcurveto
            -209 106 -112 182 vhcurveto
            81 32 72 60 45 76 -15 15 rcurveline
            -44 -49 -42 -25 -61 hhcurveto
            return
          </CharString>
          <CharString index="51">
            9 -50 -72 7 -53 hhcurveto
            -159 -39 -113 -135 -161 vvcurveto
            -153 97 -82 153 vhcurveto
            65 22 58 47 43 55 -17 17 rcurveline
            -31 -37 -39 -21 -48 hhcurveto
            return
          </CharString>
          <CharString index="52">
            574 -28 callsubr
            -81 49 -50 -23 callsubr
            -50 -70 -81 -8 callsubr
            186 79 rlineto
            return
          </CharString>
          <CharString index="53">
            -1 callgsubr
            -76 -4 -25 vhcurveto
            return
          </CharString>
          <CharString index="54">
            -2 -12 23 hvcurveto
            -23 3 -23 5 -23 vhcurveto
            26 hlineto
            2 46 9 48 25 39 rrcurveto
            return
          </CharString>
          <CharString index="55">
            rmoveto
            122 2 rlineto
            5 vlineto
            -4 9 -3 15 -2 13 -25 -3 -38 -1 -25 -1 return
          </CharString>
          <CharString index="56">
            230 1 110 1 71 vhcurveto
            -5 1 -14 -10 -35 -10 -17 -7 rlinecurve
            3 -106 3 -81 1 -212 7 -3 rcurveline
            13 4 33 8 9 5 rrcurveto
            return
          </CharString>
          <CharString index="57">
            -69 -59 12 1 -39 hvcurveto
            return
          </CharString>
          <CharString index="58">
            740 262 rmoveto
            35 2 69 7 37 vhcurveto
            -9 3 -52 -13 -31 -2 -55 -5 rlinecurve
            -49 -100 -52 -77 -73 -83 7 -36 rcurveline
            169 hlineto
            return
          </CharString>
          <CharString index="59">
            -81 callsubr
            -21 callsubr
            return
          </CharString>
          <CharString index="60">
            hintmask 1001000110000000
            return
          </CharString>
          <CharString index="61">
            rmoveto
            -9 -6 rlineto
            5 -16 4 -18 -35 vvcurveto
            -37 -4 -20 -3 -17 vhcurveto
            19 -6 4 15 5 14 7 13 rlinecurve
            -3 30 39 -2 34 hhcurveto
            return
          </CharString>
          <CharString index="62">
            -77 -9 -89 -28 -68 vhcurveto
            -13 -21 -20 -4 -24 hhcurveto
            -29 -33 10 17 -24 hvcurveto
            -4 67 -3 95 67 vvcurveto
            134 2 57 6 67 vhcurveto
            return
          </CharString>
          <CharString index="63">
            -4 28 -7 75 128 vvcurveto
            4 20 30 2 31 hhcurveto
            31 27 -2 -4 21 hvcurveto
            -1 -128 -5 -75 -3 -26 rrcurveto
            endchar
          </CharString>
          <CharString index="64">
            -5 callgsubr
            rrcurveto
            hintmask 01011100
            15 -29 46 -47 29 -19 28 19 47 47 14 29 rrcurveto
            return
          </CharString>
          <CharString index="65">
            53 11 56 18 49 vhcurveto
            6 15 18 3 16 hhcurveto
            1 24 rlineto
            return
          </CharString>
          <CharString index="66">
            89 rmoveto
            20 -14 73 81 55 75 80 52 rlinecurve
            20 vlineto
            -76 46 -63 76 -69 78 -19 -13 rcurveline
            112 -193 rlineto
            return
          </CharString>
          <CharString index="67">
            -3 -24 rlineto
            return
          </CharString>
          <CharString index="68">
            3 6 -113 hvcurveto
            -9 -66 8 -7 rlineto
            return
          </CharString>
          <CharString index="69">
            102 -15 71 428 71 return
          </CharString>
          <CharString index="70">
            rmoveto
            27 -15 15 -62 -58 vvcurveto
            -56 -15 -63 -27 -15 vhcurveto
            -27 15 -15 63 56 vvcurveto
            58 15 62 27 15 vhcurveto
            return
          </CharString>
          <CharString index="71">
            15 7 rrcurveto
            return
          </CharString>
          <CharString index="72">
            0 -15 callgsubr
            return
          </CharString>
          <CharString index="73">
            -67 callgsubr
            12 -23 35 -38 24 -20 -6 return
          </CharString>
          <CharString index="74">
            29 -38 callgsubr
            return
          </CharString>
          <CharString index="75">
            2 23 rlineto
            return
          </CharString>
          <CharString index="76">
            3 6 -40 hvcurveto
            -40 callsubr
            return
          </CharString>
          <CharString index="77">
            -91 49 -64 69 -44 75 return
          </CharString>
          <CharString index="78">
            -87 -29 -106 -101 -91 -40 callgsubr
            24 22 27 16 30 -72 callgsubr
            return
          </CharString>
          <CharString index="79">
            rmoveto
            10 24 return
          </CharString>
          <CharString index="80">
            310 -70 callsubr
            return
          </CharString>
          <CharString index="81">
            -20 hstemhm
            -100 26 186 165 return
          </CharString>
          <CharString index="82">
            rrcurveto
            1 -3 -6 1 return
          </CharString>
          <CharString index="83">
            -90 611 40 0 -20 29 -64 callgsubr
            183 165 hintmask 00010100
            return
          </CharString>
          <CharString index="84">
            70 -1 callsubr
            1 -3 -6 -8 callgsubr
            -6 -1 -1 -3 hvcurveto
            -44 -75 return
          </CharString>
          <CharString index="85">
            109 -96 25 193 119 -69 26 return
          </CharString>
          <CharString index="86">
            56 45 -2 -7 56 hvcurveto
            return
          </CharString>
          <CharString index="87">
            -85 -40 callgsubr
            24 22 27 16 30 -72 callgsubr
            return
          </CharString>
          <CharString index="88">
            28 -27 28 -28 -27 -29 -28 -28 -27 29 -30 27 28 27 30 27 vhcurveto
            return
          </CharString>
          <CharString index="89">
            hhcurveto
            56 30 41 50 41 56 -24 17 rcurveline
            -33 -23 -28 -6 -35 hhcurveto
            -54 return
          </CharString>
          <CharString index="90">
            -2 -4 34 25 vvcurveto
            -25 hlineto
            return
          </CharString>
          <CharString index="91">
            hstemhm
            28 163 return
          </CharString>
          <CharString index="92">
            vstem
            143 297 rmoveto
            112 193 -19 13 -69 -78 -63 return
          </CharString>
          <CharString index="93">
            hintmask 1000100010000000
            return
          </CharString>
          <CharString index="94">
            511 29 8 -51 callgsubr
            hstemhm
            return
          </CharString>
          <CharString index="95">
            -18 24 -37 26 -28 11 return
          </CharString>
          <CharString index="96">
            hstemhm
            319 152 return
          </CharString>
          <CharString index="97">
            hhcurveto
            33 40 -13 -22 return
          </CharString>
          <CharString index="98">
            65 7 -20 hstemhm
            return
          </CharString>
          <CharString index="99">
            -49 10 -24 rcurveline
            return
          </CharString>
          <CharString index="100">
            rmoveto
            -19 29 -45 36 -30 16 -36 -16 -42 -37 -17 -28 return
          </CharString>
          <CharString index="101">
            6 40 43 3 40 hhcurveto
            42 47 -2 -6 43 hvcurveto
            return
          </CharString>
          <CharString index="102">
            118 hintmask 11000000
            return
          </CharString>
          <CharString index="103">
            hintmask 1001000111000000
            return
          </CharString>
          <CharString index="104">
            -15 -27 29 hvcurveto
            return
          </CharString>
          <CharString index="105">
            hstemhm
            97 151 return
          </CharString>
          <CharString index="106">
            -44 75 rlinecurve
            return
          </CharString>
          <CharString index="107">
            -21 24 -21 return
          </CharString>
          <CharString index="108">
            -4 -24 rlineto
            return
          </CharString>
          <CharString index="109">
            -24 rlineto
            hintmask 1000100110000000
            return
          </CharString>
          <CharString index="110">
            -57 53 -26 58 vhcurveto
            return
          </CharString>
          <CharString index="111">
            hstem
            0 272 vstem
            return
          </CharString>
          <CharString index="112">
            -4 27 rlineto
            return
          </CharString>
          <CharString index="113">
            47 112 48 hstem
            0 61 99 61 vstem
            return
          </CharString>
          <CharString index="114">
            5 -21 hvcurveto
            1 50 9 98 18 47 rrcurveto
            return
          </CharString>
          <CharString index="115">
            -6 3 rcurveline
            -11 -9 -14 -8 -14 -6 rrcurveto
            return
          </CharString>
          <CharString index="116">
            108 74 -12 -18 97 hvcurveto
            10 7 rlineto
            return
          </CharString>
          <CharString index="117">
            115 96 vvcurveto
            31 -4 33 -14 28 vhcurveto
            return
          </CharString>
          <CharString index="118">
            -49 -37 17 28 -29 hvcurveto
            return
          </CharString>
          <CharString index="119">
            hintmask 0011000111000000
            return
          </CharString>
          <CharString index="120">
            -43 10 -24 rcurveline
            return
          </CharString>
          <CharString index="121">
            -100 -3 76 148 hvcurveto
            3 21 30 return
          </CharString>
          <CharString index="122">
            181 hstem
            0 189 vstem
            189 return
          </CharString>
          <CharString index="123">
            47 67 -2 -7 47 hvcurveto
            4 24 rlineto
            return
          </CharString>
        <CharString name=".notdef">
          -294 endchar
        </CharString>
        <CharString name=".null">
          -474 endchar
        </CharString>
        <CharString name="A">
          -107 callsubr
          endchar
        </CharString>
        <CharString name="AE">
          301 -15 98 -83 37 -25 14 callgsubr
          319 61 211 67 -53 53 13 -20 hstemhm
          4 26 318 152 126 36 21 36 hintmask 1000110011100000
          hintmask 0001110011100000
          -21 18 rmoveto
          4 -27 rlineto
          hintmask 0100110011100000
          8 48 51 1 48 hhcurveto
          40 47 -4 -3 23 hvcurveto
          hintmask 0001110011100000
          3 16 rlineto
          hintmask 0010110011100000
          -37 14 -5 32 39 vvcurveto
          23 3 30 34 160 vhcurveto
          3 19 25 2 21 hhcurveto
          18 13 -1 -3 14 hvcurveto
          -203 1 -120 203 vhcurveto
          hintmask 1000110011100000
          81 16 64 43 63 85 16 callgsubr
          14 callsubr
          2 12 hhcurveto
          25 23 -2 -4 15 -65 callsubr
          -25 -27 -7 -38 hhcurveto
          -21 -20 3 7 callsubr
          5 12 34 2 13 hhcurveto
          hintmask 1000110011110000
          -13 callgsubr
          2 68 7 51 33 44 rrcurveto
          hintmask 1000100111110000
          -6 21 rlineto
          -8 -56 -105 -5 -139 hhcurveto
          hintmask 1000110011110000
          -89 -85 6 25 -84 hvcurveto
          -29 callsubr
          -10 6 -5 14 19 vvcurveto
          hintmask 0100101011100000
          14 4 20 5 14 vhcurveto
          18 18 67 0 callgsubr
          -181 -561 -13 -3 -30 -9 -13 -7 rlinecurve
          hintmask 0001110011100000
          319 577 rmoveto
          hintmask 1000101011100000
          2 10 11 1 11 hhcurveto
          11 20 -1 -3 10 hvcurveto
          3 -17 -1 -24 -2 -17 -19 -159 rcurveline
          -3 -14 -19 -1 -16 hhcurveto
          -20 -17 1 3 -15 hvcurveto
          12 59 16 72 19 87 rrcurveto
          endchar
        </CharString>
        <CharString name="Aacute">
          -107 callsubr
          187 447 rmoveto
          -92 callsubr
        </CharString>
        <CharString name="Acircumflex">
          -107 callsubr
          192 381 -84 callsubr
        </CharString>
        <CharString name="Adieresis">
          -107 callsubr
          -37 483 rmoveto
          -103 callsubr
          endchar
        </CharString>
        <CharString name="Agrave">
          -107 callsubr
          49 391 rmoveto
          -85 callgsubr
        </CharString>
        <CharString name="Aring">
          203 -78 callgsubr
          23 -21 241 63 285 84 23 47 112 48 hstemhm
          -1 26 259 61 57 165 -123 61 hintmask 0100110111100000
          591 677 rmoveto
          -25 7 -7 -22 -11 -23 -13 -14 rlinecurve
          -116 10 -109 12 -118 19 rrcurveto
          -87 -29 -106 -101 -94 callsubr
          18 18 67 0 callgsubr
          -146 -545 -13 -3 -30 -9 -13 -7 rlinecurve
          hintmask 0001110111100000
          4 -27 rlineto
          hintmask 0100110111100000
          8 48 51 1 48 hhcurveto
          40 47 -4 -3 23 hvcurveto
          hintmask 0001110111100000
          3 16 rlineto
          hintmask 0010110111100000
          -37 14 -5 32 39 vvcurveto
          19 4 45 11 71 vhcurveto
          3 20 29 2 32 hhcurveto
          32 22 -1 -3 20 hvcurveto
          -3 -106 -6 -64 -3 -23 rrcurveto
          hintmask 0100110111100000
          -14 -3 -29 -9 -13 -63 callsubr
          hintmask 0010110111100000
          -81 callsubr
          hintmask 0100110111100000
          -21 callsubr
          -55 callgsubr
          hintmask 0010110111100000
          -90 callsubr
          hintmask 1000110111100000
          -5 34 -9 110 158 vvcurveto
          124 7 127 17 90 vhcurveto
          -189 -376 rmoveto
          hintmask 0100110111100000
          -3 -20 -25 -1 -30 hhcurveto
          -25 -28 2 2 -18 hvcurveto
          48 275 rlineto
          22 43 -2 -4 23 hvcurveto
          3 -3 rlineto
          4 -61 3 -93 -87 vvcurveto
          -118 446 rmoveto
          3 callsubr
          hintmask 0100111111010000
          -85 callsubr
        </CharString>
        <CharString name="Atilde">
          203 -78 callgsubr
          23 -21 241 63 285 84 55 114 hstemhm
          -1 26 377 165 hintmask 0100111110000000
          591 677 rmoveto
          -25 7 -7 -22 -11 -23 -13 -14 rlinecurve
          -116 10 -109 12 -118 19 rrcurveto
          -87 -29 -106 -101 -94 callsubr
          18 18 67 0 callgsubr
          -146 -545 -13 -3 -30 -9 -13 -7 rlinecurve
          hintmask 0001111110000000
          4 -27 rlineto
          hintmask 0100111110000000
          8 48 51 1 48 hhcurveto
          40 47 -4 -3 23 hvcurveto
          hintmask 0001111110000000
          3 16 rlineto
          hintmask 0010111110000000
          -37 14 -5 32 39 vvcurveto
          19 4 45 11 71 vhcurveto
          3 20 29 2 32 hhcurveto
          32 22 -1 -3 20 hvcurveto
          -3 -106 -6 -64 -3 -23 rrcurveto
          hintmask 0100111110000000
          -14 -3 -29 -9 -13 -63 callsubr
          hintmask 0010111110000000
          -81 callsubr
          hintmask 0100111110000000
          -21 callsubr
          -55 callgsubr
          hintmask 0010111110000000
          -90 callsubr
          hintmask 1000111110000000
          -5 34 -9 110 158 vvcurveto
          124 7 127 17 90 vhcurveto
          -189 -376 rmoveto
          hintmask 0100111110000000
          -3 -20 -25 -1 -30 hhcurveto
          -25 -28 2 2 -18 hvcurveto
          48 275 rlineto
          22 43 -2 -4 23 hvcurveto
          3 -3 rlineto
          4 -61 3 -93 -87 vvcurveto
          -194 408 rmoveto
          31 20 30 8 32 -95 callsubr
        </CharString>
        <CharString name="B">
          164 -15 84 -63 -21 353 42 206 65 7 -26 callsubr
          135 175 -152 177 hintmask 0111001100000000
          360 651 rmoveto
          hintmask 0110111010000000
          -89 -111 1 6 -89 hvcurveto
          -78 -34 -93 -93 -85 -104 callgsubr
          16 16 54 5 30 1 rrcurveto
          4 -49 6 -97 -112 vvcurveto
          -117 -6 -125 -22 -100 vhcurveto
          25 -6 6 17 9 19 10 12 rlinecurve
          -19 50 83 -21 53 hhcurveto
          116 19 176 116 117 vvcurveto
          86 -62 39 -88 vhcurveto
          8 vlineto
          hintmask 0111001100000000
          66 29 59 63 71 vvcurveto
          118 -99 0 -128 vhcurveto
          -46 -313 rmoveto
          hintmask 1011001010000000
          98 23 -49 -98 -29 -6 -52 -9 -28 hvcurveto
          -10 -14 -26 -3 -17 hhcurveto
          -23 -37 9 14 -19 hvcurveto
          -4 67 -3 91 75 vvcurveto
          167 1 20 7 71 vhcurveto
          hintmask 0111001100000000
          2 13 16 1 13 hhcurveto
          63 22 -27 -63 -34 -9 -44 -13 -25 hvcurveto
          -10 -14 -26 -3 -17 hhcurveto
          -14 hlineto
          endchar
        </CharString>
        <CharString name="C">
          60 -115 114 583 84 -43 24 hstemhm
          5 callgsubr
          240 27 hintmask 11011000
          -57 callgsubr
          hintmask 10111000
          -42 callsubr
          hintmask 11011000
          -57 callsubr
          endchar
        </CharString>
        <CharString name="CR">
          -294 endchar
        </CharString>
        <CharString name="Ccedilla">
          60 -345 60 170 20 677 84 -43 24 hstemhm
          5 callgsubr
          104 77 59 27 hintmask 11101110
          -57 callgsubr
          hintmask 11011110
          -42 callsubr
          hintmask 11101110
          -57 callsubr
          -125 -216 -87 callgsubr
        </CharString>
        <CharString name="D">
          207 -15 84 -63 -21 601 65 7 -26 callsubr
          195 179 hintmask 01101110
          374 651 rmoveto
          hintmask 01011110
          -79 callsubr
          hintmask 01101110
          -22 callgsubr
          hintmask 10101110
          -45 callsubr
          hintmask 01101110
          2 12 15 1 10 hhcurveto
          endchar
        </CharString>
        <CharString name="E">
          -105 callgsubr
          endchar
        </CharString>
        <CharString name="Eacute">
          -105 callgsubr
          189 788 rmoveto
          -92 callsubr
        </CharString>
        <CharString name="Ecircumflex">
          -105 callgsubr
          209 722 -84 callsubr
        </CharString>
        <CharString name="Edieresis">
          -105 callgsubr
          -31 824 rmoveto
          -103 callsubr
          endchar
        </CharString>
        <CharString name="Egrave">
          -105 callgsubr
          82 732 rmoveto
          -85 callgsubr
        </CharString>
        <CharString name="Eth">
          207 -15 84 -63 -21 327 36 238 65 7 -26 callsubr
          195 179 hintmask 01110111
          256 315 -52 callsubr
          -238 -11 -48 callgsubr
          217 341 rmoveto
          hintmask 01101111
          -79 callsubr
          hintmask 01110111
          -22 callgsubr
          hintmask 10110111
          -45 callsubr
          hintmask 01110111
          2 12 15 1 10 hhcurveto
          endchar
        </CharString>
        <CharString name="Euro">
          66 -15 89 137 42 -34 33 39 42 -34 33 153 70 -39 23 hstemhm
          83 163 195 25 hintmask 1010110110000000
          hintmask 1101010110000000
          35 290 rmoveto
          55 3 rlineto
          1 hlineto
          -3 -14 -2 -13 -2 -14 -42 3 rcurveline
          -3 -11 -7 -16 -7 -12 3 -6 rcurveline
          55 3 rlineto
          -149 3 96 -79 151 hhcurveto
          65 22 58 47 43 55 -17 17 rcurveline
          -31 -37 -39 -21 -48 hhcurveto
          -84 -21 63 79 -6 hvcurveto
          hintmask 1010110110000000
          1 56 102 2 50 -32 callgsubr
          rrcurveto
          -3 -53 -93 -2 -53 hhcurveto
          29 vlineto
          15 vlineto
          1 55 103 2 51 -32 callgsubr
          rrcurveto
          -3 -52 -92 -2 -53 hhcurveto
          4 48 10 55 15 36 rrcurveto
          -58 callgsubr
          hintmask 1010101110000000
          -67 callsubr
          hintmask 1011010110000000
          9 -50 -72 7 -53 hhcurveto
          -121 -30 -94 -84 -38 -109 rrcurveto
          -1 hlineto
          -52 3 -3 -11 -7 -16 -7 -12 rlinecurve
          endchar
        </CharString>
        <CharString name="F">
          33 -78 callgsubr
          303 64 210 77 -63 84 -4 -26 callsubr
          125 36 15 25 hintmask 0011001111000000
          hintmask 0011100111000000
          93 666 rmoveto
          -29 callsubr
          hintmask 0101010111000000
          -81 callgsubr
          52 6 31 1 rrcurveto
          5 -56 7 -101 -99 vvcurveto
          -168 -9 -91 -21 callgsubr
          hintmask 0011001111000000
          4 -27 rlineto
          hintmask 0101001111000000
          -48 callsubr
          hintmask 0011001111000000
          -55 callgsubr
          hintmask 1001100111000000
          -15 7 -29 7 -16 3 -5 31 -8 93 -1 134 rrcurveto
          2 16 15 0 11 hhcurveto
          25 33 -1 -4 25 -65 callsubr
          -28 -34 -6 -48 hhcurveto
          -14 -14 1 3 -14 hvcurveto
          83 4 81 4 50 vhcurveto
          -5 30 26 -3 30 hhcurveto
          hintmask 0011100111100000
          20 30 2 6 20 hvcurveto
          -26 5 -44 7 -26 vhcurveto
          25 hlineto
          4 61 16 67 30 54 rrcurveto
          hintmask 0011001111100000
          -19 10 rlineto
          hintmask 0011100111000000
          -24 -23 -45 -3 -33 -105 -105 21 -105 hhcurveto
          endchar
        </CharString>
        <CharString name="G">
          102 -199 93 91 98 -59 59 197 19 283 84 -48 24 hstemhm
          5 callgsubr
          190 106 -49 27 hintmask 1101101100000000
          342 83 rmoveto
          -130 -3 126 130 60 12 110 24 56 hvcurveto
          14 18 26 3 25 hhcurveto
          hintmask 1101101010000000
          43 54 -18 -29 33 hvcurveto
          1 -27 4 -31 7 -26 rrcurveto
          27 hlineto
          hintmask 1101011010000000
          -42 callsubr
          hintmask 1101101010000000
          14 -66 -90 10 -67 hhcurveto
          -183 -63 -126 -145 -193 vvcurveto
          -182 99 -98 182 vhcurveto
          hintmask 1011101100000000
          29 10 28 13 26 17 rrcurveto
          -1 vlineto
          4 -14 1 -21 -15 vvcurveto
          -18 -3 -36 -7 -17 vhcurveto
          -5 -14 -20 -4 -14 hhcurveto
          -19 -14 5 10 -6 hvcurveto
          -7 -1 -12 -30 -16 -27 -22 -24 rlinecurve
          -17 1 11 -9 17 hhcurveto
          92 101 111 84 38 hvcurveto
          5 100 7 98 10 100 9 16 12 12 13 11 -15 17 rcurveline
          -35 -52 -82 -16 -59 hhcurveto
          -14 -15 1 2 -15 hvcurveto
          -3 -22 21 -4 23 -6 17 -9 rlinecurve
          5 -22 3 -23 1 -22 rrcurveto
          hintmask 1101101100000000
          5 -108 rlineto
          -2 -12 -13 -1 -14 hhcurveto
          endchar
        </CharString>
        <CharString name="H">
          270 -78 callgsubr
          331 63 226 40 -35 callsubr
          24 -20 188 26 hstemhm
          -99 26 183 165 194 165 hintmask 0101000110110000
          635 651 rmoveto
          45 3 42 7 18 vhcurveto
          5 14 20 4 14 hhcurveto
          19 14 -5 -10 6 hvcurveto
          7 1 12 30 16 27 22 24 rlinecurve
          17 -1 -11 9 -17 hhcurveto
          -97 -160 -139 -86 -45 hvcurveto
          5 -55 4 -93 2 -92 rrcurveto
          -5 -22 -32 -3 -42 hhcurveto
          -42 -34 4 5 -22 hvcurveto
          hintmask 0101100010110000
          2 92 7 92 5 33 rrcurveto
          hintmask 0101010010110000
          -30 callgsubr
          hintmask 0101001010110000
          5 callsubr
          hintmask 0101010010110000
          -6 -28 -31 -3 -28 hhcurveto
          -50 callsubr
          hintmask 0101000111110000
          -85 -31 -102 -98 -90 -104 callgsubr
          15 15 52 6 32 1 rrcurveto
          4 -53 4 -94 -109 vvcurveto
          -168 -9 -91 -4 -30 vhcurveto
          -14 -3 -29 -9 -13 -63 callsubr
          hintmask 0011000110110000
          -81 callsubr
          hintmask 0101000110110000
          56 44 -2 -7 56 hvcurveto
          -55 callgsubr
          hintmask 0011000110110000
          -90 callsubr
          hintmask 1001000110110000
          -5 34 -7 94 -1 153 rrcurveto
          4 25 28 3 45 hhcurveto
          45 26 -3 -4 25 hvcurveto
          -1 -153 -7 -94 -3 -31 -12 -3 -23 -9 -11 -7 rrcurveto
          hintmask 0101000110110000
          4 -27 rlineto
          7 46 52 2 46 hhcurveto
          hintmask 0011000110110000
          50 56 -2 -7 50 hvcurveto
          hintmask 0101000110110000
          3 26 -18 7 -33 7 -19 3 rlinecurve
          hintmask 0011000110110000
          -6 34 -9 89 169 vvcurveto
          endchar
        </CharString>
        <CharString name="I">
          -76 callsubr
          275 336 -102 callsubr
          endchar
        </CharString>
        <CharString name="IJ">
          297 0 37 -25 -21 626 34 -17 17 -35 callsubr
          1 callgsubr
          165 220 165 hintmask 01100011
          495 164 rmoveto
          -141 -27 -99 -112 -85 vhcurveto
          17 -21 108 49 119 77 73 93 rlinecurve
          -4 30 -9 119 168 vvcurveto
          104 10 119 5 37 vhcurveto
          hintmask 01001011
          14 3 29 9 13 7 rrcurveto
          hintmask 01000111
          5 callsubr
          hintmask 01100011
          -7 -47 -50 -2 -47 hhcurveto
          -56 -45 2 7 -56 hvcurveto
          hintmask 01000111
          -3 -26 rlineto
          hintmask 01010011
          15 -7 29 -7 16 -3 rrcurveto
          hintmask 01100011
          5 -32 7 -127 -104 vvcurveto
          -220 -18 rmoveto
          -88 callsubr
          -3 26 rcurveline
          hintmask 01000111
          -7 -56 -45 -2 -56 hhcurveto
          hintmask 01100011
          -47 -50 2 7 -47 hvcurveto
          -4 -27 rlineto
          hintmask 01000111
          13 -7 29 -9 14 -3 rrcurveto
          hintmask 01001011
          -66 callsubr
          hintmask 10100011
          -168 -9 -91 -4 -30 vhcurveto
          -14 -3 -29 -9 -13 -63 callsubr
          -81 callsubr
          hintmask 01100011
          -21 callsubr
          hintmask 10100011
          3 26 -15 7 -29 7 -16 3 rlinecurve
          hintmask 01100011
          -17 callgsubr
        </CharString>
        <CharString name="Iacute">
          -76 callsubr
          275 336 -102 callsubr
          59 437 rmoveto
          hintmask 00110010
          -92 callsubr
        </CharString>
        <CharString name="Icircumflex">
          -76 callsubr
          376 -54 callgsubr
          83 -433 -102 callsubr
          0 vmoveto
          hintmask 00110010
          -88 callsubr
          -3 26 rcurveline
          -7 -56 -45 -2 -56 hhcurveto
          hintmask 00100110
          -47 -50 2 7 -47 hvcurveto
          hintmask 00110010
          -4 -27 13 -7 29 -9 14 -3 rlinecurve
          hintmask 00100110
          -66 callsubr
          hintmask 00101010
          -168 -9 -91 -4 -30 vhcurveto
          hintmask 01010010
          -14 -3 -29 -9 -13 -63 callsubr
          -48 callsubr
          hintmask 00110010
          -55 callgsubr
          hintmask 01010010
          -41 callgsubr
          endchar
        </CharString>
        <CharString name="Idieresis">
          -76 callsubr
          275 336 -102 callsubr
          -105 473 rmoveto
          hintmask 00110010
          -103 callsubr
          endchar
        </CharString>
        <CharString name="Igrave">
          -76 callsubr
          275 336 -102 callsubr
          29 381 rmoveto
          hintmask 00110010
          -85 callgsubr
        </CharString>
        <CharString name="Itilde">
          -89 -78 callgsubr
          626 34 -35 callsubr
          80 114 1 callgsubr
          165 hintmask 00110011
          35 733 -58 callsubr
          264 -414 rmoveto
          -80 callgsubr
          hintmask 00100111
          -3 26 rlineto
          hintmask 00110011
          -7 -56 -45 -2 -56 hhcurveto
          -47 -50 2 7 -47 hvcurveto
          hintmask 00100111
          -4 -27 rlineto
          hintmask 00101011
          13 -7 29 -9 14 -3 rrcurveto
          hintmask 01010011
          -66 callsubr
          -168 -9 -91 -4 -30 vhcurveto
          -14 -3 -29 -9 -13 -63 callsubr
          hintmask 00110011
          -81 callsubr
          hintmask 01010011
          -21 callsubr
          -55 callgsubr
          hintmask 00110011
          -90 callsubr
          hintmask 10010011
          -17 callgsubr
        </CharString>
        <CharString name="J">
          -24 callsubr
          hintmask 01001100
          87 664 -87 callsubr
        </CharString>
        <CharString name="Jcircumflex">
          -24 callsubr
          375 -54 callgsubr
          hintmask 01001100
          -104 -105 -87 callsubr
        </CharString>
        <CharString name="K">
          209 -119 59 60 20 -20 34 -34 -12 callgsubr
          24 -26 callsubr
          hintmask 1100000101000000
          hintmask 1100010001000000
          288 611 rmoveto
          -30 callgsubr
          hintmask 1100001001000000
          5 callsubr
          hintmask 1100010001000000
          -6 -28 -31 -3 -28 hhcurveto
          -50 callsubr
          -4 callsubr
          -85 -31 -102 -98 -90 -104 callgsubr
          15 15 52 6 31 1 rrcurveto
          1 hlineto
          5 -53 6 -94 -109 vvcurveto
          -168 -9 -91 -4 -30 vhcurveto
          -14 -3 -29 -9 -13 -63 callsubr
          hintmask 1000100101000000
          -81 callsubr
          hintmask 1100000101000000
          -21 callsubr
          -55 callgsubr
          hintmask 1000100101000000
          -90 callsubr
          hintmask 1010000101000000
          -4 28 -8 82 -2 118 70 72 rcurveline
          55 -133 rlineto
          18 -44 14 -43 -45 vvcurveto
          -15 -2 -19 -4 -15 vhcurveto
          hintmask 1100010001000000
          -75 95 153 -64 120 hhcurveto
          28 59 7 28 4 -1 4 -2 4 hvcurveto
          -30 14 -25 18 -23 23 -8 -3 rcurveline
          -4 -27 -46 -10 -27 -3 -24 17 -32 48 -14 27 -208 395 rcurveline
          183 187 13 3 30 9 13 7 rlinecurve
          5 callsubr
          -8 -38 -69 -1 -38 hhcurveto
          hintmask 1100001001000000
          -30 -72 4 3 -23 hvcurveto
          hintmask 1100010001000000
          -3 -16 rlineto
          17 -13 5 -11 -21 vvcurveto
          hintmask 1100000101000000
          -38 -6 -45 -140 -185 vhcurveto
          117 6 125 5 40 vhcurveto
          endchar
        </CharString>
        <CharString name="L">
          47 -15 78 554 -70 callgsubr
          234 26 hintmask 11001100
          348 -15 -97 callgsubr
        </CharString>
        <CharString name="Ldotaccent">
          47 -15 78 554 -70 callgsubr
          234 26 hintmask 11001100
          495 385 rmoveto
          -104 callsubr
          -147 -400 -97 callgsubr
        </CharString>
        <CharString name="Lslash">
          47 -15 78 554 -70 callgsubr
          234 26 hintmask 11001100
          397 442 rmoveto
          -7 3 -24 -12 -45 -18 -30 -11 rlinecurve
          -134 -49 -48 -14 -80 -23 10 -48 rcurveline
          9 -4 357 130 rlineto
          -57 -411 -97 callgsubr
        </CharString>
        <CharString name="M">
          389 -78 callgsubr
          22 0 callsubr
          621 35 8 -20 25 -20 hstemhm
          -50 26 341 12 hintmask 0000100111000000
          146 664 rmoveto
          -87 -29 -109 -99 -94 callsubr
          17 17 61 4 27 1 rrcurveto
          hintmask 0100000111000000
          -89 -545 -14 -3 -29 -8 -13 -7 rlinecurve
          hintmask 0001000111000000
          4 -27 rlineto
          hintmask 0100000111000000
          6 40 28 2 40 hhcurveto
          28 42 -2 -3 28 hvcurveto
          hintmask 0000100111000000
          3 16 rlineto
          hintmask 0001000111000000
          -36 19 -6 40 39 vvcurveto
          42 3 118 7 78 vhcurveto
          12 130 8 1 rlineto
          41 -102 63 -197 -109 vvcurveto
          hintmask 0100000111000000
          -12 0 -10 -1 -11 vhcurveto
          13 -7 51 36 44 20 55 19 rlinecurve
          60 4 47 85 266 vhcurveto
          7 -1 21 -140 11 -159 1 -141 rlinecurve
          -12 -3 -23 -9 -11 -63 callsubr
          hintmask 0010000111000000
          7 46 52 2 46 hhcurveto
          hintmask 0100000111000000
          50 49 -2 -7 50 hvcurveto
          -55 callgsubr
          hintmask 0010000111000000
          -18 7 -33 7 -19 3 rrcurveto
          hintmask 0000100111000000
          -21 106 -29 294 108 vvcurveto
          hintmask 1000010011000000
          19 2 36 4 19 vhcurveto
          15 4 19 7 13 7 -5 25 rcurveline
          -6 -39 -70 -2 -39 hhcurveto
          hintmask 0000101011000000
          -45 -50 2 4 -34 hvcurveto
          hintmask 0000110011000000
          -3 -17 rlineto
          16 -5 10 -12 -16 vvcurveto
          hintmask 0000101011000000
          -92 -326 7 -6 -1 -17 -10 -3 rcurveline
          -6 28 rlineto
          -47 217 -22 76 31 vvcurveto
          20 14 9 20 5 vhcurveto
          -3 18 rlineto
          -6 -25 -33 -2 -25 hhcurveto
          -50 callsubr
          endchar
        </CharString>
        <CharString name="N">
          -98 callsubr
          endchar
        </CharString>
        <CharString name="Nacute">
          -98 callsubr
          460 447 rmoveto
          -60 callsubr
          2 -5 -8 1 -9 hhcurveto
          hintmask 0011000011000000
          -10 -10 -1 -2 -6 hvcurveto
          -44 -66 -64 -43 -91 13 callsubr
          endchar
        </CharString>
        <CharString name="Ntilde">
          232 0 34 -22 0 callsubr
          623 34 8 -51 callgsubr
          24 -20 77 114 hstemhm
          -100 26 185 81 323 81 hintmask 0011000101100000
          111 326 rmoveto
          hintmask 1001000101100000
          -138 -9 -121 -21 callgsubr
          hintmask 0101000101100000
          4 -27 rlineto
          hintmask 1001000101100000
          7 47 43 2 47 hhcurveto
          69 10 -4 -5 46 hvcurveto
          hintmask 0101000101100000
          -55 callgsubr
          hintmask 1001000101100000
          -90 callsubr
          -54 46 -5 124 178 vvcurveto
          77 vlineto
          4 2 rlineto
          215 -357 23 -56 -54 vvcurveto
          hintmask 0011000101100000
          4 35 47 2 35 hhcurveto
          hintmask 1001000101100000
          41 45 -3 -6 41 hvcurveto
          -55 callgsubr
          hintmask 0101000101100000
          -23 8 -21 5 -26 4 rrcurveto
          hintmask 1001000101100000
          -6 34 -9 89 169 vvcurveto
          124 9 137 6 30 vhcurveto
          19 3 33 7 18 -29 callgsubr
          -6 -40 -48 -3 -40 hhcurveto
          hintmask 0010010101100000
          -64 -35 5 4 -26 hvcurveto
          hintmask 0011000101100000
          -3 -21 rlineto
          84 -21 9 -81 -214 vvcurveto
          hintmask 0010010101100000
          -94 vlineto
          -4 -2 rlineto
          -198 323 2 28 31 vvcurveto
          14 10 14 14 4 vhcurveto
          -3 18 rlineto
          -6 -25 -23 -2 -25 hhcurveto
          -50 callsubr
          hintmask 0010100101100000
          -87 -29 -109 -99 -91 vvcurveto
          hintmask 0011000101100000
          -17 9 -11 17 -1 vhcurveto
          24 22 27 16 30 12 rrcurveto
          hintmask 0010001111100000
          1 7 rlineto
          -81 callgsubr
          53 5 29 2 rrcurveto
          5 -61 7 -118 -77 vvcurveto
          85 408 -66 callgsubr
          hintmask 0011000101100000
          56 30 41 50 41 56 -24 17 rcurveline
          -33 -23 -28 -6 -35 hhcurveto
          -54 -55 20 31 -48 hvcurveto
          -67 -24 -58 -50 -44 -61 rrcurveto
          endchar
        </CharString>
        <CharString name="O">
          -102 callgsubr
          endchar
        </CharString>
        <CharString name="OE">
          340 -15 98 228 64 207 84 -82 67 13 -20 hstemhm
          31 179 178 151 126 36 21 36 hintmask 1101011100000000
          642 83 rmoveto
          14 callsubr
          1 12 hhcurveto
          25 23 -1 -4 15 -65 callsubr
          -25 -27 -6 -38 hhcurveto
          -21 -20 2 7 callsubr
          hintmask 1101011110000000
          5 12 34 2 13 hhcurveto
          -13 callgsubr
          hintmask 1100111110000000
          2 68 7 51 33 44 rrcurveto
          hintmask 1110011100000000
          -6 21 rlineto
          hintmask 1101011100000000
          -8 -58 -82 -5 -88 -70 -52 15 -104 hhcurveto
          -183 -63 -126 -145 -193 vvcurveto
          -162 82 -118 162 vhcurveto
          51 11 55 23 51 38 rrcurveto
          -48 37 51 -24 91 hhcurveto
          78 26 59 53 51 65 16 callgsubr
          -299 hmoveto
          -130 -3 126 130 hvcurveto
          hintmask 1110011100000000
          60 12 110 24 56 vhcurveto
          14 18 26 3 25 hhcurveto
          27 31 -7 -14 27 hvcurveto
          -2 -63 -10 -110 -136 vvcurveto
          -111 -4 -44 -24 -14 vhcurveto
          endchar
        </CharString>
        <CharString name="Oacute">
          -102 callgsubr
          192 107 rmoveto
          -92 callsubr
        </CharString>
        <CharString name="Ocircumflex">
          -102 callgsubr
          202 41 -84 callsubr
        </CharString>
        <CharString name="Odieresis">
          -102 callgsubr
          -32 143 rmoveto
          -103 callsubr
          endchar
        </CharString>
        <CharString name="Ograve">
          -102 callgsubr
          58 51 rmoveto
          -85 callgsubr
        </CharString>
        <CharString name="Oslash">
          -15 84 326 96 91 84 hstem
          5 callgsubr
          53 48 139 179 vstem
          208 -87 rmoveto
          232 611 38 99 24 11 callgsubr
          -13 -5 -18 -2 -14 -1 rlinecurve
          -26 -80 -22 -62 -30 -78 -140 -368 rcurveline
          -22 -57 -39 -93 -25 -56 8 -10 14 -9 11 -5 rrcurveto
          145 753 -105 callsubr
          endchar
        </CharString>
        <CharString name="Otilde">
          -15 84 326 96 91 84 55 114 hstem
          5 callgsubr
          53 48 139 179 vstem
          348 666 -105 callsubr
          -165 68 rmoveto
          31 20 30 8 32 -95 callsubr
        </CharString>
        <CharString name="P">
          97 -78 callgsubr
          283 47 262 75 -72 65 -65 72 hstemhm
          -100 4 callgsubr
          136 180 hintmask 0011010111000000
          279 336 rmoveto
          111 5 92 3 44 vhcurveto
          2 11 17 1 11 hhcurveto
          71 18 -52 -71 -66 -16 -76 -7 callgsubr
          128 124 84 129 143 -92 22 -143 -1 hvcurveto
          hintmask 0011001111000000
          -89 -1 -112 2 -88 6 rrcurveto
          -28 callgsubr
          hintmask 0101100111000000
          -98 callgsubr
          16 16 54 5 30 1 rrcurveto
          5 -55 7 -102 -100 vvcurveto
          -168 -9 -91 -21 callgsubr
          hintmask 0011010111000000
          4 -27 rlineto
          hintmask 0101010111000000
          -48 callsubr
          hintmask 0011010111000000
          -55 callgsubr
          hintmask 1001010111000000
          -41 callgsubr
          endchar
        </CharString>
        <CharString name="Q">
          172 66 84 91 96 245 84 hstem
          30 176 139 48 48 175 65 109 vstem
          471 -241 rmoveto
          156 31 163 90 67 vvcurveto
          11 -7 5 -7 4 vhcurveto
          -32 -9 -31 -2 -32 3 -4 -8 rcurveline
          3 -4 1 -5 -5 vvcurveto
          -22 -22 -28 -15 -15 vhcurveto
          -95 -91 64 42 -94 hvcurveto
          110 61 142 125 223 vvcurveto
          185 -99 94 -185 vhcurveto
          -167 -57 -135 -146 -176 vvcurveto
          -155 122 -76 155 10 vhcurveto
          62 37 24 64 72 vvcurveto
          32 -14 66 -32 -5 -4 -1 -3 -5 vhcurveto
          -9 -32 -13 -27 -20 -27 2 -6 rcurveline
          29 17 -48 -22 6 hvcurveto
          -15 -4 -15 -6 -15 hhcurveto
          -85 -20 132 85 60 12 83 23 56 hvcurveto
          11 16 20 5 20 hhcurveto
          129 15 -143 -129 -115 -38 -181 -115 -8 hvcurveto
          2 -1 -15 4 -14 3 -15 2 rlinecurve
          -74 -22 -86 -50 -50 -59 18 -16 rcurveline
          27 32 38 9 39 hhcurveto
          87 110 -56 -55 70 hvcurveto
          endchar
        </CharString>
        <CharString name="R">
          0 37 -25 -21 25 -21 26 -21 308 41 237 -9 callsubr
          -104 4 callgsubr
          135 182 hintmask 1000110111000000
          275 336 rmoveto
          111 5 92 3 44 vhcurveto
          2 11 17 1 11 hhcurveto
          69 19 -45 -69 -60 -22 -63 -60 hvcurveto
          -11 hlineto
          -4 -41 rlineto
          12 26 -2 -2 12 hvcurveto
          hintmask 0010110111000000
          45 -119 15 -66 -42 vvcurveto
          -30 -9 -25 -9 -9 vhcurveto
          3 -18 rlineto
          hintmask 1000110111000000
          3 34 53 2 34 hhcurveto
          44 58 -1 -8 44 hvcurveto
          hintmask 0100110111000000
          4 27 rlineto
          hintmask 0001110111000000
          -13 7 -30 9 -13 3 rrcurveto
          hintmask 1000110111000000
          -144 292 rlineto
          66 34 47 57 74 vvcurveto
          140 -96 17 -140 -89 -112 1 6 -88 vhcurveto
          hintmask 1000101111000000
          -93 callgsubr
          hintmask 0100110111000000
          -81 callsubr
          hintmask 1000110111000000
          -21 callsubr
          -55 callgsubr
          hintmask 0100110111000000
          -90 callsubr
          hintmask 0010110111000000
          -17 callgsubr
        </CharString>
        <CharString name="Racute">
          -103 callgsubr
          290 437 rmoveto
          hintmask 0100011011100000
          -92 callsubr
        </CharString>
        <CharString name="Rcaron">
          -103 callgsubr
          53 488 rmoveto
          hintmask 0100011011100000
          -83 callsubr
        </CharString>
        <CharString name="Rcommaaccent">
          -103 callgsubr
          182 -431 rmoveto
          hintmask 0100011011100000
          -12 callsubr
          -78 callsubr
        </CharString>
        <CharString name="S">
          -92 callgsubr
          endchar
        </CharString>
        <CharString name="Scaron">
          -92 callgsubr
          282 917 rmoveto
          -83 callsubr
        </CharString>
        <CharString name="T">
          11 -78 callgsubr
          581 79 -63 63 hstemhm
          -100 26 219 165 hintmask 00110110
          390 651 rmoveto
          -129 -82 15 -108 hhcurveto
          -28 callgsubr
          hintmask 01001110
          -98 callgsubr
          13 23 34 6 26 hhcurveto
          21 17 -3 -4 11 hvcurveto
          5 -57 6 -102 -96 vvcurveto
          -168 -9 -91 -21 callgsubr
          hintmask 00110110
          4 -27 rlineto
          hintmask 01010110
          -48 callsubr
          hintmask 00110110
          -55 callgsubr
          hintmask 10010110
          -41 callgsubr
          87 3 93 4 56 vhcurveto
          41 -4 40 -9 33 -14 29 -12 rcurveline
          12 49 21 58 30 41 -25 14 rcurveline
          -9 -14 -11 -12 -13 -9 rrcurveto
          -6 -24 -27 -3 -24 hhcurveto
          endchar
        </CharString>
        <CharString name="Thorn">
          140 -78 callgsubr
          168 47 281 48 82 -70 callgsubr
          129 180 hintmask 0011110011000000
          278 482 rmoveto
          3 11 15 2 11 hhcurveto
          72 17 -58 -72 -70 -12 -81 -7 callgsubr
          124 124 84 129 137 -105 28 -137 -1 hvcurveto
          -20 -21 -1 -21 hhcurveto
          2 39 3 29 2 14 16 3 29 7 -36 callsubr
          hintmask 0011100111000000
          -3 26 rlineto
          hintmask 0011110011000000
          -7 -56 -45 -2 -56 hhcurveto
          -47 -50 2 7 -47 hvcurveto
          hintmask 0011100111000000
          -4 -27 rlineto
          hintmask 0011101011000000
          13 -7 29 -9 14 -3 rrcurveto
          hintmask 0101110011000000
          -66 callsubr
          -168 -9 -91 -4 -30 vhcurveto
          -14 -3 -29 -9 -13 -63 callsubr
          hintmask 0011110011000000
          -81 callsubr
          hintmask 0101110011000000
          -21 callsubr
          -55 callgsubr
          hintmask 0011110011000000
          -90 callsubr
          hintmask 1001110011000000
          -5 34 -9 110 158 vvcurveto
          48 1 49 1 43 vhcurveto
          2 1 2 2 vvcurveto
          endchar
        </CharString>
        <CharString name="U">
          -107 callgsubr
          endchar
        </CharString>
        <CharString name="Uacute">
          -107 callgsubr
          484 191 rmoveto
          -60 callsubr
          hintmask 1001000001100000
          2 -5 -8 1 -9 hhcurveto
          -10 -10 -1 -2 -6 hvcurveto
          -44 -66 -64 -43 -91 13 callsubr
          endchar
        </CharString>
        <CharString name="Ucircumflex">
          -107 callgsubr
          472 125 -28 callsubr
          rlineto
          hintmask 1001000001100000
          -81 43 -58 43 -44 66 rrcurveto
          2 -7 -12 -8 callgsubr
          -12 -1 -2 -7 hvcurveto
          -44 -66 -58 -43 -81 13 callsubr
          204 62 rlineto
          endchar
        </CharString>
        <CharString name="Udieresis">
          -107 callgsubr
          237 227 rmoveto
          -86 callgsubr
          rrcurveto
          hintmask 1001000001100000
          -64 callsubr
        </CharString>
        <CharString name="Ugrave">
          -107 callgsubr
          320 135 -28 callsubr
          rlineto
          hintmask 1001000001100000
          -91 43 -64 43 -44 66 rrcurveto
          2 -7 -10 1 -9 hhcurveto
          -9 -8 -1 -2 -5 hvcurveto
          -13 -22 -11 -55 -1 -33 rrcurveto
          endchar
        </CharString>
        <CharString name="V">
          180 -9 20 -11 11 5 -21 622 34 0 -20 29 -64 callgsubr
          547 164 hintmask 0100001110000000
          435 32 rmoveto
          -20 callgsubr
          157 282 45 10 callsubr
          hintmask 0100100110000000
          18 4 20 5 18 7 rrcurveto
          hintmask 0100010110000000
          5 callsubr
          -20 callgsubr
          -6 callgsubr
          hintmask 0100010110000000
          -3 -20 rlineto
          46 -21 13 -41 -59 vvcurveto
          -65 -9 -109 -69 -265 vhcurveto
          -20 callgsubr
          -64 237 -32 184 -11 111 rrcurveto
          hintmask 0100100110000000
          -30 callgsubr
          hintmask 0100010110000000
          5 callsubr
          -20 callgsubr
          -6 -28 -31 -3 -28 hhcurveto
          -50 callsubr
          hintmask 0100001110000000
          -85 -31 -102 -98 -90 -104 callgsubr
          15 15 52 6 31 1 7 -17 5 -18 5 -18 rrcurveto
          95 -368 13 -82 -38 vvcurveto
          -17 -18 -9 -16 -4 vhcurveto
          3 -16 rlineto
          hintmask 0010001110000000
          4 47 49 1 47 hhcurveto
          hintmask 0100001110000000
          16 callsubr
          -9 callgsubr
          -19 6 -30 7 -18 4 rrcurveto
          endchar
        </CharString>
        <CharString name="W">
          495 -9 20 -16 20 -15 11 -11 32 586 32 -32 42 -26 26 0 -64 callgsubr
          862 164 hintmask 0010010001100000
          hintmask 0001001001100000
          756 32 rmoveto
          150 282 46 10 callsubr
          18 4 20 5 18 7 rrcurveto
          hintmask 0010010001100000
          5 callsubr
          hintmask 0010100001100000
          -6 callgsubr
          hintmask 0010010001100000
          -3 -20 rlineto
          hintmask 0010000101100000
          46 -21 13 -41 -59 vvcurveto
          -65 -10 -109 -62 -265 vhcurveto
          -65 241 -32 186 -10 110 rrcurveto
          hintmask 0010001001100000
          18 4 24 7 18 -29 callgsubr
          hintmask 0010010001100000
          -112 -10 -94 -1 -112 1 rrcurveto
          hintmask 0010100001100000
          -157 1 -68 12 -36 1 rrcurveto
          hintmask 0010000011100000
          -85 -31 -102 -98 -90 -104 callgsubr
          15 15 52 6 31 1 7 -17 5 -18 5 -18 rrcurveto
          95 -368 13 -82 -38 vvcurveto
          -17 -18 -9 -16 -4 vhcurveto
          3 -16 rlineto
          hintmask 0100010001100000
          4 47 39 1 37 hhcurveto
          hintmask 0010010001100000
          16 callsubr
          hintmask 1000010001100000
          -18 3 -14 4 -15 10 rrcurveto
          hintmask 0100010001100000
          33 95 27 77 21 63 rrcurveto
          34 -152 3 -47 -27 vvcurveto
          -17 -18 -12 -16 -4 vhcurveto
          hintmask 1000010001100000
          3 -16 rlineto
          6 47 46 2 47 hhcurveto
          47 63 -2 -7 47 hvcurveto
          hintmask 0010010001100000
          4 24 -19 6 -30 7 -18 4 rlinecurve
          hintmask 1000010001100000
          -367 586 rmoveto
          hintmask 0100010001100000
          69 9 -31 -69 hvcurveto
          hintmask 0001001001100000
          -65 -10 -109 -62 -265 vhcurveto
          hintmask 0010010001100000
          -65 241 -31 175 -10 110 rrcurveto
          8 31 39 5 30 hhcurveto
          endchar
        </CharString>
        <CharString name="X">
          173 0 35 -23 0 callsubr
          27 -21 651 -20 29 -64 callgsubr
          hintmask 00010011
          hintmask 00011001
          308 611 rmoveto
          16 5 27 9 15 8 rrcurveto
          hintmask 00010101
          5 callsubr
          hintmask 00011001
          -6 -28 -37 -3 -28 hhcurveto
          -69 -74 12 1 -39 hvcurveto
          hintmask 01000011
          -85 -31 -102 -98 -90 -104 callgsubr
          15 15 52 6 31 1 163 -255 rcurveline
          -74 -103 -54 -81 -71 -106 -18 -4 -30 -9 -14 -7 5 -26 rcurveline
          7 47 53 2 47 hhcurveto
          hintmask 00010011
          40 55 -3 -6 40 hvcurveto
          -55 callgsubr
          hintmask 01000011
          -17 7 -20 7 -18 4 rrcurveto
          hintmask 10000011
          45 6 46 56 150 vhcurveto
          95 -153 10 -48 -43 vvcurveto
          -9 -1 -8 -3 -6 vhcurveto
          hintmask 00100011
          4 -15 rlineto
          5 40 46 1 40 hhcurveto
          47 47 -2 -7 47 hvcurveto
          hintmask 00010011
          4 27 -15 7 -22 6 -19 4 rlinecurve
          hintmask 01000011
          -206 343 rlineto
          hintmask 00011001
          84 111 61 68 56 57 18 4 23 8 15 7 -4 27 rcurveline
          -7 -47 -37 -2 -47 hhcurveto
          -40 -36 2 5 -40 hvcurveto
          hintmask 00010101
          -4 -16 rlineto
          hintmask 00011001
          16 -8 7 -17 -18 vvcurveto
          -27 -4 -27 -56 -118 vhcurveto
          hintmask 00010011
          -64 105 -6 40 39 vvcurveto
          endchar
        </CharString>
        <CharString name="Y">
          -99 callgsubr
          endchar
        </CharString>
        <CharString name="Yacute">
          -99 callgsubr
          hintmask 10011100
          371 736 rmoveto
          -92 callsubr
        </CharString>
        <CharString name="Ydieresis">
          -99 callgsubr
          hintmask 10011100
          114 772 rmoveto
          -43 callsubr
          hintmask 10011100
          222 hmoveto
          -43 callsubr
          endchar
        </CharString>
        <CharString name="Z">
          -94 callgsubr
          endchar
        </CharString>
        <CharString name="Zcaron">
          -94 callgsubr
          11 997 rmoveto
          -83 callsubr
        </CharString>
        <CharString name="a">
          94 -82 callsubr
          -11 callsubr
          hintmask 0001110010000000
          hintmask 1000110010000000
          310 -106 callsubr
          endchar
        </CharString>
        <CharString name="aacute">
          101 -82 callsubr
          hstemhm
          326 152 hintmask 0001110010000000
          hintmask 1000110010000000
          317 -106 callsubr
          202 390 rmoveto
          -1 33 -11 66 -13 22 rrcurveto
          -89 callsubr
        </CharString>
        <CharString name="acircumflex">
          94 -82 callsubr
          -11 callsubr
          hintmask 0001110010000000
          hintmask 1000110010000000
          310 -106 callsubr
          209 300 -84 callgsubr
        </CharString>
        <CharString name="acute">
          -202 567 220 4 callsubr
          272 664 rmoveto
          -1 33 -11 66 -13 22 rrcurveto
          -89 callsubr
        </CharString>
        <CharString name="acute.cap">
          -202 707 179 4 callsubr
          272 773 rmoveto
          -92 callsubr
        </CharString>
        <CharString name="adieresis">
          94 -82 callsubr
          -11 callsubr
          hintmask 0001110010000000
          hintmask 1000110010000000
          310 -106 callsubr
          -15 414 rmoveto
          -103 callsubr
          endchar
        </CharString>
        <CharString name="ae">
          202 -15 88 -73 32 -20 14 callgsubr
          264 55 -55 58 166 59 -53 53 9 -20 23 -20 hstemhm
          289 152 109 33 -4 34 hintmask 1000011000110000
          363 540 rmoveto
          hintmask 0100010010110000
          -66 -113 2 7 -53 hvcurveto
          -6 -23 15 -9 18 -7 17 -6 rlinecurve
          -149 -472 -11 -3 -24 -8 -12 -6 rlinecurve
          hintmask 0001011000110000
          4 -24 rlineto
          hintmask 0100011000110000
          7 41 48 2 40 hhcurveto
          23 45 -2 -5 23 hvcurveto
          hintmask 0001011000110000
          3 16 rlineto
          hintmask 0010101000110000
          -28 13 -7 26 30 vvcurveto
          17 -1 34 29 124 vhcurveto
          3 14 22 1 17 hhcurveto
          12 15 -1 -2 10 hvcurveto
          -179 18 -90 168 vhcurveto
          hintmask 1000011000110000
          73 19 63 43 44 60 -16 19 rcurveline
          -28 -35 -32 -25 -44 hhcurveto
          -84 -3 80 100 hvcurveto
          3 12 22 -76 callgsubr
          -15 1 3 -12 hvcurveto
          1 vlineto
          1 41 7 79 15 38 rrcurveto
          2 13 16 1 7 hhcurveto
          hintmask 1000011000101000
          25 29 -53 callsubr
          hintmask 1000010001101000
          -6 21 rlineto
          -7 -48 -135 -5 -97 hhcurveto
          hintmask 1000011000110000
          -85 -53 rmoveto
          hintmask 1000100100110000
          10 11 -1 -3 9 hvcurveto
          2 -5 1 -5 -8 vvcurveto
          -11 -1 -11 -2 -18 vhcurveto
          -15 -109 rlineto
          -3 -12 -16 -1 -13 hhcurveto
          -15 -13 0 3 -11 hvcurveto
          39 169 rlineto
          2 7 10 1 9 hhcurveto
          endchar
        </CharString>
        <CharString name="agrave">
          94 -82 callsubr
          134 -20 -11 callsubr
          hintmask 0001110011000000
          hintmask 1000110011000000
          -27 callsubr
          hintmask 0001110011000000
          4 -24 rlineto
          hintmask 1000110011000000
          -79 callgsubr
          hintmask 0001110011000000
          -32 callsubr
          hintmask 1000101011000000
          -93 callsubr
          rrcurveto
          -4 28 -8 89 132 vvcurveto
          101 6 105 4 29 vhcurveto
          -91 callsubr
          hintmask 0001100111000000
          -2 22 rlineto
          -6 -43 -47 -4 -147 hhcurveto
          hintmask 0100110011000000
          -36 -80 2 7 -53 hvcurveto
          -6 -23 15 -9 18 -7 17 -6 rlinecurve
          -132 -472 -11 -3 -24 -8 -12 -6 rlinecurve
          4 -24 rlineto
          hintmask 0001110011000000
          7 41 48 2 40 hhcurveto
          hintmask 1000110011000000
          23 45 -2 -5 23 hvcurveto
          3 16 rlineto
          hintmask 0001110011000000
          -28 13 -7 26 30 vvcurveto
          hintmask 0010110011000000
          17 3 31 9 59 vhcurveto
          3 13 27 2 22 hhcurveto
          16 35 -1 -5 16 hvcurveto
          -2 -88 -5 -46 -2 -19 rrcurveto
          10 221 rmoveto
          hintmask 1000110011000000
          -56 callgsubr
          62 293 -28 callsubr
          -30 callsubr
          rlinecurve
          -80 callsubr
        </CharString>
        <CharString name="ampersand">
          129 -15 98 250 44 205 84 hstemhm
          26 180 193 118 -97 28 hintmask 11111000
          318 -15 rmoveto
          91 28 93 92 9 95 12 132 rcurveline
          26 -2 29 -2 23 -3 3 4 rcurveline
          2 26 3 22 8 26 -5 5 rcurveline
          -18 -66 -95 -13 -63 hhcurveto
          -115 -54 65 120 10 hvcurveto
          14 18 26 6 26 hhcurveto
          hintmask 11110100
          39 47 -3 callsubr
          5 -28 1 -31 -28 vvcurveto
          28 hlineto
          12 85 19 60 49 69 -23 15 rcurveline
          -13 -12 -12 -14 -16 -10 rrcurveto
          16 -48 -52 4 -41 hhcurveto
          -101 -35 -96 -57 -66 -82 2 -88 69 -42 88 -9 rrcurveto
          -9 vlineto
          -100 -93 -67 -100 hvcurveto
          hintmask 11111000
          -144 148 -48 144 vhcurveto
          67 348 rmoveto
          9 -20 4 -44 1 -63 rrcurveto
          -112 vlineto
          -9 -20 -23 -2 -21 hhcurveto
          -82 -47 50 82 86 79 29 86 3 hvcurveto
          endchar
        </CharString>
        <CharString name="aring">
          94 -82 callsubr
          46 47 112 48 hstemhm
          220 61 38 152 -91 61 hintmask 0001110011110000
          hintmask 1000110011110000
          -27 callsubr
          hintmask 0001110011110000
          4 -24 rlineto
          hintmask 1000110011110000
          -79 callgsubr
          hintmask 0001110011110000
          -32 callsubr
          hintmask 1000101011110000
          -93 callsubr
          rrcurveto
          -4 28 -8 89 132 vvcurveto
          101 6 105 4 29 vhcurveto
          -91 callsubr
          hintmask 0001100111110000
          -2 22 rlineto
          -6 -43 -47 -4 -147 hhcurveto
          hintmask 0100110011110000
          -36 -80 2 7 -53 hvcurveto
          -6 -23 15 -9 18 -7 17 -6 rlinecurve
          -132 -472 -11 -3 -24 -8 -12 -6 rlinecurve
          4 -24 rlineto
          hintmask 0001110011110000
          7 41 48 2 40 hhcurveto
          hintmask 1000110011110000
          23 45 -2 -5 23 hvcurveto
          3 16 rlineto
          hintmask 0001110011110000
          -28 13 -7 26 30 vvcurveto
          hintmask 0010110011110000
          17 3 31 9 59 vhcurveto
          3 13 27 2 22 hhcurveto
          16 35 -1 -5 16 hvcurveto
          -2 -88 -5 -46 -2 -19 rrcurveto
          10 221 rmoveto
          hintmask 1000110011110000
          -2 -16 -22 -2 -24 hhcurveto
          hintmask 0001110011110000
          -21 -24 2 2 -14 hvcurveto
          43 232 rlineto
          3 9 12 2 12 hhcurveto
          12 14 -1 -5 10 hvcurveto
          5 -43 4 -43 -123 vvcurveto
          -100 385 rmoveto
          3 callsubr
          60 18 50 42 63 vvcurveto
          61 -43 23 -60 vhcurveto
          hintmask 0001110011101000
          -65 -14 -53 -46 -64 vvcurveto
          101 76 rmoveto
          hintmask 0001110011110000
          37 22 -23 -36 hvcurveto
          hintmask 0001110011101000
          -14 -2 -17 -5 -13 vhcurveto
          -5 -7 -17 -4 -9 hhcurveto
          -37 -22 25 35 14 2 17 5 13 hvcurveto
          5 7 17 3 9 hhcurveto
          endchar
        </CharString>
        <CharString name="asciicircum">
          44 278 418 hstem
          45 428 vstem
          259 550 rmoveto
          180 -272 34 18 -75 132 -38 80 -76 188 rlinecurve
          -53 -10 -76 -188 -35 -70 -75 -132 rlinecurve
          34 -18 rlineto
          endchar
        </CharString>
        <CharString name="asciitilde">
          163 156 116 hstem
          0 637 vstem
          25 178 rmoveto
          58 30 47 29 53 86 114 -109 86 hhcurveto
          73 27 88 81 35 86 -24 16 rcurveline
          -61 -40 -49 -33 -63 hhcurveto
          -81 -101 56 59 -69 hvcurveto
          -78 -11 -94 -94 -38 -88 rrcurveto
          endchar
        </CharString>
        <CharString name="asterisk">
          -103 461 68 18 -20 38 65 31 -20 hstemhm
          41 286 hintmask 01011000
          240 679 rmoveto
          -3 2 rlineto
          -7 -17 -5 -2 -7 hvcurveto
          -6 14 -8 20 -8 3 -9 -4 -8 -19 -5 -14 rrcurveto
          2 -7 -17 5 -7 hhcurveto
          -3 -2 16 -27 13 -38 8 -36 rlinecurve
          -27 25 -26 31 -14 27 -4 -1 rcurveline
          hintmask 01111000
          -3 -6 -4 -17 -2 -7 -15 1 -21 3 -7 -5 -1 -10 12 -16 10 -12 -5 -5 -13 -12 -4 -6 1 -3 rcurveline
          hintmask 01011000
          30 39 -7 -11 36 hvcurveto
          hintmask 10011000
          -11 -36 -39 -7 -30 hhcurveto
          -1 -3 4 -6 13 -12 5 -5 rlinecurve
          -10 -12 -12 -16 1 -10 7 -5 21 3 15 1 2 -7 4 -17 3 -6 4 -1 rcurveline
          14 27 26 31 27 25 -8 -37 -13 -38 -16 -26 3 -2 rcurveline
          7 17 5 2 7 hvcurveto
          5 -14 8 -19 9 -4 8 3 8 20 6 14 rrcurveto
          -2 7 17 -5 7 hhcurveto
          3 2 -17 26 -15 39 -7 36 rlinecurve
          28 -25 26 -32 15 -26 4 1 rcurveline
          3 6 4 17 2 7 15 -2 20 -3 8 6 1 8 -13 17 -9 13 rrcurveto
          hintmask 01011000
          5 5 13 12 4 6 -1 3 rcurveline
          -32 -1 -41 7 -36 12 rrcurveto
          hintmask 01111000
          36 12 41 7 32 -1 1 3 rcurveline
          -4 6 -13 12 -5 5 9 13 13 17 -1 8 -8 6 -20 -3 -15 -2 -2 7 -4 17 -3 6 -4 1 rcurveline
          -15 -27 -26 -31 -28 -25 rrcurveto
          hintmask 01011000
          7 36 15 38 17 27 rrcurveto
          endchar
        </CharString>
        <CharString name="at">
          386 -190 50 141 33 -28 -21 30 -21 28 -21 172 58 216 50 137 50 hstemhm
          3 86 374 139 133 84 hintmask 1000111111100000
          462 169 rmoveto
          hintmask 1010011111100000
          -78 10 -91 42 -15 vhcurveto
          184 20 121 181 185 vvcurveto
          217 -156 96 -217 vhcurveto
          -265 -38 -178 -218 -267 vvcurveto
          -237 133 -114 237 vhcurveto
          44 10 53 23 37 26 -7 13 rcurveline
          -14 -36 -45 -8 -38 hhcurveto
          -198 -94 120 198 146 62 154 100 107 hvcurveto
          34 50 69 15 60 hhcurveto
          200 105 -98 -200 -101 -36 -122 -83 -58 hvcurveto
          -12 52 -2 96 53 vvcurveto
          93 6 93 3 27 vhcurveto
          14 2 17 5 13 6 -1 25 rcurveline
          -6 -40 -68 -4 -106 hhcurveto
          -33 -78 2 7 -39 hvcurveto
          -7 -25 14 -9 17 -6 15 -6 rlinecurve
          hintmask 1100011111100000
          -121 -426 -10 -3 -22 -7 -11 -6 rlinecurve
          hintmask 1001011111100000
          4 -26 rlineto
          hintmask 1000111111100000
          7 38 44 2 37 hhcurveto
          21 42 -2 -5 21 hvcurveto
          hintmask 1001011111100000
          4 19 rlineto
          -26 12 -8 24 27 vvcurveto
          16 3 28 8 49 vhcurveto
          2 13 19 2 21 hhcurveto
          17 27 -1 -3 12 hvcurveto
          hintmask 1000111111100000
          1 65 rmoveto
          -2 -15 -15 -1 -22 hhcurveto
          -19 -16 1 2 -13 hvcurveto
          38 209 rlineto
          3 8 10 1 8 hhcurveto
          10 10 -1 -3 8 hvcurveto
          6 -40 2 -35 -113 vvcurveto
          endchar
        </CharString>
        <CharString name="atilde">
          94 -82 callsubr
          75 114 -11 callsubr
          hintmask 0001110001000000
          hintmask 1000110001000000
          -27 callsubr
          hintmask 0001110001000000
          4 -24 rlineto
          hintmask 1000110001000000
          -79 callgsubr
          hintmask 0001110001000000
          -32 callsubr
          hintmask 1000101001000000
          -93 callsubr
          rrcurveto
          -4 28 -8 89 132 vvcurveto
          101 6 105 4 29 vhcurveto
          -91 callsubr
          hintmask 0001100101000000
          -2 22 rlineto
          -6 -43 -47 -4 -147 hhcurveto
          hintmask 0100110001000000
          -36 -80 2 7 -53 hvcurveto
          -6 -23 15 -9 18 -7 17 -6 rlinecurve
          -132 -472 -11 -3 -24 -8 -12 -6 rlinecurve
          4 -24 rlineto
          hintmask 0001110001000000
          7 41 48 2 40 hhcurveto
          hintmask 1000110001000000
          23 45 -2 -5 23 hvcurveto
          3 16 rlineto
          hintmask 0001110001000000
          -28 13 -7 26 30 vvcurveto
          hintmask 0010110001000000
          17 3 31 9 59 vhcurveto
          3 13 27 2 22 hhcurveto
          16 35 -1 -5 16 hvcurveto
          -2 -88 -5 -46 -2 -19 rrcurveto
          10 221 rmoveto
          hintmask 1000110001000000
          -56 callgsubr
          -176 344 rmoveto
          31 20 30 8 32 -95 callsubr
        </CharString>
        <CharString name="b">
          95 -15 70 -50 -21 22 -21 293 41 184 41 hstemhm
          95 151 33 121 -42 160 -141 162 hintmask 0011110010000000
          282 -15 rmoveto
          99 17 158 93 99 vvcurveto
          hintmask 0011111000000000
          79 -61 28 -78 vhcurveto
          7 vlineto
          hintmask 0101110100000000
          56 24 62 52 61 vvcurveto
          99 -112 0 -99 vhcurveto
          -68 -125 -8 -69 hhcurveto
          -39 callgsubr
          -28 7 -92 -111 vvcurveto
          -98 -6 -102 -19 -83 vhcurveto
          25 -6 rlineto
          hintmask 0011110010000000
          5 14 8 15 8 10 rrcurveto
          -16 40 81 -16 45 hhcurveto
          hintmask 0011111000000000
          -5 293 rmoveto
          hintmask 1001110010000000
          82 18 -41 -82 -24 -5 -42 -7 -24 hvcurveto
          -7 -12 -22 -3 -14 hhcurveto
          -22 -27 8 14 -18 hvcurveto
          -3 55 -1 73 62 vvcurveto
          138 1 34 6 58 vhcurveto
          hintmask 0011110100000000
          4 10 13 2 11 hhcurveto
          53 18 -31 -53 -31 -6 -35 -12 -23 hvcurveto
          hintmask 0011111000000000
          -8 -13 -21 -3 -14 hhcurveto
          -11 hlineto
          endchar
        </CharString>
        <CharString name="backslash">
          -123 -45 762 hstem
          14 316 vstem
          275 -45 rmoveto
          14 6 31 10 10 12 -23 57 -29 77 -20 58 -109 318 rcurveline
          -27 80 -20 62 -22 82 rrcurveto
          -4 hlineto
          -15 -9 -30 -6 -17 -6 19 -49 25 -69 34 -100 178 -523 rcurveline
          endchar
        </CharString>
        <CharString name="bar">
          -236 -216 966 hstem
          89 62 vstem
          151 -199 rmoveto
          769 1 108 1 71 vhcurveto
          -5 1 -14 -10 -35 -10 -17 -7 rlinecurve
          3 -106 4 -79 -751 vvcurveto
          7 -3 13 4 33 8 9 5 rlinecurve
          endchar
        </CharString>
        <CharString name="braceleft">
          -174 -215 926 hstemhm
          79 75 -38 83 hintmask 11000000
          224 711 rmoveto
          -59 -17 -86 -63 -62 -95 37 -60 -95 vvcurveto
          hintmask 10100000
          -31 -41 -26 -31 -7 vhcurveto
          4 -19 rlineto
          30 -5 38 -25 -29 -95 -37 -60 -95 vvcurveto
          -62 86 -63 59 -17 vhcurveto
          hintmask 11000000
          6 19 -35 18 -29 33 -12 37 rlinecurve
          92 45 101 82 vvcurveto
          -13 31 -49 31 -29 17 rrcurveto
          4 vlineto
          hintmask 10100000
          29 17 49 31 13 31 rrcurveto
          82 -45 101 92 vvcurveto
          12 37 28 34 35 18 rrcurveto
          endchar
        </CharString>
        <CharString name="braceright">
          -186 -215 926 hstemhm
          94 90 -45 82 hintmask 10100000
          71 693 rmoveto
          35 -18 21 -34 12 -37 rrcurveto
          -92 -45 -101 -82 vvcurveto
          hintmask 11000000
          13 -31 56 -31 29 -17 rrcurveto
          -4 vlineto
          -29 -17 -56 -31 -13 -31 rrcurveto
          -82 45 -101 -92 vvcurveto
          -12 -37 -22 -33 -35 -18 rrcurveto
          hintmask 10100000
          6 -19 rlineto
          59 17 86 63 62 95 -37 60 95 vvcurveto
          29 38 25 30 5 vhcurveto
          4 19 rlineto
          hintmask 11000000
          -31 7 -41 26 31 95 37 60 95 vvcurveto
          62 -86 63 -59 17 vhcurveto
          endchar
        </CharString>
        <CharString name="bracketleft">
          -148 -196 21 846 21 hstem
          91 73 vstem
          296 -175 rmoveto
          -34 1 -65 7 -33 9 rrcurveto
          812 vlineto
          33 9 65 7 34 1 rrcurveto
          21 vlineto
          -61 -1 -87 1 -60 15 -7 -5 rcurveline
          7 -48 3 -199 -206 vvcurveto
          -206 -3 -201 -7 -48 vhcurveto
          7 -5 60 15 87 1 61 -1 rlinecurve
          endchar
        </CharString>
        <CharString name="bracketright">
          -148 -196 21 846 21 hstem
          162 73 vstem
          30 -196 rmoveto
          61 1 87 -1 60 -15 7 5 rcurveline
          -7 48 -3 201 206 vvcurveto
          206 3 199 7 48 vhcurveto
          -7 5 -60 -15 -87 -1 -61 1 rlinecurve
          -21 vlineto
          34 -1 65 -7 33 -9 rrcurveto
          -812 vlineto
          -33 -9 -65 -7 -34 -1 rrcurveto
          endchar
        </CharString>
        <CharString name="brokenbar">
          -229 -215 967 hstem
          94 62 vstem
          156 340 rmoveto
          -51 callsubr
          -538 vmoveto
          -51 callsubr
          endchar
        </CharString>
        <CharString name="bullet">
          -103 120 336 hstem
          34 325 vstem
          359 302 rmoveto
          -65 45 -46 37 -41 72 rrcurveto
          -20 hlineto
          -41 -72 -46 -36 -66 -47 rrcurveto
          -14 vlineto
          69 -44 43 -51 41 -72 rrcurveto
          20 hlineto
          41 72 44 50 67 46 rrcurveto
          endchar
        </CharString>
        <CharString name="c">
          -20 -15 89 411 70 -39 23 -16 callsubr
          195 25 hintmask 11011000
          303 74 rmoveto
          -106 -6 101 106 53 10 88 21 49 hvcurveto
          -58 callgsubr
          hintmask 10111000
          -67 callsubr
          hintmask 11011000
          -56 callsubr
          endchar
        </CharString>
        <CharString name="caron">
          9 callgsubr
          216 715 -53 callgsubr
        </CharString>
        <CharString name="caron.cap">
          7 callgsubr
          214 824 rmoveto
          -83 callsubr
        </CharString>
        <CharString name="ccedilla">
          -20 -235 60 160 30 470 70 -39 23 -16 callsubr
          90 77 28 25 hintmask 11101010
          303 74 rmoveto
          -106 -6 101 106 53 10 88 21 49 hvcurveto
          -58 callgsubr
          hintmask 11011010
          -67 callsubr
          hintmask 11101010
          -56 callsubr
          hintmask 11101110
          -111 -181 -87 callgsubr
        </CharString>
        <CharString name="cedilla">
          -254 -235 60 -60 251 -123 68 hstemhm
          143 77 hintmask 01010000
          hintmask 10110000
          54 -107 -87 callgsubr
        </CharString>
        <CharString name="cent">
          66 0 89 -68 -21 470 70 hstemhm
          78 163 62 41 -17 34 -27 38 64 25 hintmask 01110101
          hintmask 01110011
          372 543 rmoveto
          1 29 3 23 3 28 8 callsubr
          -25 1 -21 -22 vvcurveto
          -141 -43 -116 -126 -146 vvcurveto
          -137 97 -76 134 -7 vhcurveto
          hintmask 01111001
          -1 -14 -9 -81 10 -10 13 -6 12 -1 rlinecurve
          6 1 rlineto
          hintmask 10111001
          5 110 rlineto
          7 vlineto
          58 24 52 44 39 50 -17 17 rcurveline
          hintmask 10110101
          -31 -37 -39 -21 -48 hhcurveto
          -3 hlineto
          5 97 13 278 22 -6 21 -10 14 -13 rlinecurve
          1 -23 4 -26 6 -22 rrcurveto
          25 hlineto
          -67 callsubr
          hintmask 01110011
          -44 8 -60 6 -49 2 rrcurveto
          hintmask 01110101
          -51 -336 rmoveto
          -7 -109 rlineto
          -64 22 -9 79 85 vvcurveto
          47 11 85 20 43 vhcurveto
          12 15 22 2 20 hhcurveto
          5 hlineto
          endchar
        </CharString>
        <CharString name="circumflex">
          9 callgsubr
          422 574 -84 callgsubr
        </CharString>
        <CharString name="circumflex.cap">
          7 callgsubr
          418 707 -84 callsubr
        </CharString>
        <CharString name="colon">
          -217 6 -21 hstem
          34 189 -68 callsubr
          339 vmoveto
          -65 callgsubr
        </CharString>
        <CharString name="comma">
          -217 -169 335 hstemhm
          29 194 -118 -5 callsubr
          hintmask 10100000
          223 85 -83 callgsubr
          endchar
        </CharString>
        <CharString name="commaaccent">
          -280 -251 217 hstem
          15 176 vstem
          191 -95 rmoveto
          -12 callsubr
          -78 callsubr
        </CharString>
        <CharString name="copyright">
          291 -15 51 83 66 289 57 -30 18 96 51 hstemhm
          42 53 107 122 135 18 193 53 hintmask 1101111110000000
          42 325 rmoveto
          -188 152 -152 188 188 153 152 188 188 -153 153 -188 -188 -152 -153 -188 vhcurveto
          53 hmoveto
          159 128 131 159 159 129 -131 -159 -159 -129 -130 -159 -159 -128 130 159 vhcurveto
          302 -140 rmoveto
          -71 -2 78 71 hvcurveto
          hintmask 1110111110000000
          34 6 63 14 33 vhcurveto
          7 8 15 3 13 hhcurveto
          24 28 -10 -16 17 hvcurveto
          1 -17 4 -18 5 -16 rrcurveto
          18 hlineto
          hintmask 1101111110000000
          32 4 34 11 32 vhcurveto
          4 9 11 2 10 hhcurveto
          1 18 rlineto
          hintmask 1110111110000000
          7 -37 -52 5 -39 hhcurveto
          -114 -38 -79 -88 -118 vvcurveto
          -114 62 -54 114 vhcurveto
          49 18 43 33 31 40 -12 11 rcurveline
          hintmask 1101111110000000
          -21 -29 -25 -15 -38 hhcurveto
          endchar
        </CharString>
        <CharString name="currency">
          93 116 73 261 73 29 -20 hstemhm
          81 90 235 90 hintmask 10111000
          81 286 rmoveto
          -40 12 -32 20 -26 vhcurveto
          -30 -27 -32 -29 -26 -22 3 -15 25 -21 10 -11 rrcurveto
          5 hlineto
          88 86 rlineto
          -22 37 46 -11 50 hhcurveto
          43 9 38 17 32 23 98 -102 rcurveline
          15 5 35 8 17 3 2 4 rcurveline
          -32 29 -40 37 -55 53 rrcurveto
          34 40 20 50 58 vvcurveto
          41 -11 34 -19 26 vhcurveto
          42 42 33 30 28 25 -2 4 rcurveline
          -17 3 -35 8 -15 5 rrcurveto
          hintmask 11111000
          -27 -28 -24 -26 -24 -24 rrcurveto
          21 -33 -43 12 -48 hhcurveto
          -49 -9 -45 -18 -36 -28 -103 100 rcurveline
          -5 hlineto
          -10 -11 -25 -21 -3 -15 31 -27 39 -35 35 -32 rrcurveto
          hintmask 10111000
          -31 -39 -18 -47 -55 vvcurveto
          hintmask 11111000
          195 164 rmoveto
          87 43 -56 -84 -32 -11 -43 -16 -26 hvcurveto
          -14 -18 -33 -6 -27 hhcurveto
          -86 -44 58 82 32 12 42 16 26 hvcurveto
          14 18 32 7 27 hhcurveto
          endchar
        </CharString>
        <CharString name="d">
          126 -15 70 -49 -21 511 2 callgsubr
          hintmask 01101100
          288 -15 -33 callgsubr
          hintmask 01011100
          -49 callgsubr
          hintmask 01101100
          -23 callgsubr
          hintmask 10101100
          -45 callgsubr
          hintmask 01101100
          3 10 10 1 11 hhcurveto
          endchar
        </CharString>
        <CharString name="degree">
          -107 396 53 165 53 hstem
          45 69 139 69 vstem
          45 509 rmoveto
          -75 64 -38 75 vhcurveto
          81 17 57 58 81 vvcurveto
          75 -55 40 -75 vhcurveto
          -83 -14 -64 -60 -84 vvcurveto
          129 105 rmoveto
          55 24 -35 -54 -20 -5 -27 -8 -17 hvcurveto
          -8 -10 -22 -4 -15 hhcurveto
          -54 -25 36 53 20 5 27 8 17 hvcurveto
          8 10 22 4 15 hhcurveto
          endchar
        </CharString>
        <CharString name="dieresis">
          -73 593 15 callgsubr
          688 rmoveto
          -103 callsubr
          endchar
        </CharString>
        <CharString name="dieresis.cap">
          -73 714 15 callgsubr
          809 rmoveto
          -103 callsubr
          endchar
        </CharString>
        <CharString name="divide">
          102 50 113 54 64 52 113 hstem
          232 111 vstem
          343 390 rmoveto
          -19 callsubr
          -283 vmoveto
          -19 callsubr
          177 171 -50 callgsubr
          -113 -137 -39 callsubr
          446 hlineto
          endchar
        </CharString>
        <CharString name="dollar">
          66 6 -21 26 -21 25 -21 553 -20 28 -20 hstemhm
          108 109 -96 25 84 39 -25 35 8 33 -31 45 5 119 -69 26 hintmask 0010101001001000
          hintmask 0100101011001000
          248 204 rmoveto
          -8 -134 -37 5 -29 16 -24 23 rlinecurve
          -17 callsubr
          -11 callgsubr
          hintmask 1000101101001000
          18 -17 11 13 11 11 13 7 rlinecurve
          41 -11 38 -6 42 -2 -9 -80 rcurveline
          10 -10 13 -6 12 -1 6 1 rcurveline
          hintmask 0010101101010000
          5 105 rlineto
          75 40 111 115 73 vvcurveto
          45 -75 41 -66 39 vhcurveto
          hintmask 0010101001001000
          6 125 22 -5 21 -9 18 -14 rlinecurve
          4 -17 1 -32 -19 vvcurveto
          26 hlineto
          3 45 15 69 33 30 rrcurveto
          16 vlineto
          hintmask 0010101000101000
          -43 11 -50 7 -46 1 rrcurveto
          hintmask 0011010000101000
          2 23 2 21 3 24 8 callsubr
          -20 0 -18 1 -18 vhcurveto
          -84 -34 -98 -97 -82 vvcurveto
          hintmask 0100101011001000
          -47 75 -43 65 -40 vhcurveto
          hintmask 0010110001001000
          -31 228 rmoveto
          32 40 12 32 vhcurveto
          -4 -110 rlineto
          -39 23 -29 22 21 vvcurveto
          hintmask 0010101011010000
          122 -312 rmoveto
          -34 -30 -15 -33 -2 vhcurveto
          1 vlineto
          6 112 rlineto
          32 -22 25 -21 -19 vvcurveto
          endchar
        </CharString>
        <CharString name="dotaccentcmb">
          -285 581 15 callsubr
          681 rmoveto
          -65 callgsubr
        </CharString>
        <CharString name="dotaccentcmb.cap">
          -285 704 15 callsubr
          804 rmoveto
          -65 callgsubr
        </CharString>
        <CharString name="dotlessi">
          -74 callsubr
          hintmask 10100100
          86 31 -100 callsubr
          endchar
        </CharString>
        <CharString name="dotlessj">
          -178 -13 callsubr
          102 150 hintmask 00110000
          hintmask 10010000
          265 509 -91 callgsubr
        </CharString>
        <CharString name="e">
          -73 callgsubr
          302 74 -101 callsubr
          endchar
        </CharString>
        <CharString name="eacute">
          -73 callgsubr
          302 74 -101 callsubr
          177 590 rmoveto
          -1 33 -11 66 -13 22 rrcurveto
          -89 callsubr
        </CharString>
        <CharString name="ecircumflex">
          -73 callgsubr
          302 74 -101 callsubr
          191 500 -84 callgsubr
        </CharString>
        <CharString name="edieresis">
          -73 callgsubr
          265 688 rmoveto
          -103 callsubr
          -185 -614 -101 callsubr
          endchar
        </CharString>
        <CharString name="egrave">
          -17 -15 89 182 58 171 70 -39 23 0 -20 145 -20 -16 callsubr
          144 33 18 25 hintmask 1100111100000000
          302 74 rmoveto
          -94 -17 80 94 hvcurveto
          6 26 34 2 17 hhcurveto
          21 25 -1 -4 21 hvcurveto
          4 -19 7 -26 7 -16 24 4 rcurveline
          -5 23 -4 27 25 vvcurveto
          23 4 24 7 23 vhcurveto
          -21 6 rlineto
          -24 -24 -25 -7 -41 hhcurveto
          -25 -32 5 6 -18 hvcurveto
          hintmask 1110011110000000
          2 41 10 66 16 39 rrcurveto
          10 15 21 4 21 -10 callsubr
          24 -75 callgsubr
          hintmask 1101011110000000
          1 45 9 44 15 40 rrcurveto
          5 13 11 3 14 hhcurveto
          1 23 rlineto
          hintmask 1110011110000000
          9 -51 -72 7 -53 hhcurveto
          -159 -39 -112 -135 -162 vvcurveto
          -152 95 -82 153 vhcurveto
          66 22 59 49 43 53 -17 17 rcurveline
          hintmask 1100111100000000
          -32 -39 -35 -20 -51 hhcurveto
          51 493 -28 callsubr
          -30 callsubr
          rlinecurve
          -80 callsubr
        </CharString>
        <CharString name="eight">
          66 -16 60 456 60 hstemhm
          66 121 -98 139 97 107 -101 145 hintmask 11101000
          66 123 rmoveto
          -100 105 -39 100 vhcurveto
          hintmask 11100100
          90 24 77 76 38 74 rrcurveto
          107 -68 42 -64 33 vhcurveto
          hintmask 11011000
          46 32 42 49 43 vvcurveto
          67 -61 29 -85 vhcurveto
          -67 -14 -92 -55 -38 -57 rrcurveto
          -88 39 -46 48 -33 vhcurveto
          hintmask 11101000
          -63 -44 -47 -48 -52 vvcurveto
          hintmask 11100100
          265 -1 rmoveto
          -30 -3 -21 -5 -19 vhcurveto
          -7 -7 -19 -1 -11 hhcurveto
          -56 -43 41 56 38 14 36 15 27 hvcurveto
          59 -32 56 -25 -63 vvcurveto
          hintmask 11011000
          -103 335 rmoveto
          15 2 11 4 10 vhcurveto
          5 5 16 2 10 hhcurveto
          35 25 -18 -34 -27 -9 -35 -15 -24 hvcurveto
          -42 23 -31 25 47 vvcurveto
          endchar
        </CharString>
        <CharString name="ellipsis">
          242 6 -21 hstem
          34 648 -68 callsubr
          229 hmoveto
          -95 callgsubr
          230 hmoveto
          -65 callgsubr
        </CharString>
        <CharString name="emdash">
          182 240 57 hstem
          7 642 vstem
          649 294 -43 callgsubr
        </CharString>
        <CharString name="endash">
          -18 240 57 hstem
          7 442 vstem
          449 294 rmoveto
          -6 6 rlineto
          -2 -26 -54 -1 -26 hhcurveto
          -143 -96 3 6 -83 hvcurveto
          -8 -59 8 -7 rlineto
          426 hlineto
          endchar
        </CharString>
        <CharString name="equal">
          102 135 64 95 64 hstem
          56 463 vstem
          519 196 -50 callgsubr
          -113 -137 -39 callsubr
          446 hlineto
          9 220 -50 callgsubr
          -113 -137 -39 callsubr
          446 hlineto
          endchar
        </CharString>
        <CharString name="eth">
          126 -15 70 -49 -21 280 34 197 2 callgsubr
          hintmask 01110110
          213 264 -52 callsubr
          -193 -8 -48 callgsubr
          129 -277 -33 callgsubr
          hintmask 01101110
          -49 callgsubr
          hintmask 01110110
          -23 callgsubr
          hintmask 10110110
          -45 callgsubr
          hintmask 01110110
          3 10 10 1 11 hhcurveto
          endchar
        </CharString>
        <CharString name="exclam">
          -214 6 -21 hstem
          34 219 -68 callsubr
          -121 156 rmoveto
          46 5 27 161 24 96 54 148 rlinecurve
          -14 25 -22 21 -23 14 -46 1 -45 -11 -39 -23 rrcurveto
          endchar
        </CharString>
        <CharString name="exclamdown">
          -184 -215 720 hstem
          37 219 vstem
          67 424 -42 callgsubr
          -175 rmoveto
          -46 -5 -27 -161 -24 -90 -54 -148 rlinecurve
          14 -25 22 -21 23 -14 46 -1 45 11 39 23 rrcurveto
          endchar
        </CharString>
        <CharString name="f">
          -30 0 29 -16 -21 249 58 182 59 -31 31 8 -20 24 -20 -2 callsubr
          104 33 -4 34 hintmask 0111000110000000
          251 540 rmoveto
          hintmask 0110010110000000
          -80 -79 2 6 -40 hvcurveto
          hintmask 1010100110000000
          -4 -24 11 -6 14 -5 12 -4 rlinecurve
          4 -30 8 -106 -103 vvcurveto
          -1 callgsubr
          -74 -4 -25 vhcurveto
          -12 -4 -15 -6 -11 -6 rrcurveto
          hintmask 0111000110000000
          3 -24 rlineto
          hintmask 1011000110000000
          -6 callsubr
          hintmask 0111000110000000
          2 22 -15 7 -18 5 -15 3 rlinecurve
          hintmask 1011000110000000
          -4 26 -7 72 -1 111 rrcurveto
          2 12 17 -76 callgsubr
          -12 1 3 -12 hvcurveto
          70 4 61 3 42 vhcurveto
          3 9 31 2 9 hhcurveto
          hintmask 0111000101000000
          25 29 -53 callsubr
          hintmask 0110001101000000
          -6 21 rlineto
          -7 -48 -98 -5 -48 hhcurveto
          endchar
        </CharString>
        <CharString name="five">
          66 -15 78 199 85 73 117 18 -20 hstemhm
          106 25 -11 44 -39 30 151 171 -101 38 hintmask 1101100000000000
          hintmask 1110100010000000
          376 428 rmoveto
          9 -12 6 -14 5 -16 24 5 rcurveline
          hintmask 1101100010000000
          -3 18 -3 19 29 vvcurveto
          37 4 34 9 27 vhcurveto
          -11 9 rlineto
          hintmask 1110001100000000
          -81 -18 -89 -7 -91 -2 -10 28 rcurveline
          -22 -4 3 -22 2 -34 -3 -54 rlinecurve
          -10 -187 12 -10 rlineto
          6 23 23 2 26 hhcurveto
          68 39 -42 -68 -28 -3 -32 -10 -24 hvcurveto
          -4 -6 -14 -1 -10 hhcurveto
          hintmask 1101100100000000
          -55 -45 36 46 -30 -27 callgsubr
          79 -20 56 hhcurveto
          81 27 96 72 51 68 rrcurveto
          123 -74 66 -123 6 vhcurveto
          hintmask 1110010000000000
          -37 -7 -46 -13 -33 -13 22 113 rcurveline
          4 3 rlineto
          0 14 -7 9 -3 vhcurveto
          hintmask 1110100010000000
          51 60 2 6 52 hvcurveto
          endchar
        </CharString>
        <CharString name="four">
          66 0 32 -19 -21 131 94 -94 100 231 77 20 -20 24 -20 hstemhm
          257 153 -152 148 hintmask 1001001010000000
          hintmask 1001001100000000
          251 32 rmoveto
          -20 -3 -23 -7 -18 -7 rrcurveto
          hintmask 0101001010000000
          4 -23 rlineto
          hintmask 1010001100000000
          8 47 47 0 48 hhcurveto
          40 41 -3 -6 40 hvcurveto
          4 24 -11 2 -21 8 -12 6 rlinecurve
          -5 24 -2 37 31 vvcurveto
          hintmask 1010010010000000
          21 25 0 -3 32 hvcurveto
          5 2 rlineto
          52 2 40 8 42 vhcurveto
          -18 4 rlineto
          -40 -15 -16 -3 -45 hhcurveto
          -1 34 -1 22 81 vvcurveto
          50 5 98 10 49 vhcurveto
          -9 4 rlineto
          hintmask 1001100010000000
          -31 -13 -96 -10 -44 -1 -62 -145 -66 -123 -95 -118 8 -22 rcurveline
          hintmask 1001001100000000
          230 hlineto
          -30 -2 -31 -4 -30 vhcurveto
          hintmask 1001100010000000
          2 422 rmoveto
          7 hlineto
          -3 -234 -40 1 -25 2 -40 4 rlinecurve
          44 69 31 81 26 77 rrcurveto
          endchar
        </CharString>
        <CharString name="fraction">
          94 20 -21 hstem
          -7 582 vstem
          41 -42 -69 callgsubr
          -36 -49 -51 -64 -38 -48 -16 callgsubr
          endchar
        </CharString>
        <CharString name="g">
          35 -15 89 -59 -21 238 18 235 70 -20 20 -16 callsubr
          213 25 -2 21 hintmask 10101101
          302 74 rmoveto
          -105 -6 102 105 hvcurveto
          hintmask 10110110
          50 11 93 19 46 vhcurveto
          10 14 30 5 17 hhcurveto
          40 41 -11 -28 30 -75 callgsubr
          hintmask 10101110
          45 10 43 15 41 vhcurveto
          5 13 12 3 13 hhcurveto
          1 23 rlineto
          13 -61 -71 7 -62 hhcurveto
          -159 -39 -112 -135 -161 vvcurveto
          -153 96 -82 152 vhcurveto
          hintmask 01101101
          45 15 49 26 35 33 10 -20 6 -23 6 -22 rrcurveto
          21 hlineto
          4 84 6 82 9 84 7 13 10 10 11 9 -11 17 rcurveline
          -28 -44 -79 -15 -50 hhcurveto
          -12 -12 1 2 -13 hvcurveto
          -2 -21 17 -3 20 -5 14 -8 rlinecurve
          hintmask 10101101
          5 -17 2 -21 1 -18 4 -83 rcurveline
          -2 -10 -11 -1 -12 hhcurveto
          endchar
        </CharString>
        <CharString name="germandbls">
          348 -15 84 -58 -21 486 79 hstemhm
          37 -22 callsubr
          104 -22 callsubr
          hintmask 1010101010100000
          79 114 rmoveto
          -17 callsubr
          hintmask 0110101010100000
          -11 callgsubr
          hintmask 1011010010100000
          18 -17 11 13 11 11 13 7 rlinecurve
          -13 47 43 -6 50 hhcurveto
          74 30 130 128 79 81 -241 70 59 vvcurveto
          32 41 12 32 vhcurveto
          hintmask 1011001010100000
          -74 callgsubr
          hintmask 1011010010100000
          -26 callgsubr
          hintmask 1010101010100000
          11 callsubr
          411 hmoveto
          -17 callsubr
          hintmask 0110101010100000
          -11 callgsubr
          hintmask 1010101101000000
          18 -17 11 13 11 11 13 7 rlinecurve
          -13 47 43 -6 50 hhcurveto
          74 30 130 128 79 81 -241 70 59 vvcurveto
          32 41 12 32 vhcurveto
          hintmask 1010101100100000
          -74 callgsubr
          hintmask 1010101101000000
          -26 callgsubr
          hintmask 1010101010100000
          11 callsubr
          endchar
        </CharString>
        <CharString name="grave">
          -202 664 -20 4 callsubr
          262 567 -28 callsubr
          -30 callsubr
          rlinecurve
          -80 callsubr
        </CharString>
        <CharString name="grave.cap">
          -202 717 179 4 callsubr
          262 717 rmoveto
          -85 callgsubr
        </CharString>
        <CharString name="greater">
          17 callgsubr
          507 286 rmoveto
          -45 14 -50 18 -91 34 -85 32 -85 38 -72 37 -24 -66 rcurveline
          5 -10 349 -129 rlineto
          -4 vlineto
          -349 -128 -5 -10 26 -67 72 36 80 36 88 35 rlinecurve
          75 30 61 21 64 19 rrcurveto
          endchar
        </CharString>
        <CharString name="guillemotleft">
          17 75 428 hstem
          28 418 -15 callsubr
          -76 -76 -46 rlinecurve
          -20 vlineto
          6 callgsubr
          -75 73 -81 20 14 rcurveline
          77 208 rmoveto
          112 173 -19 13 -69 -68 -63 -66 -76 -46 rlinecurve
          -20 vlineto
          6 callgsubr
          -65 73 -71 20 14 rcurveline
          endchar
        </CharString>
        <CharString name="guillemotright">
          17 75 428 hstem
          45 418 vstem
          235 -41 callsubr
          -303 -188 rmoveto
          20 -14 73 71 55 65 80 52 rlinecurve
          20 vlineto
          -76 46 -63 66 -69 68 -19 -13 rcurveline
          112 -173 rlineto
          endchar
        </CharString>
        <CharString name="guilsinglleft">
          -173 75 428 hstem
          28 228 -15 callsubr
          -66 -76 -56 rlinecurve
          -20 vlineto
          80 -62 55 -65 73 -81 20 14 rcurveline
          endchar
        </CharString>
        <CharString name="guilsinglright">
          -173 75 428 hstem
          45 228 vstem
          45 -41 callsubr
          endchar
        </CharString>
        <CharString name="h">
          -3 39 -31 29 237 58 187 29 -15 15 8 -51 callgsubr
          hstemhm
          97 152 160 152 hintmask 1011000110000000
          400 36 rmoveto
          -89 callgsubr
          4 -24 rcurveline
          -90 callgsubr
          hintmask 0111000110000000
          -34 callgsubr
          hintmask 1010010110000000
          -91 callsubr
          hintmask 1010001110000000
          -2 22 rlineto
          hintmask 1011000110000000
          -6 -43 -47 -36 callgsubr
          -77 callsubr
          hintmask 1010001110000000
          -40 callsubr
          hintmask 1010100110000000
          -46 callgsubr
          hintmask 1011000110000000
          -91 callsubr
          hintmask 1010010110000000
          -2 22 rlineto
          hintmask 1010001110000000
          -6 -43 -47 -36 callgsubr
          hintmask 1011000110000000
          -40 -42 -31 callsubr
          hintmask 1010001110000000
          11 -6 15 -6 12 -4 rrcurveto
          hintmask 1010100110000000
          -61 callsubr
          hintmask 0111000110000000
          -44 callsubr
        </CharString>
        <CharString name="hbar">
          -3 39 -31 29 237 58 75 36 76 29 -15 15 8 -51 callgsubr
          hstemhm
          97 152 160 152 hintmask 1011100011000000
          512 411 -52 callsubr
          -501 -19 -48 callgsubr
          250 -362 rmoveto
          -89 callgsubr
          4 -24 rcurveline
          -90 callgsubr
          hintmask 0111100011000000
          -34 callgsubr
          hintmask 1011001011000000
          -91 callsubr
          hintmask 1011000111000000
          -2 22 rlineto
          hintmask 1011100011000000
          -6 -43 -47 -36 callgsubr
          -77 callsubr
          hintmask 1011000111000000
          -40 callsubr
          hintmask 1011010011000000
          -46 callgsubr
          hintmask 1011100011000000
          -91 callsubr
          hintmask 1011001011000000
          -2 22 rlineto
          hintmask 1011000111000000
          -6 -43 -47 -36 callgsubr
          hintmask 1011100011000000
          -40 -42 -31 callsubr
          hintmask 1011000111000000
          11 -6 15 -6 12 -4 rrcurveto
          hintmask 1011010011000000
          -61 callsubr
          hintmask 0111100011000000
          -44 callsubr
        </CharString>
        <CharString name="hyphen">
          -174 233 64 hstem
          24 252 vstem
          276 303 rmoveto
          -8 5 rlineto
          -7 -59 -74 -3 -59 hhcurveto
          -46 hlineto
          -6 -66 9 -6 237 15 rlineto
          endchar
        </CharString>
        <CharString name="i">
          -74 callsubr
          hintmask 10100100
          86 31 -100 callsubr
          endchar
        </CharString>
        <CharString name="iacute">
          -74 callsubr
          hintmask 10100100
          86 31 -100 callsubr
          258 633 rmoveto
          hintmask 10100100
          -1 33 -11 66 -13 22 rrcurveto
          -89 callsubr
        </CharString>
        <CharString name="icircumflex">
          -74 callsubr
          362 -55 callsubr
          hintmask 10100100
          -90 -622 -100 callsubr
          endchar
        </CharString>
        <CharString name="idieresis">
          -74 callsubr
          hintmask 10100100
          86 31 -100 callsubr
          66 657 rmoveto
          hintmask 10100100
          -103 callsubr
          endchar
        </CharString>
        <CharString name="igrave">
          -73 callsubr
          135 -20 -2 callsubr
          hintmask 01100110
          hintmask 10100110
          86 31 -86 callsubr
          176 536 rmoveto
          hintmask 10100110
          10 24 -30 callsubr
          rlinecurve
          -80 callsubr
        </CharString>
        <CharString name="ij">
          170 -3 callgsubr
          518 29 -15 15 -38 callgsubr
          149 150 hintmask 01100011
          hintmask 10100011
          8 callgsubr
          hintmask 01100011
          4 -24 rlineto
          hintmask 10100011
          -90 callgsubr
          hintmask 01100011
          -32 callsubr
          hintmask 10100011
          -93 callsubr
          rrcurveto
          -59 callgsubr
          103 7 101 4 27 vhcurveto
          -91 callsubr
          hintmask 01001011
          -2 22 rlineto
          hintmask 01000111
          -6 -43 -47 -36 callgsubr
          hintmask 01100011
          -40 -43 -31 callsubr
          hintmask 01000111
          11 -6 15 -6 12 -4 rrcurveto
          hintmask 01010011
          4 -31 8 -103 -103 vvcurveto
          hintmask 01100011
          -54 callsubr
          474 478 rmoveto
          hintmask 10100011
          12 4 15 6 11 6 rrcurveto
          hintmask 01100011
          -3 24 rlineto
          -6 -40 -43 -3 -40 hhcurveto
          hintmask 01000111
          -42 -47 2 6 -43 hvcurveto
          hintmask 01100011
          -2 -22 15 -7 18 -5 15 -3 rlinecurve
          hintmask 01001011
          4 -28 7 -110 -90 vvcurveto
          hintmask 01100011
          -165 vlineto
          -123 -23 -85 -98 -74 vhcurveto
          15 -18 94 43 110 67 63 80 rlinecurve
          -3 26 -8 103 146 vvcurveto
          90 9 104 4 32 vhcurveto
          endchar
        </CharString>
        <CharString name="itilde">
          -73 callsubr
          76 114 -2 callsubr
          hintmask 01100110
          14 618 -58 callsubr
          hintmask 10100110
          96 -604 -86 callsubr
          endchar
        </CharString>
        <CharString name="j">
          -125 -13 callsubr
          102 150 hintmask 00110000
          hintmask 10010000
          265 509 -91 callgsubr
        </CharString>
        <CharString name="jcircumflex">
          -130 -13 callsubr
          97 150 hintmask 00110000
          357 -55 callsubr
          hintmask 10010000
          89 -144 -91 callgsubr
        </CharString>
        <CharString name="k">
          -97 callsubr
          endchar
        </CharString>
        <CharString name="kcommaaccent">
          -97 callsubr
          152 -606 rmoveto
          -12 callsubr
          rrcurveto
          -24 callgsubr
          -78 callsubr
        </CharString>
        <CharString name="kgreenlandic">
          84 0 29 -19 24 -20 -21 516 24 14 -20 28 -20 hstemhm
          84 143 137 231 -130 27 hintmask 0010011010000000
          84 319 rmoveto
          hintmask 1000011010000000
          -189 -7 -74 -4 -25 vhcurveto
          -89 callgsubr
          rrcurveto
          hintmask 0010011010000000
          4 -24 rlineto
          hintmask 1000011010000000
          -90 callgsubr
          hintmask 0010011010000000
          -32 callsubr
          hintmask 1000011010000000
          -93 callsubr
          -3 23 -7 66 -2 99 rrcurveto
          16 vlineto
          5 8 7 7 6 8 rrcurveto
          109 -199 2 -4 -60 vvcurveto
          hintmask 0010011100000000
          10 -5 52 12 94 8 75 2 rlinecurve
          hintmask 0100011100000000
          24 vlineto
          -16 1 -14 4 -15 4 -29 26 -45 71 -50 92 -68 124 rcurveline
          19 25 18 12 13 hhcurveto
          hintmask 0010011010000000
          12 17 -5 -5 11 hvcurveto
          7 -24 2 -20 2 -27 rrcurveto
          27 hlineto
          4 84 7 58 50 70 rrcurveto
          17 vlineto
          13 -32 -39 7 -34 hhcurveto
          -78 -48 -88 -144 -44 -80 -11 1 rcurveline
          2 101 17 112 12 50 rrcurveto
          hintmask 0010101010000000
          -8 8 rlineto
          -15 -66 -80 -7 -67 hhcurveto
          hintmask 0011001010000000
          -24 vlineto
          15 -2 14 -5 10 -7 rrcurveto
          5 -46 3 -54 -76 vvcurveto
          endchar
        </CharString>
        <CharString name="l">
          -62 callgsubr
          hintmask 00110011
          85 31 -96 callsubr
        </CharString>
        <CharString name="ldot">
          -62 callgsubr
          455 311 rmoveto
          -104 callsubr
          hintmask 00110011
          -370 -280 -96 callsubr
        </CharString>
        <CharString name="less">
          17 callgsubr
          55 222 rmoveto
          64 -19 61 -21 75 -30 88 -35 80 -36 72 -36 26 67 rcurveline
          -5 10 -349 128 rlineto
          4 vlineto
          349 129 5 10 -24 66 -72 -37 -85 -38 -85 -32 rlinecurve
          -91 -34 -50 -18 -45 -14 rrcurveto
          endchar
        </CharString>
        <CharString name="logicalnot">
          102 228 64 hstem
          450 67 vstem
          517 82 rmoveto
          5 6 rlineto
          -2 53 -3 28 120 vvcurveto
          -6 6 rlineto
          -2 -26 -53 -25 callgsubr
          -117 -39 callsubr
          388 -137 hlineto
          endchar
        </CharString>
        <CharString name="lslash">
          -62 callgsubr
          210 275 rmoveto
          21 10 126 64 -2 4 -9 7 -8 11 -5 9 rlinecurve
          -23 -15 -41 -24 -25 -13 -34 -13 rcurveline
          -75 -26 rlineto
          -12 vlineto
          -95 -48 rlineto
          4 -10 1 -16 -13 vvcurveto
          4 -3 17 12 35 22 34 17 rlinecurve
          -1 vlineto
          hintmask 00110011
          -50 -206 -96 callsubr
        </CharString>
        <CharString name="m">
          296 0 31 -18 -21 22 0 callsubr
          513 31 6 -51 callgsubr
          22 -20 hstemhm
          270 10 -14 callsubr
          533 -70 callsubr
          hintmask 0010100010000000
          4 -24 rlineto
          -14 callsubr
          -79 callgsubr
          hintmask 0010100010000000
          -32 callsubr
          -24 callgsubr
          -93 callsubr
          rrcurveto
          -14 callsubr
          -17 88 -27 242 90 vvcurveto
          16 1 29 4 15 vhcurveto
          12 4 17 6 11 5 rrcurveto
          hintmask 1000010010000000
          -6 23 rlineto
          hintmask 1000001010000000
          -6 -46 -56 -1 -37 hhcurveto
          -14 callsubr
          -33 -53 2 4 -29 hvcurveto
          -3 -18 rlineto
          hintmask 1000000110000000
          13 -4 8 -11 -13 vvcurveto
          -72 -261 -1 -7 -1 -15 -8 -2 rcurveline
          -5 23 rlineto
          -39 180 -15 60 24 vvcurveto
          18 11 6 18 4 vhcurveto
          -3 17 rlineto
          -5 -41 -50 -36 callgsubr
          -14 callsubr
          -41 -44 2 7 -41 hvcurveto
          -6 -23 rlineto
          hintmask 1000000110000000
          12 -8 21 -8 14 -4 rrcurveto
          hintmask 1000001010000000
          -78 -475 rlineto
          -14 callsubr
          -12 -2 -24 -7 -11 -6 3 -22 rcurveline
          5 34 33 1 33 hhcurveto
          -24 callgsubr
          23 35 -1 -3 24 hvcurveto
          -14 callsubr
          2 14 rlineto
          -30 15 -5 34 32 vvcurveto
          -24 callgsubr
          35 9 96 8 65 vhcurveto
          hintmask 0100100010000000
          13 108 7 1 rlineto
          31 -87 43 -148 -92 vvcurveto
          -28 vlineto
          10 -6 41 25 56 20 49 8 rlinecurve
          50 3 37 71 221 vhcurveto
          6 -1 17 -116 9 -131 1 -117 rlinecurve
          endchar
        </CharString>
        <CharString name="macron">
          -151 643 81 -76 -20 hstemhm
          0 323 hintmask 10100000
          323 725 rmoveto
          -8 5 rlineto
          -3 -34 -43 -2 -34 hhcurveto
          -32 -82 2 2 -33 hvcurveto
          hintmask 01100000
          -45 3 -12 -84 9 -6 rlineto
          hintmask 10100000
          302 3 rlineto
          endchar
        </CharString>
        <CharString name="mu">
          55 5 22 -21 -21 28 14 callgsubr
          hstemhm
          43 152 135 145 hintmask 00011100
          43 193 rmoveto
          -214 -18 -101 -8 -86 vhcurveto
          7 -7 40 13 52 13 45 3 rlinecurve
          7 6 -10 38 -9 50 -1 86 rlinecurve
          hintmask 01001100
          42 -9 56 37 49 75 25 63 rlinecurve
          10 -1 rlineto
          hintmask 00101100
          -56 -6 -55 -13 -56 vhcurveto
          7 -7 rlineto
          hintmask 10001100
          16 90 70 4 61 hhcurveto
          22 vlineto
          -17 1 -24 5 -15 7 -5 41 -2 45 -1 42 rrcurveto
          139 8 115 6 30 vhcurveto
          3 16 2 9 5 20 -14 8 rcurveline
          -13 -60 -56 -6 -61 hhcurveto
          9 -46 5 -67 -146 vvcurveto
          -76 -26 -41 -50 -31 hhcurveto
          -24 -5 43 87 84 13 127 18 56 hvcurveto
          -7 7 rlineto
          -13 -60 -63 -6 -61 hhcurveto
          -7 -6 rlineto
          10 -38 5 -52 -119 vvcurveto
          endchar
        </CharString>
        <CharString name="multiply">
          102 38 404 hstem
          77 422 vstem
          437 441 rmoveto
          -8 -1 -138 -152 -60 63 -51 53 -33 37 rlinecurve
          -8 1 -52 -50 154 -153 -62 -64 -54 -40 -48 -44 rlinecurve
          42 -53 rlineto
          11 hlineto
          156 157 160 -156 11 -1 42 54 -49 43 -54 41 -63 65 rlinecurve
          156 152 rlineto
          endchar
        </CharString>
        <CharString name="n">
          -96 callgsubr
          endchar
        </CharString>
        <CharString name="nacute">
          -96 callgsubr
          485 633 rmoveto
          -20 callgsubr
          -1 33 -11 66 -13 22 rrcurveto
          -89 callsubr
        </CharString>
        <CharString name="nbspace">
          -294 endchar
        </CharString>
        <CharString name="nine">
          66 11 -21 278 8 217 69 hstem
          37 164 118 165 vstem
          319 335 rmoveto
          -160 -63 -100 -138 -85 vhcurveto
          13 -18 rlineto
          183 54 170 154 188 vvcurveto
          120 -63 74 -149 vhcurveto
          -90 -27 -90 -66 -55 -76 rrcurveto
          -147 75 -67 112 vhcurveto
          14 33 21 29 27 27 rrcurveto
          8 vlineto
          -77 -8 51 75 23 4 34 7 21 hvcurveto
          10 11 17 3 14 hhcurveto
          58 7 -85 -73 hvcurveto
          endchar
        </CharString>
        <CharString name="ntilde">
          173 -3 callgsubr
          23 -21 516 29 7 -20 21 -51 callgsubr
          76 114 hstemhm
          97 81 291 81 12 callsubr
          hintmask 0101000111000000
          -31 callgsubr
          -4 callsubr
          6 40 39 -37 callgsubr
          16 -1 -6 43 hvcurveto
          hintmask 0101000111000000
          -32 callsubr
          12 callsubr
          -93 callsubr
          rrcurveto
          -4 callsubr
          -45 39 -4 96 147 vvcurveto
          65 vlineto
          4 1 rlineto
          179 -297 27 -40 -45 vvcurveto
          12 callsubr
          3 21 43 2 28 hhcurveto
          -4 callsubr
          43 43 -1 -6 43 hvcurveto
          -32 callsubr
          12 callsubr
          -93 callsubr
          rrcurveto
          -4 callsubr
          -8 49 -5 52 140 vvcurveto
          102 5 92 8 47 vhcurveto
          -91 callsubr
          hintmask 0010010111000000
          -2 22 rlineto
          -5 -35 -34 -3 -39 hhcurveto
          12 callsubr
          -64 -24 4 3 -19 hvcurveto
          -3 -19 rlineto
          hintmask 0010001111000000
          70 -17 8 -61 -177 vvcurveto
          -79 vlineto
          -3 -2 rlineto
          -165 269 -6 19 25 vvcurveto
          12 9 10 10 4 vhcurveto
          -3 17 rlineto
          -5 -28 -54 -3 -51 hhcurveto
          12 callsubr
          -40 -50 -31 callsubr
          hintmask 0010001111000000
          11 -6 15 -6 12 -4 rrcurveto
          hintmask 0010100111000000
          7 -50 7 -111 -78 vvcurveto
          -115 -6 -78 -6 -46 vhcurveto
          74 587 rmoveto
          hintmask 0101000111000000
          31 20 30 8 32 hhcurveto
          12 callsubr
          -95 callsubr
        </CharString>
        <CharString name="numbersign">
          76 124 68 -63 66 -63 8 172 68 -63 67 -64 7 hstemhm
          40 470 -438 163 hintmask 10010010
          483 187 rmoveto
          -7 5 -22 -1 -40 1 -45 1 rlinecurve
          14 121 117 -3 10 63 -7 6 -23 -1 -42 1 -47 1 rlinecurve
          8 73 10 62 14 73 -4 3 rcurveline
          -2 -10 -37 -3 -11 hhcurveto
          hintmask 10001010
          -25 -205 rlineto
          hintmask 10001001
          -101 4 9 71 10 60 13 72 rlinecurve
          -4 3 rlineto
          -2 -10 -37 -3 -11 hhcurveto
          hintmask 00100101
          -25 -199 -24 1 -21 2 -13 1 rlinecurve
          -45 4 -10 -68 8 -6 97 -3 -15 -119 -25 1 -22 2 -14 1 rlinecurve
          -46 4 -10 -67 8 -7 101 -3 -8 -74 -9 -54 -13 -74 10 callgsubr
          hintmask 01010001
          26 222 100 -2 -9 -72 -8 -54 -13 -73 10 callgsubr
          hintmask 10010010
          26 218 112 -3 rlineto
          hintmask 01001010
          -260 74 rmoveto
          14 121 101 -2 -15 -122 rlineto
          endchar
        </CharString>
        <CharString name="o">
          -38 callsubr
          -62 callsubr
          28 219 -100 callgsubr
          endchar
        </CharString>
        <CharString name="oacute">
          -38 callsubr
          -62 callsubr
          28 219 -100 callgsubr
          210 180 rmoveto
          -1 33 -11 66 -13 22 rrcurveto
          -89 callsubr
        </CharString>
        <CharString name="ocircumflex">
          -38 callsubr
          -62 callsubr
          28 219 -100 callgsubr
          241 90 -84 callgsubr
        </CharString>
        <CharString name="odieresis">
          -38 callsubr
          -62 callsubr
          28 219 -100 callgsubr
          14 204 rmoveto
          -103 callsubr
          endchar
        </CharString>
        <CharString name="oe">
          248 -15 82 -82 88 184 58 166 71 1 -20 hstemhm
          28 159 149 151 109 33 -4 34 hintmask 1011011100000000
          296 553 rmoveto
          -156 -43 -112 -131 -161 vvcurveto
          -130 84 -103 130 vhcurveto
          42 9 46 19 43 32 rrcurveto
          -40 27 46 -20 79 hhcurveto
          hintmask 0111011100000000
          73 19 59 43 44 60 -16 19 rcurveline
          -28 -35 -32 -25 -44 hhcurveto
          -84 -3 80 100 hvcurveto
          3 12 22 -76 callgsubr
          -15 1 3 -12 hvcurveto
          1 vlineto
          1 41 7 79 15 38 rrcurveto
          hintmask 1011011010000000
          2 13 16 1 7 hhcurveto
          25 29 -2 -12 23 hvcurveto
          -23 3 -23 5 -23 vhcurveto
          26 hlineto
          hintmask 1010111010000000
          2 46 9 48 25 39 rrcurveto
          hintmask 1011011100000000
          -6 21 -40 -6 -95 -7 -88 1 rlinecurve
          1 -51 -42 12 -77 hhcurveto
          2 -486 rmoveto
          -108 -3 104 110 49 10 92 21 47 hvcurveto
          10 14 22 4 21 hhcurveto
          23 25 -6 -12 22 hvcurveto
          -1 -52 -8 -92 -114 vvcurveto
          -92 -3 -36 -21 -12 vhcurveto
          endchar
        </CharString>
        <CharString name="ograve">
          -38 callsubr
          109 -20 -62 callsubr
          28 219 -100 callgsubr
          104 83 -28 callsubr
          -30 callsubr
          rlinecurve
          -80 callsubr
        </CharString>
        <CharString name="one">
          66 -3 callgsubr
          421 33 105 -20 23 -20 hstemhm
          208 151 hintmask 10101100
          hintmask 10110100
          376 552 rmoveto
          -3 3 rlineto
          hintmask 10101100
          -10 -28 -3 -1 -7 hvcurveto
          -53 -49 -75 -40 -71 -15 rrcurveto
          -1 -4 -3 -21 -5 vvcurveto
          3 -3 rlineto
          77 hlineto
          2 -40 1 -46 -48 vvcurveto
          -131 -8 -92 -4 -28 vhcurveto
          -15 -3 -18 -5 -15 -5 rrcurveto
          hintmask 01101100
          2 -23 rlineto
          hintmask 10101100
          6 43 46 1 43 hhcurveto
          40 41 -2 -6 40 hvcurveto
          4 24 -11 6 -14 5 -12 4 rlinecurve
          -4 25 -7 76 140 vvcurveto
          hintmask 10110100
          103 8 116 9 61 vhcurveto
          endchar
        </CharString>
        <CharString name="onehalf">
          376 19 -21 22 -21 22 -21 30 89 153 28 13 94 148 26 83 -20 hstemhm
          103 145 227 75 86 151 hintmask 0010011111100000
          169 -42 -69 callgsubr
          hintmask 0100011111100000
          -36 -49 -51 -64 -38 -48 rrcurveto
          hintmask 0010011111100000
          -16 callgsubr
          hintmask 0010111111100000
          -69 341 rmoveto
          -14 -3 -22 -7 -14 -6 2 -23 rcurveline
          6 28 50 5 48 hhcurveto
          49 37 -5 -6 37 hvcurveto
          3 23 -13 6 -19 8 -13 4 rlinecurve
          -3 23 -3 93 42 vvcurveto
          43 5 117 6 44 vhcurveto
          -3 2 rlineto
          -8 -22 -2 -1 -6 hvcurveto
          -42 -39 -81 -31 -57 -12 rrcurveto
          -1 -3 -2 -17 -4 vvcurveto
          2 -2 rlineto
          61 hlineto
          2 -31 1 -34 -33 vvcurveto
          -41 -5 -90 -3 -26 vhcurveto
          hintmask 1001011111100000
          534 107 -68 callgsubr
          hintmask 0010011111100000
          9 callsubr
          hintmask 0011011111100000
          -60 callgsubr
          hintmask 1001011111100000
          118 -40 32 -118 vhcurveto
          endchar
        </CharString>
        <CharString name="onequarter">
          376 12 28 -20 -21 91 76 106 28 255 26 83 -20 hstemhm
          100 135 370 135 66 9 hintmask 0111111100000000
          -49 callsubr
          hintmask 1011111110000000
          -71 callgsubr
          -648 135 -77 callgsubr
          77 -342 -69 callgsubr
          -36 -49 -51 -64 -38 -48 -16 callgsubr
          437 351 rmoveto
          5 hlineto
          -2 -144 rlineto
          hintmask 0111111100000000
          -21 -34 2 4 -23 hvcurveto
          hintmask 1011111110000000
          35 48 17 35 23 55 rrcurveto
          endchar
        </CharString>
        <CharString name="onesuperior">
          -158 352 28 255 26 hstem
          90 135 vstem
          82 380 -77 callgsubr
          endchar
        </CharString>
        <CharString name="ordfeminine">
          -23 259 97 -82 18 307 67 hstemhm
          24 139 90 135 hintmask 01011000
          24 421 rmoveto
          hintmask 10011000
          -81 53 -81 84 vhcurveto
          43 36 36 47 19 50 7 -1 rcurveline
          hintmask 01111000
          -44 -5 -39 -10 -43 vhcurveto
          5 -6 rlineto
          12 74 60 3 49 hhcurveto
          18 vlineto
          -14 -19 5 5 -11 hvcurveto
          -6 41 -1 45 41 vvcurveto
          132 8 83 10 43 vhcurveto
          -21 6 -5 -15 -13 -23 -9 -11 rlinecurve
          12 -41 -56 10 -40 hhcurveto
          hintmask 01011000
          -104 -42 -93 -93 -110 vvcurveto
          hintmask 10111000
          139 36 rmoveto
          42 3 55 10 41 vhcurveto
          3 9 9 1 9 hhcurveto
          18 19 -8 -15 11 hvcurveto
          1 -24 1 -11 -93 vvcurveto
          -65 -23 -27 -27 -14 hhcurveto
          -18 -8 35 66 hvcurveto
          endchar
        </CharString>
        <CharString name="ordmasculine">
          -49 259 64 279 64 hstem
          24 143 91 143 vstem
          24 426 rmoveto
          -102 74 -65 115 vhcurveto
          102 41 86 93 106 vvcurveto
          107 -59 60 -120 vhcurveto
          -102 -41 -96 -93 -106 vvcurveto
          181 176 rmoveto
          46 7 -65 -82 -39 -3 -48 -9 -38 hvcurveto
          -5 -7 -9 -2 -9 hhcurveto
          -47 -7 65 82 39 3 48 9 38 hvcurveto
          5 8 9 2 9 hhcurveto
          endchar
        </CharString>
        <CharString name="oslash">
          -38 callsubr
          -62 callsubr
          165 -87 rmoveto
          187 493 38 99 24 11 callgsubr
          -13 -4 -18 -3 -14 -1 rlinecurve
          -26 -80 -22 -62 -30 -78 -95 -250 rcurveline
          -22 -57 -39 -93 -25 -56 8 -9 14 -10 11 -5 rrcurveto
          -132 306 -100 callgsubr
          endchar
        </CharString>
        <CharString name="otilde">
          -38 callsubr
          50 114 -62 callsubr
          28 219 -100 callgsubr
          -140 134 rmoveto
          31 20 30 8 32 -95 callsubr
        </CharString>
        <CharString name="p">
          52 -3 callgsubr
          238 42 230 41 -2 callsubr
          114 163 hintmask 01111100
          hintmask 10111100
          8 callgsubr
          hintmask 01111100
          4 -24 rlineto
          hintmask 10111100
          -90 callgsubr
          hintmask 01111100
          -32 callsubr
          hintmask 10111100
          -93 callsubr
          rrcurveto
          -1 hlineto
          -4 31 -7 88 129 vvcurveto
          92 4 93 5 37 vhcurveto
          -59 callsubr
          -68 -127 -8 -69 hhcurveto
          -39 callgsubr
          -38 8 -97 -94 vvcurveto
          -139 -8 -73 -3 -26 vhcurveto
          endchar
        </CharString>
        <CharString name="paragraph">
          114 -115 86 29 38 -25 -21 28 -21 621 25 4 -20 22 7 0 -20 hstemhm
          267 64 52 95 hintmask 0001000111000000
          hintmask 1001001011000000
          348 651 rmoveto
          3 -59 -46 4 -47 hhcurveto
          -140 -61 -74 -82 -98 90 -109 148 12 10 0 1 12 hvcurveto
          -165 vlineto
          -50 -5 -54 -17 -47 vhcurveto
          -7 -15 -24 -2 -18 hhcurveto
          -13 -16 3 9 -10 hvcurveto
          -7 -1 -11 -18 -29 -36 -17 -16 rlinecurve
          -16 15 -11 36 108 87 90 206 vhcurveto
          144 vlineto
          155 5 86 11 78 vhcurveto
          hintmask 0100000111000000
          21 -645 rmoveto
          1 20 18 0 19 hhcurveto
          47 44 -2 -6 46 hvcurveto
          hintmask 0010000111000000
          4 25 rlineto
          hintmask 0001000111000000
          -22 7 -30 11 -23 3 rrcurveto
          hintmask 0100100011000000
          -5 34 -8 132 121 vvcurveto
          135 8 110 4 34 vhcurveto
          10 30 18 6 29 hhcurveto
          25 -36 vlineto
          -45 -59 1 3 -32 hvcurveto
          hintmask 0001010011000000
          -11 -86 -1 -132 -106 vvcurveto
          -256 -5 -28 -12 -38 vhcurveto
          endchar
        </CharString>
        <CharString name="parenleft">
          -177 -181 -21 hstem
          31 92 vstem
          31 262 rmoveto
          -175 93 -195 126 -107 vhcurveto
          13 13 rlineto
          -93 127 -47 173 164 vvcurveto
          164 49 144 93 127 vhcurveto
          -15 14 rlineto
          -126 -107 -93 -170 -172 vvcurveto
          endchar
        </CharString>
        <CharString name="parenright">
          -177 -181 -21 hstem
          174 92 vstem
          266 262 rmoveto
          172 -93 170 -126 107 vhcurveto
          -15 -14 rlineto
          93 -127 49 -144 -164 vvcurveto
          -164 -47 -173 -93 -127 vhcurveto
          13 -13 rlineto
          126 107 93 195 175 vvcurveto
          endchar
        </CharString>
        <CharString name="percent">
          270 -15 37 205 37 27 37 168 44 -7 37 hstemhm
          1 743 hintmask 11010100
          hintmask 11001100
          1 389 rmoveto
          -94 26 74 -68 77 hhcurveto
          60 89 65 116 26 hvcurveto
          hintmask 11010100
          -15 54 -30 45 -37 29 3 3 rcurveline
          -21 46 53 -22 50 hhcurveto
          27 30 12 20 19 hvcurveto
          4 -1 -30 -51 -31 -50 -33 -50 rlinecurve
          -175 -274 -33 -51 -53 -70 -36 -49 rlinecurve
          8 -12 32 -14 13 -6 rrcurveto
          5 hlineto
          305 478 58 90 57 84 30 43 rlinecurve
          -3 3 -20 -6 -39 -3 -20 -1 rlinecurve
          -6 -10 rlineto
          -32 -19 -31 -6 -36 -123 -86 30 -59 hhcurveto
          hintmask 11001100
          -59 -92 -65 -116 -26 hvcurveto
          391 -242 rmoveto
          -94 26 74 -68 77 hhcurveto
          60 89 65 116 26 hvcurveto
          94 -26 -71 68 -78 hhcurveto
          -59 -92 -65 -116 -26 hvcurveto
          hintmask 11110100
          177 144 -37 callsubr
          -391 242 -37 callsubr
          endchar
        </CharString>
        <CharString name="period">
          -217 6 -21 hstem
          34 189 -68 callsubr
          endchar
        </CharString>
        <CharString name="periodcentered">
          -217 185 181 hstem
          34 189 vstem
          223 285 rmoveto
          -65 callgsubr
        </CharString>
        <CharString name="plus">
          102 11 -21 222 71 hstem
          249 71 vstem
          520 278 -50 callgsubr
          -37 -35 0 1 -37 hvcurveto
          1 vlineto
          114 3 39 2 53 vhcurveto
          -5 6 -71 -9 rlineto
          -203 -14 callgsubr
          -224 hlineto
          10 -7 70 9 rlineto
          -5 53 -4 66 103 vvcurveto
          191 hlineto
          endchar
        </CharString>
        <CharString name="plusminus">
          102 -10 59 -31 -21 265 71 hstemhm
          253 71 hintmask 10110000
          524 328 -50 callgsubr
          -37 -35 0 1 -37 hvcurveto
          1 vlineto
          64 2 39 3 53 vhcurveto
          -5 6 -71 -9 rlineto
          -153 -14 callgsubr
          -174 hlineto
          10 -2 70 4 rlineto
          -5 53 -4 46 73 vvcurveto
          191 hlineto
          1 -216 rmoveto
          -6 6 rlineto
          -2 -26 -43 -25 callgsubr
          -127 3 6 -113 hvcurveto
          hintmask 01110000
          -9 -61 8 -7 rlineto
          hintmask 10110000
          446 hlineto
          endchar
        </CharString>
        <CharString name="q">
          92 -180 -21 116 139 -68 68 -47 -21 35 -21 484 71 hstemhm
          27 162 189 160 hintmask 10001111
          539 -60 rmoveto
          -70 5 -75 47 -70 8 rrcurveto
          135 52 79 124 144 vvcurveto
          155 -93 80 -150 vhcurveto
          -158 -39 -110 -137 -162 vvcurveto
          hintmask 10010111
          -128 90 -91 133 -12 vhcurveto
          hintmask 11000111
          -45 -17 -46 -33 -33 -36 18 -17 rcurveline
          23 27 32 9 32 hhcurveto
          74 74 -42 -57 70 hvcurveto
          21 -17 rlineto
          hintmask 10001111
          30 51 37 53 49 34 -14 19 rcurveline
          -10 -7 -15 -6 -12 -3 rrcurveto
          -274 544 rmoveto
          104 9 -123 -106 hvcurveto
          hintmask 10100111
          -55 -9 -79 -23 -53 vhcurveto
          -9 -12 -16 -5 -19 hhcurveto
          -91 -19 129 96 58 9 82 20 51 hvcurveto
          hintmask 10001111
          10 13 17 4 17 hhcurveto
          endchar
        </CharString>
        <CharString name="question">
          -123 6 -21 557 -20 115 74 hstem
          -7 104 108 176 vstem
          261 85 rmoveto
          -95 callgsubr
          -121 159 rmoveto
          48 5 7 58 6 30 9 55 rlinecurve
          61 45 65 54 45 61 rrcurveto
          108 -88 51 -108 vhcurveto
          -84 -19 -108 -92 -86 -40 callgsubr
          27 24 27 14 34 -72 callgsubr
          -8 7 -3 13 17 vvcurveto
          14 3 22 5 14 vhcurveto
          5 13 16 3 13 hhcurveto
          40 18 -22 -40 -76 -28 -57 -59 -49 hvcurveto
          -19 vlineto
          endchar
        </CharString>
        <CharString name="questiondown">
          -123 -215 74 hstem
          -30 176 108 104 vstem
          90 430 -42 callgsubr
          -178 rmoveto
          -48 -5 -7 -58 -6 -30 -9 -55 rlinecurve
          -61 -45 -65 -54 -45 -61 rrcurveto
          -108 88 -51 108 vhcurveto
          84 19 108 92 86 vvcurveto
          17 -9 11 -17 1 vhcurveto
          -27 -24 -27 -14 -34 -12 -1 -7 rcurveline
          8 -7 3 -13 -17 vvcurveto
          -14 -3 -22 -5 -14 vhcurveto
          -5 -13 -16 -3 -13 hhcurveto
          -40 -18 22 40 76 28 57 59 49 hvcurveto
          19 vlineto
          endchar
        </CharString>
        <CharString name="quotedbl">
          -55 661 -20 hstem
          80 295 vstem
          102 378 -52 callgsubr
          188 -273 -52 callgsubr
          endchar
        </CharString>
        <CharString name="quotedblbase">
          -2 -150 316 hstemhm
          29 409 -333 118 97 -5 callsubr
          hintmask 10110000
          -34 callsubr
          -49 -28 -48 -42 -35 17 -22 rcurveline
          78 41 99 111 83 vvcurveto
          215 -35 callgsubr
          12 -23 35 -38 24 -20 -6 -49 -28 -48 -42 -35 17 -22 rcurveline
          78 41 99 111 83 vvcurveto
          endchar
        </CharString>
        <CharString name="quotedblleft">
          -2 661 -20 hstemhm
          34 118 -118 409 -194 118 hintmask 10100000
          hintmask 11010000
          34 427 rmoveto
          -71 callsubr
          215 hmoveto
          -71 callsubr
          endchar
        </CharString>
        <CharString name="quotedblright">
          -2 346 335 hstemhm
          29 409 -333 118 97 -5 callsubr
          hintmask 10110000
          438 600 -83 callgsubr
          -215 hmoveto
          -82 callgsubr
          endchar
        </CharString>
        <CharString name="quoteleft">
          -217 661 -20 hstemhm
          34 118 -118 194 hintmask 10100000
          hintmask 11000000
          34 427 rmoveto
          -71 callsubr
          endchar
        </CharString>
        <CharString name="quoteright">
          -217 346 335 hstemhm
          29 194 -118 -5 callsubr
          hintmask 10100000
          223 600 -83 callgsubr
          endchar
        </CharString>
        <CharString name="quotesinglbase">
          -217 -150 316 hstemhm
          29 194 -118 -5 callsubr
          hintmask 10100000
          -34 callsubr
          -49 -28 -48 -42 -35 17 -22 rcurveline
          78 41 99 111 83 vvcurveto
          endchar
        </CharString>
        <CharString name="quotesingle">
          -214 661 -20 hstem
          80 129 vstem
          102 378 -52 callgsubr
          endchar
        </CharString>
        <CharString name="r">
          109 -101 callgsubr
          endchar
        </CharString>
        <CharString name="rcaron">
          98 -101 callgsubr
          -11 171 -53 callgsubr
        </CharString>
        <CharString name="rcommaaccent">
          98 -101 callgsubr
          97 -639 rmoveto
          -12 callsubr
          -78 callsubr
        </CharString>
        <CharString name="registered">
          -40 304 39 64 11 81 15 76 18 47 41 hstem
          21 41 84 56 36 59 73 43 vstem
          21 500 rmoveto
          -109 87 -87 109 109 87 87 109 109 -87 87 -109 -109 -87 -87 -109 vhcurveto
          41 hmoveto
          87 68 68 87 87 66 -68 -87 -87 -66 -70 -87 -87 -68 70 87 vhcurveto
          140 9 rmoveto
          34 1 32 2 13 vhcurveto
          1 3 6 1 3 hhcurveto
          18 3 -18 -19 -19 -4 -20 -19 hvcurveto
          -3 hlineto
          -1 -15 rlineto
          16 hlineto
          12 -36 3 -20 -13 vvcurveto
          -8 -3 -7 -3 -4 vhcurveto
          1 -6 rlineto
          1 10 18 1 10 hhcurveto
          15 18 -1 -2 12 hvcurveto
          2 9 -4 2 -9 3 -4 1 rlinecurve
          -43 87 rlineto
          20 10 15 20 22 vvcurveto
          42 -32 8 -43 vhcurveto
          -30 -38 -2 -29 hhcurveto
          -9 vlineto
          6 5 -2 -3 6 hvcurveto
          1 -13 3 -37 -36 vvcurveto
          -49 -3 -29 -1 -9 vhcurveto
          -16 -6 1 -9 rlineto
          2 14 17 1 14 hhcurveto
          19 15 -1 -2 17 hvcurveto
          1 9 -5 2 -9 2 -4 1 rlinecurve
          -2 10 -2 34 47 vvcurveto
          endchar
        </CharString>
        <CharString name="ring">
          -253 576 6 callsubr
          659 vmoveto
          3 callsubr
          -85 callsubr
        </CharString>
        <CharString name="ring.cap">
          -253 689 6 callsubr
          772 vmoveto
          3 callsubr
          -85 callsubr
        </CharString>
        <CharString name="s">
          -49 -15 84 -58 -21 486 79 hstemhm
          46 -22 callsubr
          hintmask 01101010
          hintmask 10101010
          88 114 rmoveto
          -17 callsubr
          hintmask 01101010
          -11 callgsubr
          hintmask 10110100
          18 -17 11 13 11 11 13 7 rlinecurve
          -13 47 43 -6 50 hhcurveto
          74 30 130 128 79 81 -241 70 59 vvcurveto
          32 41 12 32 vhcurveto
          hintmask 01110010
          -74 callgsubr
          hintmask 10110100
          -26 callgsubr
          hintmask 10101010
          11 callsubr
          endchar
        </CharString>
        <CharString name="section">
          -2 -117 81 621 81 hstemhm
          68 108 120 108 -68 108 hintmask 11101000
          355 165 rmoveto
          41 43 28 45 20 52 rrcurveto
          104 -268 59 74 vvcurveto
          25 18 18 25 47 57 -34 -30 37 vhcurveto
          10 2 13 46 17 25 33 33 rlinecurve
          16 vlineto
          18 -53 -61 5 -56 hhcurveto
          -84 -37 -63 -62 -48 -79 rrcurveto
          -114 268 -38 -114 vvcurveto
          -14 -2 -13 -6 -11 vhcurveto
          -211 200 rmoveto
          -41 -43 -28 -45 -20 -52 rrcurveto
          hintmask 11110000
          -104 268 -59 -74 vvcurveto
          -25 -18 -18 -25 -47 -57 34 30 -37 vhcurveto
          -10 -2 -13 -46 -17 -25 -33 -33 rlinecurve
          -16 vlineto
          -18 53 61 -5 56 hhcurveto
          84 37 63 62 48 79 rrcurveto
          114 -258 38 -10 114 vhcurveto
          -1 14 3 13 6 11 rrcurveto
          endchar
        </CharString>
        <CharString name="semicolon">
          -217 -169 674 hstemhm
          29 194 -118 -5 callsubr
          hintmask 10100000
          223 85 -83 callgsubr
          339 vmoveto
          -65 callgsubr
        </CharString>
        <CharString name="seven">
          66 0 34 -28 -21 32 -21 25 -21 416 117 14 -20 hstemhm
          117 24 hintmask 10000110
          hintmask 01000110
          147 27 rmoveto
          -11 -7 -21 -8 -11 -3 5 -24 rcurveline
          hintmask 10000110
          12 62 58 3 62 hhcurveto
          26 25 -1 -3 26 hvcurveto
          hintmask 00100110
          3 23 rlineto
          hintmask 00010110
          -18 6 -24 6 -20 3 rrcurveto
          hintmask 10000110
          82 23 86 54 133 vhcurveto
          33 81 34 65 38 66 -24 12 rcurveline
          hintmask 10001010
          -6 -10 -7 -9 -7 -7 rrcurveto
          -102 -124 6 21 -100 hvcurveto
          -11 -9 rlineto
          9 -27 4 -41 -28 vvcurveto
          -40 -3 -39 -3 -18 vhcurveto
          24 -5 5 21 6 20 9 22 rlinecurve
          55 -6 63 -3 53 3 rrcurveto
          13 4 14 7 0 vvcurveto
          4 -4 -65 -103 -109 -172 -31 -59 -11 -56 rlinecurve
          endchar
        </CharString>
        <CharString name="six">
          66 -15 69 217 8 hstem
          56 165 118 164 vstem
          221 212 rmoveto
          160 63 100 138 85 vhcurveto
          -13 18 rlineto
          -183 -54 -170 -154 -188 vvcurveto
          -120 63 -74 149 vhcurveto
          90 27 90 66 55 76 rrcurveto
          147 -75 67 -112 vhcurveto
          -14 -33 -21 -29 -27 -27 rrcurveto
          -8 vlineto
          77 8 -51 -75 -23 -4 -34 -7 -21 hvcurveto
          -10 -11 -17 -3 -14 hhcurveto
          -58 -7 85 73 hvcurveto
          endchar
        </CharString>
        <CharString name="slash">
          -120 10 -21 hstem
          9 344 vstem
          68 -41 rmoveto
          202 532 37 99 25 11 callgsubr
          -17 -4 -35 -3 -17 -1 rlinecurve
          -26 -80 -22 -63 -30 -78 -117 -299 rcurveline
          -22 -57 -29 -76 -25 -56 10 -12 30 -12 14 -6 rrcurveto
          endchar
        </CharString>
        <CharString name="space">
          -294 endchar
        </CharString>
        <CharString name="sterling">
          66 6 -21 26 -21 29 115 115 52 -31 43 172 70 -39 23 0 -20 1 callgsubr
          98 229 34 -30 25 hintmask 0101000110100000
          110 302 rmoveto
          -65 hlineto
          -3 -49 8 -6 55 5 rlineto
          hintmask 1011000111000000
          -55 13 -68 -15 -60 vhcurveto
          -15 -25 -20 -31 -10 -28 23 -10 rcurveline
          9 16 12 17 12 11 rrcurveto
          133 91 -10 -27 131 hvcurveto
          hintmask 0101000111000000
          12 8 rlineto
          hintmask 0110110011000000
          -6 22 -4 39 21 vvcurveto
          25 4 44 8 26 vhcurveto
          -22 7 -7 -21 -8 -19 -9 -17 rlinecurve
          13 -73 -58 4 -65 hhcurveto
          -12 -3 -21 -13 0 vvcurveto
          9 vlineto
          26 38 22 52 5 47 160 13 rcurveline
          4 46 -6 5 -26 -5 -31 -3 -32 -3 rlinecurve
          -67 -6 3 52 10 67 18 41 rlinecurve
          hintmask 0101010010100000
          10 13 19 4 18 hhcurveto
          33 30 -13 -22 23 -75 callgsubr
          hintmask 0101001010100000
          -67 callsubr
          hintmask 0101010010100000
          9 -50 -55 7 -53 hhcurveto
          hintmask 0101000110100000
          -132 -33 -99 -97 -31 -123 rrcurveto
          endchar
        </CharString>
        <CharString name="t">
          2 0 29 -16 -21 489 59 12 -20 hstemhm
          16 28 123 151 112 34 hintmask 01101110
          hintmask 10101110
          157 31 rmoveto
          -12 -4 -15 -6 -11 -6 rrcurveto
          hintmask 01101110
          3 -24 rlineto
          hintmask 10101110
          -6 callsubr
          hintmask 01101110
          2 22 -15 7 -18 5 -15 3 rlinecurve
          hintmask 10101110
          -1 hlineto
          -4 28 -8 89 132 vvcurveto
          73 4 78 3 47 vhcurveto
          3 9 20 2 9 hhcurveto
          25 19 -53 callsubr
          hintmask 01011110
          -6 21 rlineto
          -7 -48 -100 -5 -108 hhcurveto
          hintmask 01101110
          -107 -97 5 7 -48 hvcurveto
          -6 -21 rlineto
          hintmask 01011110
          25 -39 9 -48 2 -46 rrcurveto
          28 hlineto
          hintmask 01101110
          23 3 23 5 23 vhcurveto
          10 19 28 4 21 hhcurveto
          11 16 -1 -3 12 hvcurveto
          4 -48 4 -83 -77 vvcurveto
          -139 -7 -74 -3 -25 vhcurveto
          endchar
        </CharString>
        <CharString name="thorn">
          73 -3 callgsubr
          142 42 230 40 64 -33 callsubr
          108 163 hintmask 0111100110000000
          251 403 rmoveto
          -59 callsubr
          -51 -1 2 30 2 23 2 11 rlinecurve
          hintmask 0111010110000000
          -91 callsubr
          hintmask 0111001110000000
          -2 22 rlineto
          hintmask 0111100110000000
          -6 -43 -47 -36 callgsubr
          -77 callsubr
          hintmask 1011001110000000
          -3 -24 11 -6 15 -6 12 -4 rlinecurve
          4 -31 8 -103 -103 vvcurveto
          -54 callsubr
          -89 callgsubr
          4 -24 rcurveline
          hintmask 0111100110000000
          6 40 41 2 40 hhcurveto
          hintmask 1011100110000000
          -47 callgsubr
          rlineto
          hintmask 0111100110000000
          -93 callsubr
          rrcurveto
          hintmask 1011100110000000
          -59 callgsubr
          43 1 43 2 37 vhcurveto
          endchar
        </CharString>
        <CharString name="three">
          66 -15 78 204 8 143 115 23 -20 hstemhm
          121 25 185 171 hintmask 11011000
          hintmask 11101100
          134 560 rmoveto
          -12 -9 rlineto
          8 -24 3 -22 -38 vvcurveto
          -42 -4 -33 -4 -24 vhcurveto
          22 -6 6 22 8 21 9 20 rlinecurve
          -4 38 44 -3 38 hhcurveto
          12 3 16 7 0 vvcurveto
          2 -4 -119 -149 13 -8 rlineto
          80 37 -35 -80 -28 -3 -32 -10 -24 hvcurveto
          -4 -9 -16 -1 -9 hhcurveto
          -44 -49 29 63 -43 -27 callgsubr
          89 -30 56 hhcurveto
          81 27 96 72 51 68 rrcurveto
          127 -43 71 -126 17 vhcurveto
          hintmask 11011100
          183 189 rlineto
          hintmask 11101100
          -21 16 -13 -14 -27 -15 -23 -10 rlinecurve
          -104 -92 6 21 -102 hvcurveto
          endchar
        </CharString>
        <CharString name="threequarters">
          376 12 28 -20 -21 91 76 93 56 232 100 -96 -20 122 -20 32 -20 hstemhm
          77 20 118 151 239 135 66 9 hintmask 0110010110100000
          -49 callsubr
          hintmask 1010010110110000
          -71 callgsubr
          -668 500 -46 callsubr
          hintmask 0110100011100000
          -18 callgsubr
          hvcurveto
          hintmask 0111011011100000
          -16 -2 -17 -6 -17 vhcurveto
          -72 callsubr
          97 -707 rmoveto
          398 552 rlineto
          hintmask 0110010111100000
          62 86 41 57 33 41 rrcurveto
          hintmask 0110100011100000
          -4 3 rlineto
          hintmask 1010010110110000
          -17 1 -33 2 -17 4 -46 -70 -37 -55 -49 -68 -254 -351 rcurveline
          -36 -49 -51 -64 -38 -48 -16 callgsubr
          437 351 rmoveto
          5 hlineto
          -2 -144 rlineto
          hintmask 0110010110100000
          -21 -34 2 4 -23 hvcurveto
          hintmask 1010010110110000
          35 48 17 35 23 55 rrcurveto
          endchar
        </CharString>
        <CharString name="threesuperior">
          -94 339 56 232 100 hstem
          67 20 118 151 vstem
          62 745 -46 callsubr
          -18 callgsubr
          -16 -2 -17 -6 -17 hvcurveto
          -72 callsubr
          endchar
        </CharString>
        <CharString name="tilde">
          -38 605 114 hstem
          0 436 vstem
          24 618 rmoveto
          31 20 30 8 32 -95 callsubr
        </CharString>
        <CharString name="tilde.cap">
          -38 721 114 hstem
          0 436 vstem
          24 734 rmoveto
          31 20 30 8 32 -95 callsubr
        </CharString>
        <CharString name="two">
          66 7 -21 26 -21 32 118 333 81 hstemhm
          53 104 118 182 -29 38 hintmask 01111100
          255 555 rmoveto
          -92 -21 -110 -94 -97 vvcurveto
          -18 10 -12 19 -1 vhcurveto
          26 23 27 16 33 11 1 8 rcurveline
          -8 8 -4 13 18 vvcurveto
          16 4 25 5 15 vhcurveto
          6 14 17 3 15 hhcurveto
          48 15 -25 -48 hvcurveto
          hintmask 10111100
          -150 -196 -125 -54 -140 vhcurveto
          23 -11 10 18 17 20 16 10 rlinecurve
          hintmask 01111010
          141 93 -11 -29 138 hvcurveto
          14 8 rlineto
          -7 24 -4 39 23 vvcurveto
          28 4 44 9 28 vhcurveto
          -24 8 -8 -23 -9 -21 -10 -19 rlinecurve
          14 -76 -45 5 -77 hhcurveto
          -13 -3 -23 -15 0 vvcurveto
          11 vlineto
          hintmask 01111100
          89 64 104 90 70 86 rrcurveto
          127 -75 54 -127 vhcurveto
          endchar
        </CharString>
        <CharString name="twosuperior">
          -78 369 89 194 94 hstem
          32 75 86 151 vstem
          186 746 -68 callgsubr
          9 callsubr
          -60 callgsubr
          118 -40 32 -118 vhcurveto
          endchar
        </CharString>
        <CharString name="u">
          -106 callgsubr
          endchar
        </CharString>
        <CharString name="uacute">
          -106 callgsubr
          -8 153 rmoveto
          -1 33 -11 66 -13 22 -4 callgsubr
          -89 callsubr
        </CharString>
        <CharString name="ucircumflex">
          -106 callgsubr
          -15 63 -28 callsubr
          rlineto
          -47 callsubr
          -81 49 -70 70 -44 75 -25 callsubr
          -12 hhcurveto
          -12 -6 -1 -1 -3 hvcurveto
          -44 -75 -70 -70 -81 -8 callsubr
          206 79 rlineto
          endchar
        </CharString>
        <CharString name="udieresis">
          -106 callgsubr
          -248 177 rmoveto
          -86 callgsubr
          -4 callgsubr
          -64 callsubr
        </CharString>
        <CharString name="ugrave">
          169 -13 89 -76 29 -15 -21 518 29 7 -20 21 -51 callgsubr
          135 -20 hstemhm
          90 151 154 151 -4 callsubr
          557 511 rmoveto
          hintmask 1000010111000000
          -91 callsubr
          hintmask 1000001111000000
          -2 22 rlineto
          -4 callsubr
          -6 -43 -47 -36 callgsubr
          -77 callsubr
          hintmask 1000001111000000
          -40 callsubr
          hintmask 1000100111000000
          11 -6 15 -6 12 -4 rrcurveto
          -4 callsubr
          4 -30 8 -104 -104 vvcurveto
          -105 -1 -37 -1 -25 vhcurveto
          -16 -22 -24 -12 -29 hhcurveto
          -74 -3 70 84 60 3 104 6 59 hvcurveto
          hintmask 1000001111000000
          4 41 6 20 28 16 -3 16 rcurveline
          hintmask 1000100111000000
          -5 -33 -36 -1 -32 hhcurveto
          -4 callsubr
          -35 -51 2 5 -36 -2 callgsubr
          hintmask 1000100111000000
          9 -5 18 -6 11 -3 rrcurveto
          -4 callsubr
          7 -16 0 -13 -17 -33 -13 -147 -83 vvcurveto
          -144 45 -69 145 vhcurveto
          41 16 38 22 31 30 -2 -20 -4 -20 -5 -8 rrcurveto
          12 callsubr
          4 -16 rlineto
          6 36 43 3 36 hhcurveto
          38 29 -1 -6 38 hvcurveto
          hintmask 0101000111000000
          2 23 -93 callsubr
          rlinecurve
          12 callsubr
          -4 29 -7 91 131 vvcurveto
          hintmask 0101000111000000
          102 5 100 4 29 vhcurveto
          -188 56 -28 callsubr
          rlineto
          -4 callsubr
          -30 callsubr
          rrcurveto
          -80 callsubr
        </CharString>
        <CharString name="underscore">
          182 -195 57 hstem
          7 642 vstem
          649 -141 -43 callgsubr
        </CharString>
        <CharString name="uni0018">
          -474 endchar
        </CharString>
        <CharString name="v">
          106 0 28 -28 66 -55 0 callsubr
          28 -21 511 29 -10 callgsubr
          384 151 hintmask 0000110010000000
          hintmask 1000010010000000
          367 28 rmoveto
          130 235 38 92 81 vvcurveto
          25 -3 26 -12 23 vhcurveto
          hintmask 0000101010000000
          16 4 17 5 13 6 rrcurveto
          hintmask 0000100110000000
          -3 23 rlineto
          hintmask 0000110010000000
          -6 -33 -41 -2 -33 hhcurveto
          -39 -44 3 4 -36 hvcurveto
          hintmask 0100000110000000
          -2 -17 rlineto
          38 -18 11 -33 -49 vvcurveto
          -54 -8 -90 -57 -220 vhcurveto
          hintmask 0000110010000000
          -54 200 -26 153 -9 92 rrcurveto
          hintmask 0000100110000000
          15 3 18 6 15 6 -3 22 rcurveline
          hintmask 0000110010000000
          -6 -37 -59 -2 -37 hhcurveto
          -40 -52 2 6 -39 hvcurveto
          hintmask 0000100110000000
          1 callsubr
          hintmask 0010010010000000
          11 -6 16 -4 12 -3 13 -21 8 -26 7 -25 rrcurveto
          79 -307 11 -66 -33 vvcurveto
          -14 -16 -7 -12 -3 vhcurveto
          1 -16 rlineto
          hintmask 0001010010000000
          4 40 55 3 39 hhcurveto
          hintmask 0000110010000000
          46 49 -2 -8 46 hvcurveto
          3 23 rlineto
          hintmask 0010010010000000
          -13 5 -20 6 -15 4 rrcurveto
          endchar
        </CharString>
        <CharString name="w">
          381 0 11 -11 28 -28 66 -55 0 callsubr
          22 -21 27 -21 507 32 9 -20 hstemhm
          379 132 148 151 hintmask 0000001100100000
          hintmask 0100000100100000
          642 28 rmoveto
          130 235 38 88 81 vvcurveto
          26 -3 28 -12 24 vhcurveto
          16 4 16 5 14 6 rrcurveto
          hintmask 0000001010100000
          -3 23 rlineto
          hintmask 0000001100100000
          -6 -39 -32 -2 -40 hhcurveto
          -38 -41 3 4 -36 hvcurveto
          hintmask 0010000011100000
          -2 -17 rlineto
          38 -18 11 -34 -48 vvcurveto
          -55 -8 -89 -51 -220 vhcurveto
          -54 201 -27 153 -8 91 15 3 18 6 15 6 -3 22 rcurveline
          -8 -92 -91 -1 -93 hhcurveto
          hintmask 0000001101100000
          -97 -108 2 7 -64 -2 callgsubr
          hintmask 1000000010100000
          10 -5 18 -6 11 -2 13 -22 8 -25 7 -25 rrcurveto
          79 -306 11 -65 -32 vvcurveto
          -14 -14 -8 -14 -3 vhcurveto
          1 -17 rlineto
          5 40 50 1 30 hhcurveto
          hintmask 0000010100100000
          39 54 -1 -6 39 hvcurveto
          hintmask 0010000100100000
          4 25 -12 2 -16 5 -10 7 rlinecurve
          hintmask 0000001100100000
          27 79 20 59 17 53 rrcurveto
          29 -127 3 -36 -23 vvcurveto
          -15 -15 -10 -15 -3 vhcurveto
          hintmask 1000000100100000
          1 -16 rlineto
          4 40 54 3 39 hhcurveto
          hintmask 0000100100100000
          39 54 -3 -7 39 hvcurveto
          hintmask 0010000100100000
          3 23 -14 5 -19 6 -15 4 rlinecurve
          hintmask 0001000100100000
          -328 479 rmoveto
          hintmask 1000000100100000
          57 8 -25 -57 hvcurveto
          hintmask 0100000100100000
          -55 -9 -84 -51 -220 vhcurveto
          hintmask 0010000101100000
          -54 201 -25 139 -8 91 rrcurveto
          6 26 31 0 callgsubr
          endchar
        </CharString>
        <CharString name="x">
          57 0 28 -16 -21 25 -21 26 -21 511 29 6 -20 22 -51 callgsubr
          hstemhm
          -14 575 -24 callgsubr
          hintmask 0001000110000000
          294 548 rmoveto
          -24 callgsubr
          -7 -50 -55 -1 -50 hhcurveto
          -40 -50 3 6 -39 hvcurveto
          hintmask 0001000110000000
          -40 callsubr
          hintmask 0100010010000000
          10 -6 15 -5 12 -3 146 -241 rcurveline
          -61 -85 -46 -68 -59 -88 -12 -3 -15 -5 -11 -6 3 -24 rcurveline
          7 37 43 2 37 hhcurveto
          -24 callgsubr
          35 45 -3 -6 33 hvcurveto
          -32 callsubr
          hintmask 0100100010000000
          -13 6 -17 5 -15 3 rrcurveto
          hintmask 0010100010000000
          1 24 3 28 51 128 rrcurveto
          -14 callsubr
          74 -118 11 -36 -26 vvcurveto
          -8 -2 -8 -3 -4 vhcurveto
          hintmask 0010100010000000
          3 -13 rlineto
          4 33 39 1 33 hhcurveto
          39 60 -3 -6 39 hvcurveto
          -24 callgsubr
          4 24 -14 7 -18 5 -18 4 rlinecurve
          hintmask 0100100010000000
          -169 281 rlineto
          hintmask 0010010010000000
          70 92 51 58 47 47 15 3 19 6 12 6 -3 24 rcurveline
          -6 -32 -49 -2 -32 hhcurveto
          -34 -33 2 4 -33 hvcurveto
          hintmask 0001001010000000
          -3 -15 rlineto
          -24 callgsubr
          13 -7 5 -13 -15 vvcurveto
          -22 -9 -24 -44 -79 vhcurveto
          hintmask 0001000110000000
          -50 86 -4 20 34 vvcurveto
          15 3 19 5 14 7 rrcurveto
          endchar
        </CharString>
        <CharString name="y">
          -99 callsubr
          endchar
        </CharString>
        <CharString name="yacute">
          -99 callsubr
          302 153 rmoveto
          -1 33 -11 66 -13 22 rrcurveto
          -89 callsubr
        </CharString>
        <CharString name="ydieresis">
          -99 callsubr
          46 177 rmoveto
          -103 callsubr
          endchar
        </CharString>
        <CharString name="yen">
          66 0 29 -29 190 -176 -21 156 40 -32 33 39 40 -32 33 241 29 -17 17 -10 callgsubr
          190 151 hintmask 0010101100010000
          hintmask 0011010100010000
          53 228 rmoveto
          95 3 42 1 rlineto
          -5 vlineto
          -37 -123 vlineto
          -3 -11 -7 -13 -7 -12 3 -6 rcurveline
          95 3 41 1 -3 -66 -5 -36 -2 -19 rlinecurve
          -89 callgsubr
          4 -24 rcurveline
          hintmask 0100001100010000
          -90 callgsubr
          hintmask 0010101100010000
          -32 callsubr
          hintmask 1000101010010000
          -93 callsubr
          -3 20 -5 40 -2 66 rrcurveto
          1 47 52 1 31 -32 callgsubr
          -32 -2 -46 -2 -43 -1 rrcurveto
          -1 14 0 15 16 vvcurveto
          1 48 52 1 32 -32 callgsubr
          -32 -2 -47 -2 -43 -1 rrcurveto
          1 vlineto
          154 236 16 3 20 6 12 3 callgsubr
          hintmask 0010101001010000
          -6 -32 -43 -1 -32 hhcurveto
          hintmask 0010101100010000
          -31 -34 2 4 -30 hvcurveto
          -3 -15 rlineto
          13 -6 5 -13 -17 vvcurveto
          -24 -5 -27 -48 -144 vhcurveto
          -33 61 -24 82 -23 68 15 3 18 6 15 6 rrcurveto
          hintmask 0010101000110000
          -3 22 rlineto
          -6 -37 -59 -2 -37 hhcurveto
          hintmask 0010101100010000
          -40 -52 2 6 -39 -2 callgsubr
          hintmask 0010101000110000
          11 -6 16 -4 12 -3 rrcurveto
          hintmask 0010110010010000
          24 -21 20 -14 100 -206 rrcurveto
          -113 hlineto
          -3 -11 -7 -13 -7 -12 rrcurveto
          endchar
        </CharString>
        <CharString name="z">
          -31 14 -21 21 59 -55 -21 477 59 -4 26 -6 -20 hstemhm
          372 25 hintmask 01010010
          348 533 rmoveto
          hintmask 01001010
          -132 -137 22 -69 hhcurveto
          -5 -26 14 -3 12 -4 12 -7 rlinecurve
          hintmask 00110010
          6 -21 2 -26 -21 vvcurveto
          -15 -1 -30 -3 -16 vhcurveto
          25 -5 9 18 8 23 6 21 rlinecurve
          27 24 33 4 36 hhcurveto
          70 hlineto
          4 -5 -216 -373 -22 -38 -26 -44 -16 -17 rlinecurve
          hintmask 01010010
          18 -15 rlineto
          26 21 49 6 58 hhcurveto
          91 115 -6 -13 87 hvcurveto
          hintmask 10010010
          6 -5 6 -5 5 -6 22 14 rcurveline
          hintmask 01000110
          -44 45 -14 69 -5 63 -25 -2 rcurveline
          -19 0 -22 -4 -17 vhcurveto
          -27 -22 -37 -10 -36 hhcurveto
          -48 hlineto
          -4 3 185 381 21 43 21 35 16 14 rlinecurve
          hintmask 01010010
          -18 15 rlineto
          -24 -26 -21 -7 -51 hhcurveto
          endchar
        </CharString>
        <CharString name="zero">
          66 -15 45 480 45 hstem
          7 527 vstem
          7 255 rmoveto
          -157 42 110 -113 114 hhcurveto
          86 133 108 192 42 hvcurveto
          157 -42 -106 113 -113 hhcurveto
          -86 -138 -108 -192 -42 hvcurveto
          266 255 rmoveto
          51 -26 30 -114 -100 vvcurveto
          -99 -30 -115 -51 -26 vhcurveto
          -53 26 -30 115 99 vvcurveto
          100 30 114 53 26 vhcurveto
          endchar
        </CharString>
      <CharString index="0">
        241 -15 98 -83 34 -22 -21 626 34 0 -20 28 -44 callgsubr
        160 170 184 165 hintmask 1001000001100000
        99 582 rmoveto
        1 -8 0 -8 -8 -39 -14 -179 -99 vvcurveto
        -170 47 -86 170 vhcurveto
        hintmask 0011000001100000
        48 19 46 26 37 36 -2 -24 -5 -24 -6 -9 4 -18 rcurveline
        hintmask 0101000001100000
        7 47 40 13 callgsubr
        5 -2 -7 56 hvcurveto
        hintmask 0011000001100000
        -55 callgsubr
        hintmask 0101000001100000
        -41 callgsubr
        -88 callsubr
        -3 26 rcurveline
        hintmask 1000001001100000
        -7 -56 -45 -2 -56 hhcurveto
        hintmask 1001000001100000
        -47 -50 2 7 -47 hvcurveto
        -4 -27 rlineto
        hintmask 1000001001100000
        13 -7 29 -9 14 -3 rrcurveto
        hintmask 1000100001100000
        -66 callsubr
        hintmask 1001000001100000
        -126 -1 -54 -2 -29 vhcurveto
        -20 -26 -29 -14 -34 hhcurveto
        -92 0 90 103 72 5 129 6 72 hvcurveto
        4 48 7 25 34 19 rrcurveto
        hintmask 1000001001100000
        -3 18 rlineto
        -6 -19 -25 -2 -19 hhcurveto
        hintmask 1000010001100000
        -66 -45 12 1 -39 hvcurveto
        hintmask 1001000001100000
        -87 -29 -109 -99 -91 -40 callgsubr
        hintmask 1000000111100000
        24 22 27 16 30 -72 callgsubr
        -81 callgsubr
        53 5 29 2 rrcurveto
        return
      </CharString>
      <CharString index="1">
        169 -13 89 -76 29 -15 -21 518 29 7 -20 21 -51 callgsubr
        hstemhm
        90 151 154 151 -47 callsubr
        557 511 rmoveto
        hintmask 1000010110000000
        -91 callsubr
        -9 callgsubr
        -2 22 rlineto
        -47 callsubr
        -6 -43 -47 -36 callgsubr
        -77 callsubr
        -9 callgsubr
        -3 2 callsubr
        11 -6 15 -6 12 -4 -4 callgsubr
        4 -30 8 -104 -104 vvcurveto
        -105 -1 -37 -1 -25 vhcurveto
        -16 -22 -24 -12 -29 hhcurveto
        -74 -3 70 84 60 3 104 6 59 hvcurveto
        -9 callgsubr
        4 41 6 20 28 16 -3 16 rcurveline
        hintmask 1000100110000000
        -5 -33 -36 -1 -32 hhcurveto
        -47 callsubr
        -35 -51 2 5 -36 hvcurveto
        -4 2 callsubr
        9 -5 18 -6 11 -3 -4 callgsubr
        7 -16 0 -13 -17 -33 -13 -147 -83 vvcurveto
        -144 45 -69 145 vhcurveto
        41 16 38 22 31 30 -2 -20 -4 -20 -5 -8 rrcurveto
        hintmask 0011000110000000
        4 -16 rlineto
        6 36 43 3 36 hhcurveto
        38 29 -1 -6 38 hvcurveto
        -20 callgsubr
        2 23 -93 callsubr
        rlinecurve
        hintmask 0011000110000000
        -4 29 -7 91 131 vvcurveto
        -20 callgsubr
        102 5 100 4 29 vhcurveto
        return
      </CharString>
      <CharString index="2">
        58 -15 98 250 43 206 84 hstemhm
        26 180 201 104 -91 28 hintmask 11111000
        318 -15 rmoveto
        94 29 99 97 98 vvcurveto
        17 -9 11 -17 1 vhcurveto
        -27 -24 -27 -14 -34 -12 -1 -7 rcurveline
        8 -7 3 -12 -17 vvcurveto
        -14 -3 -23 -5 -14 vhcurveto
        -9 -20 -23 -2 -21 hhcurveto
        -82 -47 50 82 91 88 27 91 hvcurveto
        12 hlineto
        5 43 rlineto
        -125 -58 61 125 10 hvcurveto
        14 18 26 6 26 hhcurveto
        hintmask 11110100
        39 47 -3 callsubr
        5 -28 1 -31 -28 vvcurveto
        28 hlineto
        12 85 19 60 49 69 -23 15 rcurveline
        -13 -12 -12 -14 -16 -10 rrcurveto
        16 -48 -52 4 -41 hhcurveto
        -101 -35 -96 -57 -66 -82 2 -88 69 -42 88 -9 rrcurveto
        -9 vlineto
        -100 -93 -67 -100 hvcurveto
        hintmask 11111000
        -144 148 -48 144 vhcurveto
        return
      </CharString>
      <CharString index="3">
        -40 callgsubr
        24 22 27 16 30 -72 callgsubr
        -98 callgsubr
        return
      </CharString>
      <CharString index="4">
        -78 callgsubr
        25 -21 26 -21 308 41 237 -9 callsubr
        -104 4 callgsubr
        135 182 hintmask 0100011011100000
        275 336 rmoveto
        111 5 92 3 44 vhcurveto
        2 11 17 1 11 hhcurveto
        69 19 -45 -69 -60 -22 -63 -60 hvcurveto
        -11 hlineto
        -4 -41 rlineto
        12 26 -2 -2 12 hvcurveto
        hintmask 0001011011100000
        45 -119 15 -66 -42 vvcurveto
        -30 -9 -25 -9 -9 vhcurveto
        3 -18 rlineto
        hintmask 0100011011100000
        3 34 53 2 34 hhcurveto
        44 58 -1 -8 44 hvcurveto
        hintmask 0010011011100000
        4 27 rlineto
        hintmask 0000111011100000
        -13 7 -30 9 -13 3 rrcurveto
        hintmask 0100011011100000
        -144 292 rlineto
        66 34 47 57 74 vvcurveto
        140 -96 17 -140 -89 -112 1 6 -88 vhcurveto
        hintmask 0100010111100000
        -93 callgsubr
        hintmask 0010011011100000
        -81 callsubr
        hintmask 0100011011100000
        -21 callsubr
        -55 callgsubr
        hintmask 0010011011100000
        -90 callsubr
        hintmask 0001011011100000
        -5 34 -9 110 158 vvcurveto
        hintmask 1000011011100000
        return
      </CharString>
      <CharString index="5">
        -15 84 326 96 91 84 hstem
        5 callgsubr
        53 48 139 179 vstem
        348 666 -105 callsubr
        return
      </CharString>
      <CharString index="6">
        0 29 -17 -21 23 14 callgsubr
        255 41 211 42 -31 31 -2 callsubr
        112 164 hintmask 0001110110000000
        309 544 rmoveto
        -68 -126 -8 -69 hhcurveto
        hintmask 1000101110000000
        -39 callgsubr
        -39 8 -97 -93 vvcurveto
        -137 -9 -74 -3 -27 vhcurveto
        -89 callgsubr
        rrcurveto
        hintmask 0010110110000000
        4 -24 rlineto
        hintmask 1000110110000000
        -90 callgsubr
        hintmask 0010110110000000
        -32 callsubr
        hintmask 0001110110000000
        -93 callsubr
        rrcurveto
        hintmask 1000110110000000
        -1 hlineto
        -4 30 -6 90 128 vvcurveto
        92 5 94 4 36 vhcurveto
        2 9 12 1 9 hhcurveto
        57 16 -49 -57 -53 -15 -52 -52 hvcurveto
        -10 hlineto
        -4 -41 rlineto
        12 18 -1 -2 12 hvcurveto
        37 -99 12 -51 -35 vvcurveto
        hintmask 0001110110000000
        -24 -8 -20 -7 -7 vhcurveto
        3 -16 rlineto
        4 34 43 1 34 hhcurveto
        hintmask 1000110110000000
        36 59 -2 -7 36 hvcurveto
        4 24 rlineto
        hintmask 0100110110000000
        -11 6 -25 8 -11 2 rrcurveto
        hintmask 0001110110000000
        -129 235 rlineto
        55 28 41 53 61 vvcurveto
        120 -95 16 -120 vhcurveto
        return
      </CharString>
      <CharString index="7">
        rmoveto
        -138 104 -96 156 vhcurveto
        158 39 102 135 162 vvcurveto
        154 -95 80 -154 vhcurveto
        -158 -39 -113 -135 -162 vvcurveto
        242 265 rmoveto
        106 8 -122 -105 -54 -8 -81 -23 -52 hvcurveto
        -9 -14 -16 -5 -18 hhcurveto
        -95 -18 130 94 57 9 81 22 53 hvcurveto
        9 14 17 4 16 hhcurveto
        return
      </CharString>
      <CharString index="8">
        76 0 -12 callgsubr
        74 59 hstemhm
        198 166 hintmask 01011100
        hintmask 10011100
        186 37 rmoveto
        -14 -3 -30 -9 -13 -7 rrcurveto
        hintmask 01011100
        4 -27 rlineto
        hintmask 10011100
        7 47 51 2 47 hhcurveto
        50 56 -2 -7 50 hvcurveto
        hintmask 01011100
        3 26 -17 8 -24 5 -19 4 rlinecurve
        -5 37 -8 92 165 vvcurveto
        176 286 19 4 24 8 15 8 rlinecurve
        -4 26 rlineto
        -7 -39 -34 -2 -39 hhcurveto
        hintmask 01101100
        -37 -40 3 4 -37 hvcurveto
        -3 -16 rlineto
        hintmask 01011100
        16 -8 6 -14 -17 vvcurveto
        -35 -7 -32 -58 -173 vhcurveto
        -41 90 rlineto
        -20 43 -12 44 45 vvcurveto
        15 2 19 4 15 vhcurveto
        75 -95 -153 64 -120 hhcurveto
        -28 -59 -7 -28 -4 1 -4 2 -4 hvcurveto
        30 -14 25 -18 23 -23 8 3 rcurveline
        4 27 46 10 27 3 24 -17 32 -48 14 -27 162 -322 rcurveline
        -25 vlineto
        -138 -8 -70 -4 -30 vhcurveto
        return
      </CharString>
      <CharString index="9">
        -10 6 -5 14 19 vvcurveto
        14 4 20 5 14 vhcurveto
        return
      </CharString>
      <CharString index="10">
        rmoveto
        85 31 102 98 90 vvcurveto
        17 -9 11 -17 1 vhcurveto
        -24 -22 -27 -16 -30 -12 -1 -7 rcurveline
        10 -6 5 -14 -19 vvcurveto
        -14 -4 -21 -5 -14 vhcurveto
        -20 -28 -35 -5 -34 hhcurveto
        -14 -26 2 5 -13 hvcurveto
        -5 50 -3 96 120 vvcurveto
        -80 callgsubr
        hintmask 10011100
        -3 26 rlineto
        hintmask 11001100
        -7 -56 -45 -2 -56 hhcurveto
        -47 -50 2 7 -47 hvcurveto
        hintmask 10011100
        -4 -27 rlineto
        hintmask 10101100
        13 -7 29 -9 14 -3 rrcurveto
        hintmask 11001100
        -66 callsubr
        -109 -7 -134 -21 -100 vhcurveto
        25 -6 6 17 9 19 10 12 rlinecurve
        -21 60 68 -19 88 hhcurveto
        endchar
      </CharString>
      <CharString index="11">
        173 -3 callgsubr
        23 -21 516 29 7 -20 21 -51 callgsubr
        hstemhm
        97 81 291 81 hintmask 0011000110000000
        -20 callgsubr
        -31 callgsubr
        -47 callsubr
        6 40 39 -37 callgsubr
        16 -1 -6 43 hvcurveto
        -20 callgsubr
        -32 callsubr
        hintmask 0011000110000000
        -93 callsubr
        -4 callgsubr
        -45 39 -4 96 147 vvcurveto
        65 vlineto
        4 1 rlineto
        179 -297 27 -40 -45 vvcurveto
        hintmask 0011000110000000
        3 21 43 2 28 hhcurveto
        -47 callsubr
        43 43 -1 -6 43 hvcurveto
        -32 callsubr
        hintmask 0011000110000000
        -93 callsubr
        -4 callgsubr
        -8 49 -5 52 140 vvcurveto
        102 5 92 8 47 vhcurveto
        -91 callsubr
        hintmask 0010010110000000
        -2 22 rlineto
        -5 -35 -34 -3 -39 hhcurveto
        hintmask 0011000110000000
        -64 -24 4 3 -19 hvcurveto
        -3 -19 rlineto
        hintmask 0010001110000000
        70 -17 8 -61 -177 vvcurveto
        -79 vlineto
        -3 -2 rlineto
        -165 269 -6 19 25 vvcurveto
        12 9 10 10 4 vhcurveto
        -3 17 rlineto
        -5 -28 -54 -3 -51 hhcurveto
        hintmask 0011000110000000
        -40 -50 -31 callsubr
        hintmask 0010001110000000
        11 -6 15 -6 12 -4 rrcurveto
        hintmask 0010100110000000
        7 -50 7 -111 -78 vvcurveto
        -115 -6 -78 -6 -46 vhcurveto
        return
      </CharString>
      <CharString index="12">
        -19 29 -45 36 -30 16 -36 -16 -42 -37 -17 -28 16 -30 49 -50 30 -20 30 20 49 50 15 30 rrcurveto
        return
      </CharString>
      <CharString index="13">
        32 15 -21 27 -21 588 84 -21 -20 hstemhm
        -21 26 593 108 hintmask 01011100
        387 -205 rmoveto
        156 30 163 72 66 vvcurveto
        11 -7 6 -8 3 vhcurveto
        -7 -15 -18 -4 -23 hhcurveto
        -12 -13 1 2 -12 hvcurveto
        -6 -8 rlineto
        4 -3 2 -5 -6 vvcurveto
        -22 -23 -29 -15 -14 vhcurveto
        -126 -1 -69 125 -111 47 238 490 rcurveline
        14 29 14 26 13 20 11 15 12 14 15 15 -22 18 rcurveline
        -28 -28 -42 -7 -40 -129 -38 21 -108 hhcurveto
        hintmask 10101100
        -78 -34 -107 -99 -85 -104 callgsubr
        13 23 34 6 26 hhcurveto
        31 24 -8 -5 21 hvcurveto
        61 -17 38 14 -261 -454 -27 -47 -30 -41 -34 -36 rlinecurve
        17 -17 rlineto
        hintmask 01011100
        16 29 20 7 29 hhcurveto
        93 115 -105 -68 66 hvcurveto
        return
      </CharString>
      <CharString index="14">
        -78 -34 -93 -93 -85 -104 callgsubr
        16 16 54 5 30 1 rrcurveto
        5 -55 7 -102 -100 vvcurveto
        -168 -9 -91 -4 -30 vhcurveto
        -14 -3 -29 -9 -13 -63 callsubr
        return
      </CharString>
      <CharString index="15">
        4 -145 111 128 107 380 85 hstemhm
        7 59 -11 127 -29 7 161 136 -78 27 hintmask 11110101
        11 -93 rmoveto
        -34 56 80 -18 65 hhcurveto
        hintmask 11101010
        99 42 146 186 122 91 -275 100 113 vvcurveto
        49 41 23 42 vhcurveto
        hintmask 11101001
        38 41 -14 -25 29 hvcurveto
        4 -21 2 -39 -22 vvcurveto
        27 hlineto
        3 54 17 75 38 35 rrcurveto
        20 vlineto
        15 -54 -63 7 -56 hhcurveto
        -115 -43 -121 -115 -141 vvcurveto
        hintmask 11101010
        -90 266 -104 -113 vvcurveto
        -69 -38 -25 -61 vhcurveto
        hintmask 11110101
        -68 -88 34 48 5 1 6 2 5 hvcurveto
        16 17 29 14 22 hhcurveto
        7 5 -2 -4 4 hvcurveto
        7 4 1 32 6 31 12 29 rlinecurve
        11 -5 -8 6 -10 hhcurveto
        -58 -91 -108 -138 -18 1 -16 3 -14 hvcurveto
        return
      </CharString>
      <CharString index="16">
        rmoveto
        12 4 15 6 11 6 rrcurveto
        hintmask 00110000
        -3 24 rlineto
        hintmask 10010000
        -6 -40 -43 -3 -40 hhcurveto
        -42 -47 2 6 -43 hvcurveto
        hintmask 01010000
        -2 -22 rlineto
        hintmask 10010000
        15 -7 18 -5 15 -3 rrcurveto
        4 -28 7 -110 -90 vvcurveto
        -165 vlineto
        -123 -23 -85 -98 -74 vhcurveto
        15 -18 94 43 110 67 63 80 rlinecurve
        -3 26 -8 103 146 vvcurveto
        90 9 104 4 32 vhcurveto
        endchar
      </CharString>
      <CharString index="17">
        6 40 41 2 40 hhcurveto
        -88 callgsubr
        return
      </CharString>
      <CharString index="18">
        -12 -4 -14 -5 -11 -6 return
      </CharString>
      <CharString index="19">
        43 46 -1 -6 43 hvcurveto
        return
      </CharString>
      <CharString index="20">
        rmoveto
        41 48 -9 -31 -9 -2 -7 -4 -7 hvcurveto
        -3 -7 -9 -2 -13 hhcurveto
        -29 -25 16 23 -14 hvcurveto
        -4 -2 -4 -16 -22 -45 -10 -15 rlinecurve
        -12 25 47 -9 26 hhcurveto
        52 28 42 38 28 53 rrcurveto
        58 -46 19 -68 vhcurveto
        -4 3 23 52 -39 -2 -38 -117 rlineto
        endchar
      </CharString>
      <CharString index="21">
        -18 27 -43 34 -28 15 return
      </CharString>
      <CharString index="22">
        10 24 -91 43 -64 43 -44 66 rlinecurve
        2 -7 -10 1 -9 hhcurveto
        -9 -8 -1 -2 -5 hvcurveto
        -13 -22 -11 -55 -1 -33 rrcurveto
        endchar
      </CharString>
      <CharString index="23">
        -28 callsubr
        -81 49 -70 -23 callsubr
        -70 -70 -81 -8 callsubr
        206 79 rlineto
        endchar
      </CharString>
      <CharString index="24">
        rmoveto
        -82 callgsubr
        return
      </CharString>
      <CharString index="25">
        -19 29 -45 36 -30 16 -36 -16 -42 -37 -17 -28 12 -23 35 -38 24 -20 -6 -57 -28 -56 -42 -40 16 -20 rcurveline
        78 45 100 119 90 vvcurveto
        return
      </CharString>
      <CharString index="26">
        -98 callgsubr
        15 15 return
      </CharString>
      <CharString index="27">
        -88 callsubr
        rrcurveto
        return
      </CharString>
      <CharString index="28">
        6 40 40 2 40 hhcurveto
        -88 callgsubr
        return
      </CharString>
      <CharString index="29">
        0 34 -34 37 -25 -21 return
      </CharString>
      <CharString index="30">
        rmoveto
        -14 -3 -22 -7 -14 -6 2 -23 rcurveline
        6 28 45 5 48 hhcurveto
        49 32 -5 -6 37 hvcurveto
        3 23 -13 6 -19 8 -13 4 rlinecurve
        -3 23 -3 93 42 vvcurveto
        43 5 117 6 44 vhcurveto
        -3 2 rlineto
        -8 -22 -2 -1 -6 hvcurveto
        -42 -39 -71 -31 -57 -12 rrcurveto
        -1 -3 -2 -17 -4 vvcurveto
        2 -2 rlineto
        61 hlineto
        2 -31 1 -34 -33 vvcurveto
        -41 -5 -90 -3 -26 vhcurveto
        return
      </CharString>
      <CharString index="31">
        1 13 hhcurveto
        21 21 -1 -4 20 hvcurveto
        4 -19 7 -25 7 -17 24 4 rcurveline
        -5 24 -4 25 24 vvcurveto
        23 4 27 7 22 vhcurveto
        -21 6 rlineto
        -25 -23 -29 -6 -40 hhcurveto
        -11 return
      </CharString>
      <CharString index="32">
        hvcurveto
        1 -23 4 -26 6 -22 rrcurveto
        25 hlineto
        return
      </CharString>
      <CharString index="33">
        33 35 -11 -21 26 hvcurveto
        4 -17 1 -32 -19 vvcurveto
        26 hlineto
        3 45 15 69 33 30 rrcurveto
        16 vlineto
        13 -48 -56 6 -50 hhcurveto
        -87 -24 -117 -107 -90 vvcurveto
        return
      </CharString>
      <CharString index="34">
        -17 -15 89 182 58 171 70 -39 23 0 -20 -16 callsubr
        144 33 18 25 hintmask 11001110
        return
      </CharString>
      <CharString index="35">
        12 1 7 rcurveline
        return
      </CharString>
      <CharString index="36">
        -24 -1 -3 -4 -23 vhcurveto
        -15 -3 -26 -8 -14 -6 3 -21 rcurveline
        6 25 46 4 44 hhcurveto
        53 40 -3 -5 33 hvcurveto
        4 23 -11 3 -26 7 -9 5 rlinecurve
        -4 20 -1 2 26 vvcurveto
        15 31 0 -2 24 hvcurveto
        4 2 -1 25 1 54 5 24 rlinecurve
        -14 4 rlineto
        -28 -10 -25 -4 -31 hhcurveto
        return
      </CharString>
      <CharString index="37">
        34 -35 callsubr
        1 callgsubr
        165 return
      </CharString>
      <CharString index="38">
        rmoveto
        398 552 62 86 41 57 33 41 rlinecurve
        -4 3 -17 1 -33 2 -17 4 rlinecurve
        -46 -70 -37 -55 -49 -68 -254 -351 rcurveline
        return
      </CharString>
      <CharString index="39">
        rmoveto
        -52 -24 -102 -97 -57 vvcurveto
        -15 7 -9 16 vhcurveto
        21 20 17 14 23 9 rrcurveto
        6 vlineto
        -6 4 -3 8 11 vvcurveto
        7 2 14 3 7 vhcurveto
        6 7 12 2 12 hhcurveto
        31 19 -15 -31 -99 -132 -64 -47 -96 hvcurveto
        20 -10 9 12 16 15 11 5 rlinecurve
        return
      </CharString>
      <CharString index="40">
        223 -69 callsubr
        return
      </CharString>
      <CharString index="41">
        rmoveto
        31 20 30 8 32 57 6 callgsubr
        hhcurveto
        return
      </CharString>
      <CharString index="42">
        -95 callgsubr
        endchar
      </CharString>
      <CharString index="43">
        -20 24 -20 hstemhm
        -100 26 return
      </CharString>
      <CharString index="44">
        -34 -15 -40 -35 -16 -26 15 -29 46 -47 29 -19 28 19 47 47 14 29 rrcurveto
        222 hmoveto
        -104 callsubr
        return
      </CharString>
      <CharString index="45">
        -60 0 59 -49 0 callsubr
        519 -33 callsubr
        132 26 hintmask 10010011
        return
      </CharString>
      <CharString index="46">
        vlineto
        13 -3 15 -5 11 -7 rrcurveto
        4 return
      </CharString>
      <CharString index="47">
        -4 18 -3 35 15 vvcurveto
        22 4 39 6 20 vhcurveto
        -21 6 -6 -17 -6 -15 -8 -15 rlinecurve
        -45 6 -35 4 -45 -2 rrcurveto
        -8 -2 -13 -7 0 vvcurveto
        -4 5 52 35 80 65 41 38 rlinecurve
        return
      </CharString>
      <CharString index="48">
        -4 28 -8 92 131 vvcurveto
        return
      </CharString>
      <CharString index="49">
        12 15 22 2 20 -10 callsubr
        23 -75 callgsubr
        return
      </CharString>
      <CharString index="50">
        349 -1 rmoveto
        -130 -10 168 131 80 14 109 29 75 hvcurveto
        16 18 26 0 callgsubr
        39 48 -3 callsubr
        1 -27 4 -31 7 -26 rrcurveto
        27 hlineto
        return
      </CharString>
      <CharString index="51">
        -2 -16 -22 -2 -24 hhcurveto
        hintmask 0001110011000000
        -21 -24 2 2 -14 hvcurveto
        43 232 rlineto
        3 9 12 2 12 hhcurveto
        12 14 -1 -5 10 hvcurveto
        5 -43 4 -43 -123 vvcurveto
        return
      </CharString>
      <CharString index="52">
        3 26 rlineto
        return
      </CharString>
      <CharString index="53">
        707 -28 callsubr
        -68 36 -51 50 -19 callgsubr
        -51 -50 -68 -36 10 -24 rcurveline
        184 62 rlineto
        return
      </CharString>
      <CharString index="54">
        rmoveto
        -206 79 -10 -24 81 -49 70 -70 44 -75 rlinecurve
        -1 3 6 -1 12 hhcurveto
        12 6 1 1 3 hvcurveto
        44 75 70 70 81 49 -10 24 rcurveline
        endchar
      </CharString>
      <CharString index="55">
        rmoveto
        43 5 15 104 15 75 34 99 rlinecurve
        -15 20 rlineto
        -34 -50 -11 -19 -30 hvcurveto
        return
      </CharString>
      <CharString index="56">
        -20 21 -20 return
      </CharString>
      <CharString index="57">
        rmoveto
        -6 6 rlineto
        -2 -26 -33 -1 -26 hhcurveto
        return
      </CharString>
      <CharString index="58">
        -24 -61 callgsubr
        -28 7 -91 -113 vvcurveto
        -89 -6 -111 -17 -83 vhcurveto
        20 -5 5 14 8 16 8 10 rlinecurve
        return
      </CharString>
      <CharString index="59">
        rcurveline
        -1 -13 -3 -15 -3 -10 3 -4 rcurveline
        25 4 49 4 44 1 rrcurveto
        return
      </CharString>
      <CharString index="60">
        -88 callgsubr
        2 23 return
      </CharString>
      <CharString index="61">
        11 -6 15 -6 12 -4 3 -26 5 -71 1 -81 rrcurveto
        -4 -17 -28 -3 -34 hhcurveto
        -35 -28 4 4 -18 hvcurveto
        80 4 73 5 26 vhcurveto
        return
      </CharString>
      <CharString index="62">
        -64 -8 -73 -23 -56 vhcurveto
        -11 -18 -17 -3 -19 hhcurveto
        -24 -28 8 14 -20 hvcurveto
        -3 56 -2 78 55 vvcurveto
        121 2 48 4 57 vhcurveto
        return
      </CharString>
      <CharString index="63">
        -20 21 -64 callgsubr
        return
      </CharString>
      <CharString index="64">
        rmoveto
        -6 6 rlineto
        -2 -26 -104 -25 callgsubr
        -246 3 6 -113 hvcurveto
        -8 -59 8 -7 rlineto
        626 hlineto
        endchar
      </CharString>
      <CharString index="65">
        rmoveto
        15 -30 49 -50 30 -20 30 20 49 50 16 30 -17 28 -42 37 -36 16 -30 -16 -45 -36 -19 -29 rrcurveto
        121 return
      </CharString>
      <CharString index="66">
        -90 callsubr
        -5 34 -9 110 158 vvcurveto
        return
      </CharString>
      <CharString index="67">
        vvcurveto
        -17 9 -11 17 -1 vhcurveto
        return
      </CharString>
      <CharString index="68">
        -23 -61 callgsubr
        return
      </CharString>
      <CharString index="69">
        8 -51 callgsubr
        -2 callsubr
        return
      </CharString>
      <CharString index="70">
        2 40 hhcurveto
        43 return
      </CharString>
      <CharString index="71">
        -2 -42 hhcurveto
        return
      </CharString>
      <CharString index="72">
        hmoveto
        -19 29 -45 36 -30 16 -36 -16 -42 -37 -17 -28 return
      </CharString>
      <CharString index="73">
        2 23 -93 callsubr
        rlinecurve
        -5 28 -8 74 141 vvcurveto
        102 8 109 5 28 vhcurveto
        return
      </CharString>
      <CharString index="74">
        rmoveto
        162 30 122 139 164 vvcurveto
        164 -92 62 -164 vhcurveto
        -83 -105 -7 -83 hhcurveto
        return
      </CharString>
      <CharString index="75">
        hhcurveto
        6 vlineto
        -6 13 0 6 -4 13 return
      </CharString>
      <CharString index="76">
        85 -75 callsubr
        4 -24 rcurveline
        return
      </CharString>
      <CharString index="77">
        16 5 26 9 15 8 rrcurveto
        return
      </CharString>
      <CharString index="78">
        7 -3 26 rcurveline
        return
      </CharString>
      <CharString index="79">
        -78 -34 -93 -93 -20 callsubr
        return
      </CharString>
      <CharString index="80">
        hvcurveto
        -2 23 0 18 22 vvcurveto
        -25 hlineto
        -3 -41 -13 -92 -28 -32 rrcurveto
        -14 vlineto
        -24 52 return
      </CharString>
      <CharString index="81">
        -82 231 -72 -60 vvcurveto
        -37 -37 -14 -37 vhcurveto
        return
      </CharString>
      <CharString index="82">
        -1 -26 hhcurveto
        -113 return
      </CharString>
      <CharString index="83">
        hintmask 0001100010000000
        return
      </CharString>
      <CharString index="84">
        -17 50 71 -16 54 hhcurveto
        -4 511 rmoveto
        108 17 -126 -108 hvcurveto
        return
      </CharString>
      <CharString index="85">
        185 -92 80 -185 vhcurveto
        -52 -65 rmoveto
        127 23 -141 -125 hvcurveto
        return
      </CharString>
      <CharString index="86">
        -4 -30 vhcurveto
        -14 -3 -29 -9 -13 -7 rrcurveto
        return
      </CharString>
      <CharString index="87">
        hintmask 0101000110000000
        return
      </CharString>
      <CharString index="88">
        -44 66 rlinecurve
        2 -7 -12 -8 callgsubr
        -12 -1 -2 -7 hvcurveto
        -44 -66 return
      </CharString>
      <CharString index="89">
        8 2 11 5 0 vvcurveto
        2 -3 -86 -100 4 -6 rlineto
        49 24 -24 -49 return
      </CharString>
      <CharString index="90">
        -5 34 -9 110 158 vvcurveto
        endchar
      </CharString>
      <CharString index="91">
        7 -15 24 -15 12 -10 rrcurveto
        return
      </CharString>
      <CharString index="92">
        -20 29 -20 return
      </CharString>
      <CharString index="93">
        vlineto
        -62 1 -60 3 -61 3 -9 -71 rcurveline
        8 -7 rlineto
        184 return
      </CharString>
      <CharString index="94">
        33 30 -2 -15 32 hvcurveto
        -31 3 -25 6 -31 vhcurveto
        27 hlineto
        return
      </CharString>
      <CharString index="95">
        37 -25 -21 660 -15 callgsubr
        return
      </CharString>
      <CharString index="96">
        -63 -18 -71 -42 -47 vhcurveto
        return
      </CharString>
      <CharString index="97">
        7 -51 callgsubr
        hstemhm
        return
      </CharString>
      <CharString index="98">
        hintmask 1000001110000000
        return
      </CharString>
      <CharString index="99">
        1 -12 hhcurveto
        -12 return
      </CharString>
      <CharString index="100">
        -66 hvcurveto
        -12 hlineto
        -4 -46 rlineto
        -1 8 10 0 8 hhcurveto
        return
      </CharString>
      <CharString index="101">
        -7 -47 -34 -2 -47 hhcurveto
        -47 -36 3 5 -43 hvcurveto
        return
      </CharString>
      <CharString index="102">
        -86 callgsubr
        -34 -15 -40 -35 -16 -26 return
      </CharString>
      <CharString index="103">
        rrcurveto
        -47 callsubr
        return
      </CharString>
      <CharString index="104">
        0 29 -15 -21 return
      </CharString>
      <CharString index="105">
        hvcurveto
        1 callsubr
        return
      </CharString>
      <CharString index="106">
        -140 -7 return
      </CharString>
      <CharString index="107">
        4 25 hhcurveto
        return
      </CharString>
      <CharString index="108">
        hstemhm
        110 return
      </CharString>
      <CharString index="109">
        48 -31 31 hstemhm
        95 152 162 163 return
      </CharString>
      <CharString index="110">
        7 rlinecurve
        -3 24 rlineto
        return
      </CharString>
      <CharString index="111">
        26 188 165 return
      </CharString>
      <CharString index="112">
        30 179 return
      </CharString>
      <CharString index="113">
        80 -52 55 return
      </CharString>
      <CharString index="114">
        -46 707 179 hstem
        0 428 vstem
        return
      </CharString>
      <CharString index="115">
        86 -70 callsubr
        return
      </CharString>
      <CharString index="116">
        -42 574 220 hstem
        0 432 vstem
        return
      </CharString>
      <CharString index="117">
        rlinecurve
        10 -9 32 -9 13 -3 rrcurveto
        5 hlineto
        return
      </CharString>
      <CharString index="118">
        65 21 48 rlinecurve
        -4 3 return
      </CharString>
      <CharString index="119">
        26 rlineto
        hintmask 00110010
        return
      </CharString>
      <CharString index="120">
        2 47 hhcurveto
        56 return
      </CharString>
      <CharString index="121">
        -21 23 -21 return
      </CharString>
      <CharString index="122">
        171 hstem
        0 401 vstem
        179 return
      </CharString>
      <CharString index="123">
        -16 15 rcurveline
        -39 -40 -46 -22 -55 hhcurveto
        return
      </CharString>
      <CharString index="124">
        102 45 414 hstem
        55 466 vstem
        return
      </CharString>
</ttFont>
